SSP-ExtraLight.ufo
<glyph name="exclam" format="1">
  <advance width="208"/>
  <unicode hex="0021"/>
  <outline>
    <contour>
      <point x="90" y="510" type="line"/>
      <point x="90" y="562" type="line"/>
      <point x="118" y="562" type="line"/>
      <point x="118" y="510" type="line"/>
      <point x="114" y="144" type="line"/>
      <point x="94" y="144" type="line"/>
    </contour>
    <contour>
      <point x="73" y="22" type="curve" smooth="yes"/>
      <point x="73" y="45"/>
      <point x="87" y="55"/>
      <point x="104" y="55" type="curve" smooth="yes"/>
      <point x="121" y="55"/>
      <point x="134" y="45"/>
      <point x="134" y="22" type="curve" smooth="yes"/>
      <point x="134" y="2"/>
      <point x="121" y="-10"/>
      <point x="104" y="-10" type="curve" smooth="yes"/>
      <point x="87" y="-10"/>
      <point x="73" y="2"/>
    </contour>
  </outline>
</glyph>
<glyph name="numbersign" format="1">
  <advance width="396"/>
  <unicode hex="0023"/>
  <outline>
    <contour>
      <point x="101" y="182" type="line"/>
      <point x="29" y="182" type="line"/>
      <point x="29" y="206" type="line"/>
      <point x="104" y="206" type="line"/>
      <point x="122" y="356" type="line"/>
      <point x="46" y="356" type="line"/>
      <point x="46" y="379" type="line"/>
      <point x="123" y="379" type="line"/>
      <point x="146" y="545" type="line"/>
      <point x="170" y="545" type="line"/>
      <point x="147" y="379" type="line"/>
      <point x="278" y="379" type="line"/>
      <point x="300" y="545" type="line"/>
      <point x="323" y="545" type="line"/>
      <point x="302" y="379" type="line"/>
      <point x="370" y="379" type="line"/>
      <point x="370" y="356" type="line"/>
      <point x="300" y="356" type="line"/>
      <point x="281" y="206" type="line"/>
      <point x="354" y="206" type="line"/>
      <point x="354" y="182" type="line"/>
      <point x="278" y="182" type="line"/>
      <point x="256" y="0" type="line"/>
      <point x="232" y="0" type="line"/>
      <point x="255" y="182" type="line"/>
      <point x="123" y="182" type="line"/>
      <point x="102" y="0" type="line"/>
      <point x="79" y="0" type="line"/>
    </contour>
    <contour>
      <point x="258" y="206" type="line"/>
      <point x="276" y="356" type="line"/>
      <point x="146" y="356" type="line"/>
      <point x="127" y="206" type="line"/>
    </contour>
  </outline>
</glyph>
<glyph name="dollar" format="1">
  <advance width="396"/>
  <unicode hex="0024"/>
  <outline>
    <contour>
      <point x="314" y="471" type="line"/>
      <point x="282" y="502"/>
      <point x="256" y="523"/>
      <point x="203" y="523" type="curve" smooth="yes"/>
      <point x="142" y="523"/>
      <point x="101" y="477"/>
      <point x="101" y="420" type="curve" smooth="yes"/>
      <point x="101" y="264"/>
      <point x="345" y="320"/>
      <point x="345" y="123" type="curve" smooth="yes"/>
      <point x="345" y="45"/>
      <point x="288" y="-6"/>
      <point x="216" y="-10" type="curve"/>
      <point x="216" y="-92" type="line"/>
      <point x="191" y="-92" type="line"/>
      <point x="191" y="-10" type="line"/>
      <point x="130" y="-5"/>
      <point x="83" y="26"/>
      <point x="52" y="55" type="curve"/>
      <point x="67" y="73" type="line"/>
      <point x="96" y="46"/>
      <point x="145" y="13"/>
      <point x="205" y="13" type="curve" smooth="yes"/>
      <point x="278" y="13"/>
      <point x="318" y="59"/>
      <point x="318" y="122" type="curve" smooth="yes"/>
      <point x="318" y="297"/>
      <point x="73" y="246"/>
      <point x="73" y="418" type="curve" smooth="yes"/>
      <point x="73" y="490"/>
      <point x="123" y="539"/>
      <point x="191" y="546" type="curve"/>
      <point x="191" y="628" type="line"/>
      <point x="216" y="628" type="line"/>
      <point x="216" y="547" type="line"/>
      <point x="270" y="543"/>
      <point x="301" y="517"/>
      <point x="330" y="488" type="curve"/>
    </contour>
  </outline>
</glyph>
<glyph name="ampersand" format="1">
  <advance width="471"/>
  <unicode hex="0026"/>
  <outline>
    <contour>
      <point x="189" y="13" type="curve" smooth="yes"/>
      <point x="238" y="13"/>
      <point x="282" y="40"/>
      <point x="318" y="78" type="curve"/>
      <point x="258" y="135"/>
      <point x="196" y="207"/>
      <point x="157" y="284" type="curve"/>
      <point x="104" y="245"/>
      <point x="59" y="200"/>
      <point x="59" y="140" type="curve" smooth="yes"/>
      <point x="59" y="64"/>
      <point x="120" y="13"/>
    </contour>
    <contour>
      <point x="134" y="444" type="curve" smooth="yes"/>
      <point x="134" y="405"/>
      <point x="146" y="363"/>
      <point x="167" y="318" type="curve"/>
      <point x="224" y="362"/>
      <point x="280" y="404"/>
      <point x="280" y="465" type="curve" smooth="yes"/>
      <point x="280" y="501"/>
      <point x="264" y="540"/>
      <point x="216" y="540" type="curve" smooth="yes"/>
      <point x="164" y="540"/>
      <point x="134" y="496"/>
    </contour>
    <contour>
      <point x="451" y="-10" type="line"/>
      <point x="417" y="3"/>
      <point x="379" y="26"/>
      <point x="336" y="63" type="curve"/>
      <point x="296" y="20"/>
      <point x="249" y="-10"/>
      <point x="188" y="-10" type="curve" smooth="yes"/>
      <point x="104" y="-10"/>
      <point x="31" y="47"/>
      <point x="31" y="139" type="curve" smooth="yes"/>
      <point x="31" y="212"/>
      <point x="87" y="258"/>
      <point x="146" y="304" type="curve"/>
      <point x="122" y="351"/>
      <point x="109" y="399"/>
      <point x="109" y="442" type="curve" smooth="yes"/>
      <point x="109" y="513"/>
      <point x="155" y="563"/>
      <point x="218" y="563" type="curve" smooth="yes"/>
      <point x="274" y="563"/>
      <point x="306" y="522"/>
      <point x="306" y="465" type="curve" smooth="yes"/>
      <point x="306" y="395"/>
      <point x="239" y="348"/>
      <point x="176" y="299" type="curve"/>
      <point x="215" y="222"/>
      <point x="274" y="150"/>
      <point x="334" y="96" type="curve"/>
      <point x="377" y="149"/>
      <point x="406" y="214"/>
      <point x="425" y="287" type="curve"/>
      <point x="451" y="287" type="line"/>
      <point x="428" y="210"/>
      <point x="397" y="138"/>
      <point x="352" y="81" type="curve"/>
      <point x="391" y="48"/>
      <point x="427" y="26"/>
      <point x="461" y="13" type="curve"/>
    </contour>
  </outline>
</glyph>
<glyph name="parenleft" format="1">
  <advance width="226"/>
  <unicode hex="0028"/>
  <outline>
    <contour>
      <point x="186" y="-146" type="line"/>
      <point x="117" y="-34"/>
      <point x="75" y="84"/>
      <point x="75" y="232" type="curve" smooth="yes"/>
      <point x="75" y="381"/>
      <point x="117" y="500"/>
      <point x="186" y="612" type="curve"/>
      <point x="201" y="602" type="line"/>
      <point x="134" y="495"/>
      <point x="99" y="367"/>
      <point x="99" y="232" type="curve" smooth="yes"/>
      <point x="99" y="98"/>
      <point x="134" y="-29"/>
      <point x="201" y="-136" type="curve"/>
    </contour>
  </outline>
</glyph>
<glyph name="parenright" format="1">
  <advance width="226"/>
  <unicode hex="0029"/>
  <outline>
    <contour>
      <point x="25" y="-136" type="line"/>
      <point x="92" y="-29"/>
      <point x="127" y="98"/>
      <point x="127" y="232" type="curve" smooth="yes"/>
      <point x="127" y="367"/>
      <point x="92" y="495"/>
      <point x="25" y="602" type="curve"/>
      <point x="40" y="612" type="line"/>
      <point x="110" y="500"/>
      <point x="151" y="381"/>
      <point x="151" y="232" type="curve" smooth="yes"/>
      <point x="151" y="84"/>
      <point x="110" y="-34"/>
      <point x="40" y="-146" type="curve"/>
    </contour>
  </outline>
</glyph>
<glyph name="asterisk" format="1">
  <advance width="323"/>
  <unicode hex="002A"/>
  <outline>
    <contour>
      <point x="90" y="415" type="line"/>
      <point x="136" y="486" type="line"/>
      <point x="63" y="514" type="line"/>
      <point x="69" y="534" type="line"/>
      <point x="146" y="513" type="line"/>
      <point x="151" y="597" type="line"/>
      <point x="172" y="597" type="line"/>
      <point x="177" y="514" type="line"/>
      <point x="255" y="534" type="line"/>
      <point x="262" y="514" type="line"/>
      <point x="188" y="486" type="line"/>
      <point x="232" y="415" type="line"/>
      <point x="214" y="400" type="line"/>
      <point x="163" y="469" type="line"/>
      <point x="109" y="400" type="line"/>
    </contour>
  </outline>
</glyph>
<glyph name="comma" format="1">
  <advance width="174"/>
  <unicode hex="002C"/>
  <outline>
    <contour>
      <point x="40" y="-105" type="line"/>
      <point x="74" y="-85"/>
      <point x="100" y="-51"/>
      <point x="101" y="-5" type="curve"/>
      <point x="98" y="-5"/>
      <point x="95" y="-5"/>
      <point x="90" y="-5" type="curve" smooth="yes"/>
      <point x="73" y="-5"/>
      <point x="61" y="5"/>
      <point x="61" y="25" type="curve" smooth="yes"/>
      <point x="61" y="46"/>
      <point x="74" y="55"/>
      <point x="90" y="55" type="curve" smooth="yes"/>
      <point x="113" y="55"/>
      <point x="127" y="36"/>
      <point x="127" y="4" type="curve" smooth="yes"/>
      <point x="127" y="-54"/>
      <point x="94" y="-99"/>
      <point x="50" y="-125" type="curve"/>
    </contour>
  </outline>
</glyph>
<glyph name="period" format="1">
  <advance width="174"/>
  <unicode hex="002E"/>
  <outline>
    <contour>
      <point x="57" y="22" type="curve" smooth="yes"/>
      <point x="57" y="45"/>
      <point x="71" y="55"/>
      <point x="87" y="55" type="curve" smooth="yes"/>
      <point x="103" y="55"/>
      <point x="118" y="45"/>
      <point x="118" y="22" type="curve" smooth="yes"/>
      <point x="118" y="2"/>
      <point x="103" y="-10"/>
      <point x="87" y="-10" type="curve" smooth="yes"/>
      <point x="71" y="-10"/>
      <point x="57" y="2"/>
    </contour>
  </outline>
</glyph>
<glyph name="slash" format="1">
  <advance width="302"/>
  <unicode hex="002F"/>
  <outline>
    <contour>
      <point x="274" y="595" type="line"/>
      <point x="300" y="595" type="line"/>
      <point x="31" y="-134" type="line"/>
      <point x="7" y="-134" type="line"/>
    </contour>
  </outline>
</glyph>
<glyph name="zero" format="1">
  <advance width="396"/>
  <unicode hex="0030"/>
  <outline>
    <contour>
      <point x="197" y="-10" type="curve" smooth="yes"/>
      <point x="96" y="-10"/>
      <point x="42" y="91"/>
      <point x="42" y="269" type="curve" smooth="yes"/>
      <point x="42" y="448"/>
      <point x="96" y="547"/>
      <point x="197" y="547" type="curve" smooth="yes"/>
      <point x="299" y="547"/>
      <point x="354" y="448"/>
      <point x="354" y="269" type="curve" smooth="yes"/>
      <point x="354" y="91"/>
      <point x="299" y="-10"/>
    </contour>
    <contour>
      <point x="197" y="13" type="curve" smooth="yes"/>
      <point x="277" y="13"/>
      <point x="326" y="103"/>
      <point x="326" y="269" type="curve" smooth="yes"/>
      <point x="326" y="437"/>
      <point x="277" y="523"/>
      <point x="197" y="523" type="curve" smooth="yes"/>
      <point x="119" y="523"/>
      <point x="69" y="437"/>
      <point x="69" y="269" type="curve" smooth="yes"/>
      <point x="69" y="103"/>
      <point x="119" y="13"/>
    </contour>
  </outline>
</glyph>
<glyph name="one" format="1">
  <advance width="396"/>
  <unicode hex="0031"/>
  <outline>
    <contour>
      <point x="72" y="24" type="line"/>
      <point x="199" y="24" type="line"/>
      <point x="199" y="486" type="line"/>
      <point x="104" y="486" type="line"/>
      <point x="104" y="505" type="line"/>
      <point x="146" y="512"/>
      <point x="179" y="523"/>
      <point x="203" y="536" type="curve"/>
      <point x="224" y="536" type="line"/>
      <point x="224" y="24" type="line"/>
      <point x="344" y="24" type="line"/>
      <point x="344" y="0" type="line"/>
      <point x="72" y="0" type="line"/>
    </contour>
  </outline>
</glyph>
<glyph name="two" format="1">
  <advance width="396"/>
  <unicode hex="0032"/>
  <outline>
    <contour>
      <point x="35" y="17" type="line"/>
      <point x="216" y="202"/>
      <point x="304" y="303"/>
      <point x="304" y="399" type="curve" smooth="yes"/>
      <point x="304" y="468"/>
      <point x="266" y="523"/>
      <point x="180" y="523" type="curve" smooth="yes"/>
      <point x="130" y="523"/>
      <point x="85" y="493"/>
      <point x="52" y="451" type="curve"/>
      <point x="33" y="467" type="line"/>
      <point x="73" y="512"/>
      <point x="120" y="547"/>
      <point x="182" y="547" type="curve" smooth="yes"/>
      <point x="277" y="547"/>
      <point x="330" y="489"/>
      <point x="330" y="399" type="curve" smooth="yes"/>
      <point x="330" y="288"/>
      <point x="230" y="188"/>
      <point x="73" y="21" type="curve"/>
      <point x="104" y="23"/>
      <point x="134" y="24"/>
      <point x="164" y="24" type="curve" smooth="yes"/>
      <point x="357" y="24" type="line"/>
      <point x="357" y="0" type="line"/>
      <point x="35" y="0" type="line"/>
    </contour>
  </outline>
</glyph>
<glyph name="three" format="1">
  <advance width="396"/>
  <unicode hex="0033"/>
  <outline>
    <contour>
      <point x="42" y="83" type="line"/>
      <point x="73" y="47"/>
      <point x="119" y="13"/>
      <point x="195" y="13" type="curve" smooth="yes"/>
      <point x="270" y="13"/>
      <point x="325" y="64"/>
      <point x="325" y="139" type="curve" smooth="yes"/>
      <point x="325" y="216"/>
      <point x="269" y="269"/>
      <point x="132" y="269" type="curve"/>
      <point x="132" y="295" type="line"/>
      <point x="260" y="295"/>
      <point x="306" y="350"/>
      <point x="306" y="417" type="curve" smooth="yes"/>
      <point x="306" y="481"/>
      <point x="261" y="523"/>
      <point x="191" y="523" type="curve" smooth="yes"/>
      <point x="140" y="523"/>
      <point x="96" y="496"/>
      <point x="65" y="463" type="curve"/>
      <point x="48" y="481" type="line"/>
      <point x="84" y="516"/>
      <point x="128" y="547"/>
      <point x="191" y="547" type="curve" smooth="yes"/>
      <point x="269" y="547"/>
      <point x="331" y="498"/>
      <point x="331" y="418" type="curve" smooth="yes"/>
      <point x="331" y="346"/>
      <point x="287" y="306"/>
      <point x="228" y="285" type="curve"/>
      <point x="228" y="281" type="line"/>
      <point x="295" y="269"/>
      <point x="352" y="218"/>
      <point x="352" y="140" type="curve" smooth="yes"/>
      <point x="352" y="48"/>
      <point x="283" y="-10"/>
      <point x="193" y="-10" type="curve" smooth="yes"/>
      <point x="107" y="-10"/>
      <point x="59" y="28"/>
      <point x="25" y="65" type="curve"/>
    </contour>
  </outline>
</glyph>
<glyph name="four" format="1">
  <advance width="396"/>
  <unicode hex="0034"/>
  <outline>
    <contour>
      <point x="262" y="188" type="line"/>
      <point x="262" y="399" type="line" smooth="yes"/>
      <point x="262" y="422"/>
      <point x="263" y="465"/>
      <point x="265" y="488" type="curve"/>
      <point x="262" y="488" type="line"/>
      <point x="248" y="465"/>
      <point x="233" y="448"/>
      <point x="218" y="423" type="curve"/>
      <point x="48" y="188" type="line"/>
    </contour>
    <contour>
      <point x="368" y="164" type="line"/>
      <point x="287" y="164" type="line"/>
      <point x="287" y="0" type="line"/>
      <point x="262" y="0" type="line"/>
      <point x="262" y="164" type="line"/>
      <point x="13" y="164" type="line"/>
      <point x="13" y="177" type="line"/>
      <point x="269" y="536" type="line"/>
      <point x="287" y="536" type="line"/>
      <point x="287" y="188" type="line"/>
      <point x="368" y="188" type="line"/>
    </contour>
  </outline>
</glyph>
<glyph name="five" format="1">
  <advance width="396"/>
  <unicode hex="0035"/>
  <outline>
    <contour>
      <point x="38" y="80" type="line"/>
      <point x="71" y="46"/>
      <point x="112" y="13"/>
      <point x="189" y="13" type="curve" smooth="yes"/>
      <point x="264" y="13"/>
      <point x="328" y="74"/>
      <point x="328" y="166" type="curve" smooth="yes"/>
      <point x="328" y="256"/>
      <point x="274" y="312"/>
      <point x="191" y="312" type="curve" smooth="yes"/>
      <point x="148" y="312"/>
      <point x="121" y="297"/>
      <point x="88" y="274" type="curve"/>
      <point x="67" y="288" type="line"/>
      <point x="87" y="536" type="line"/>
      <point x="326" y="536" type="line"/>
      <point x="326" y="513" type="line"/>
      <point x="111" y="513" type="line"/>
      <point x="92" y="307" type="line"/>
      <point x="121" y="324"/>
      <point x="150" y="337"/>
      <point x="193" y="337" type="curve" smooth="yes"/>
      <point x="283" y="337"/>
      <point x="356" y="285"/>
      <point x="356" y="168" type="curve" smooth="yes"/>
      <point x="356" y="54"/>
      <point x="271" y="-10"/>
      <point x="188" y="-10" type="curve" smooth="yes"/>
      <point x="103" y="-10"/>
      <point x="55" y="28"/>
      <point x="22" y="63" type="curve"/>
    </contour>
  </outline>
</glyph>
<glyph name="six" format="1">
  <advance width="396"/>
  <unicode hex="0036"/>
  <outline>
    <contour>
      <point x="218" y="13" type="curve" smooth="yes"/>
      <point x="282" y="13"/>
      <point x="331" y="78"/>
      <point x="331" y="156" type="curve" smooth="yes"/>
      <point x="331" y="236"/>
      <point x="297" y="298"/>
      <point x="210" y="298" type="curve" smooth="yes"/>
      <point x="171" y="298"/>
      <point x="121" y="274"/>
      <point x="73" y="214" type="curve"/>
      <point x="79" y="97"/>
      <point x="122" y="13"/>
    </contour>
    <contour>
      <point x="330" y="477" type="line"/>
      <point x="306" y="508"/>
      <point x="273" y="523"/>
      <point x="238" y="523" type="curve" smooth="yes"/>
      <point x="151" y="523"/>
      <point x="72" y="452"/>
      <point x="72" y="246" type="curve"/>
      <point x="110" y="292"/>
      <point x="158" y="322"/>
      <point x="212" y="322" type="curve" smooth="yes"/>
      <point x="306" y="322"/>
      <point x="359" y="264"/>
      <point x="359" y="156" type="curve" smooth="yes"/>
      <point x="359" y="61"/>
      <point x="293" y="-10"/>
      <point x="216" y="-10" type="curve" smooth="yes"/>
      <point x="108" y="-10"/>
      <point x="46" y="81"/>
      <point x="46" y="241" type="curve" smooth="yes"/>
      <point x="46" y="469"/>
      <point x="137" y="547"/>
      <point x="239" y="547" type="curve" smooth="yes"/>
      <point x="287" y="547"/>
      <point x="320" y="526"/>
      <point x="347" y="496" type="curve"/>
    </contour>
  </outline>
</glyph>
<glyph name="seven" format="1">
  <advance width="396"/>
  <unicode hex="0037"/>
  <outline>
    <contour>
      <point x="161" y="0" type="line"/>
      <point x="171" y="221"/>
      <point x="215" y="362"/>
      <point x="325" y="513" type="curve"/>
      <point x="37" y="513" type="line"/>
      <point x="37" y="536" type="line"/>
      <point x="361" y="536" type="line"/>
      <point x="361" y="521" type="line"/>
      <point x="230" y="348"/>
      <point x="198" y="210"/>
      <point x="189" y="0" type="curve"/>
    </contour>
  </outline>
</glyph>
<glyph name="eight" format="1">
  <advance width="396"/>
  <unicode hex="0038"/>
  <outline>
    <contour>
      <point x="61" y="138" type="curve" smooth="yes"/>
      <point x="61" y="68"/>
      <point x="120" y="13"/>
      <point x="201" y="13" type="curve" smooth="yes"/>
      <point x="281" y="13"/>
      <point x="333" y="65"/>
      <point x="333" y="129" type="curve" smooth="yes"/>
      <point x="333" y="216"/>
      <point x="248" y="247"/>
      <point x="163" y="280" type="curve"/>
      <point x="103" y="247"/>
      <point x="61" y="200"/>
    </contour>
    <contour>
      <point x="241" y="276" type="curve"/>
      <point x="290" y="316"/>
      <point x="317" y="358"/>
      <point x="317" y="407" type="curve" smooth="yes"/>
      <point x="317" y="470"/>
      <point x="274" y="523"/>
      <point x="201" y="523" type="curve" smooth="yes"/>
      <point x="138" y="523"/>
      <point x="92" y="477"/>
      <point x="92" y="417" type="curve" smooth="yes"/>
      <point x="92" y="336"/>
      <point x="170" y="306"/>
    </contour>
    <contour>
      <point x="33" y="138" type="curve" smooth="yes"/>
      <point x="33" y="212"/>
      <point x="91" y="265"/>
      <point x="142" y="291" type="curve"/>
      <point x="142" y="295" type="line"/>
      <point x="104" y="320"/>
      <point x="65" y="361"/>
      <point x="65" y="417" type="curve" smooth="yes"/>
      <point x="65" y="493"/>
      <point x="124" y="547"/>
      <point x="201" y="547" type="curve" smooth="yes"/>
      <point x="291" y="547"/>
      <point x="344" y="486"/>
      <point x="344" y="407" type="curve" smooth="yes"/>
      <point x="344" y="347"/>
      <point x="297" y="293"/>
      <point x="267" y="269" type="curve"/>
      <point x="267" y="265" type="line"/>
      <point x="311" y="236"/>
      <point x="361" y="201"/>
      <point x="361" y="129" type="curve" smooth="yes"/>
      <point x="361" y="52"/>
      <point x="297" y="-10"/>
      <point x="201" y="-10" type="curve" smooth="yes"/>
      <point x="104" y="-10"/>
      <point x="33" y="54"/>
    </contour>
  </outline>
</glyph>
<glyph name="nine" format="1">
  <advance width="396"/>
  <unicode hex="0039"/>
  <outline>
    <contour>
      <point x="186" y="238" type="curve" smooth="yes"/>
      <point x="225" y="238"/>
      <point x="275" y="262"/>
      <point x="322" y="322" type="curve"/>
      <point x="316" y="439"/>
      <point x="271" y="523"/>
      <point x="177" y="523" type="curve" smooth="yes"/>
      <point x="113" y="523"/>
      <point x="64" y="458"/>
      <point x="64" y="381" type="curve" smooth="yes"/>
      <point x="64" y="300"/>
      <point x="99" y="238"/>
    </contour>
    <contour>
      <point x="65" y="59" type="line"/>
      <point x="89" y="28"/>
      <point x="121" y="13"/>
      <point x="158" y="13" type="curve" smooth="yes"/>
      <point x="245" y="13"/>
      <point x="323" y="84"/>
      <point x="323" y="290" type="curve"/>
      <point x="286" y="244"/>
      <point x="237" y="214"/>
      <point x="184" y="214" type="curve" smooth="yes"/>
      <point x="89" y="214"/>
      <point x="37" y="271"/>
      <point x="37" y="381" type="curve" smooth="yes"/>
      <point x="37" y="475"/>
      <point x="102" y="547"/>
      <point x="179" y="547" type="curve" smooth="yes"/>
      <point x="288" y="547"/>
      <point x="350" y="456"/>
      <point x="350" y="295" type="curve" smooth="yes"/>
      <point x="350" y="67"/>
      <point x="259" y="-10"/>
      <point x="156" y="-10" type="curve" smooth="yes"/>
      <point x="109" y="-10"/>
      <point x="74" y="10"/>
      <point x="48" y="40" type="curve"/>
    </contour>
  </outline>
</glyph>
<glyph name="less" format="1">
  <advance width="396"/>
  <unicode hex="003C"/>
  <outline>
    <contour>
      <point x="28" y="293" type="line"/>
      <point x="367" y="429" type="line"/>
      <point x="367" y="402" type="line"/>
      <point x="166" y="323" type="line"/>
      <point x="55" y="280" type="line"/>
      <point x="55" y="276" type="line"/>
      <point x="166" y="232" type="line"/>
      <point x="367" y="155" type="line"/>
      <point x="367" y="127" type="line"/>
      <point x="28" y="264" type="line"/>
    </contour>
  </outline>
</glyph>
<glyph name="question" format="1">
  <advance width="330"/>
  <unicode hex="003F"/>
  <outline>
    <contour>
      <point x="138" y="144" type="line"/>
      <point x="118" y="286"/>
      <point x="260" y="336"/>
      <point x="260" y="444" type="curve" smooth="yes"/>
      <point x="260" y="498"/>
      <point x="230" y="549"/>
      <point x="159" y="549" type="curve" smooth="yes"/>
      <point x="117" y="549"/>
      <point x="76" y="529"/>
      <point x="46" y="493" type="curve"/>
      <point x="29" y="508" type="line"/>
      <point x="63" y="544"/>
      <point x="104" y="571"/>
      <point x="161" y="571" type="curve" smooth="yes"/>
      <point x="241" y="571"/>
      <point x="287" y="514"/>
      <point x="287" y="446" type="curve" smooth="yes"/>
      <point x="287" y="330"/>
      <point x="144" y="275"/>
      <point x="161" y="144" type="curve"/>
    </contour>
    <contour>
      <point x="122" y="22" type="curve" smooth="yes"/>
      <point x="122" y="45"/>
      <point x="137" y="55"/>
      <point x="153" y="55" type="curve" smooth="yes"/>
      <point x="169" y="55"/>
      <point x="182" y="45"/>
      <point x="182" y="22" type="curve" smooth="yes"/>
      <point x="182" y="2"/>
      <point x="169" y="-10"/>
      <point x="153" y="-10" type="curve" smooth="yes"/>
      <point x="137" y="-10"/>
      <point x="122" y="2"/>
    </contour>
  </outline>
</glyph>
<glyph name="at" format="1">
  <advance width="672"/>
  <unicode hex="0040"/>
  <outline>
    <contour>
      <point x="44" y="170" type="curve" smooth="yes"/>
      <point x="44" y="385"/>
      <point x="198" y="526"/>
      <point x="370" y="526" type="curve" smooth="yes"/>
      <point x="529" y="526"/>
      <point x="628" y="422"/>
      <point x="628" y="265" type="curve" smooth="yes"/>
      <point x="628" y="123"/>
      <point x="547" y="48"/>
      <point x="479" y="48" type="curve" smooth="yes"/>
      <point x="436" y="48"/>
      <point x="404" y="69"/>
      <point x="400" y="113" type="curve"/>
      <point x="399" y="113" type="line"/>
      <point x="368" y="79"/>
      <point x="336" y="54"/>
      <point x="297" y="54" type="curve" smooth="yes"/>
      <point x="247" y="54"/>
      <point x="203" y="90"/>
      <point x="203" y="166" type="curve" smooth="yes"/>
      <point x="203" y="244"/>
      <point x="258" y="352"/>
      <point x="357" y="352" type="curve" smooth="yes"/>
      <point x="387" y="352"/>
      <point x="411" y="339"/>
      <point x="427" y="312" type="curve"/>
      <point x="429" y="312" type="line"/>
      <point x="436" y="345" type="line"/>
      <point x="457" y="345" type="line"/>
      <point x="429" y="191" type="line"/>
      <point x="409" y="112"/>
      <point x="426" y="72"/>
      <point x="481" y="72" type="curve" smooth="yes"/>
      <point x="534" y="72"/>
      <point x="604" y="139"/>
      <point x="604" y="264" type="curve" smooth="yes"/>
      <point x="604" y="411"/>
      <point x="512" y="503"/>
      <point x="368" y="503" type="curve" smooth="yes"/>
      <point x="214" y="503"/>
      <point x="69" y="372"/>
      <point x="69" y="171" type="curve" smooth="yes"/>
      <point x="69" y="9"/>
      <point x="170" y="-96"/>
      <point x="322" y="-96" type="curve" smooth="yes"/>
      <point x="379" y="-96"/>
      <point x="423" y="-80"/>
      <point x="465" y="-54" type="curve"/>
      <point x="475" y="-74" type="line"/>
      <point x="429" y="-104"/>
      <point x="377" y="-120"/>
      <point x="320" y="-120" type="curve" smooth="yes"/>
      <point x="159" y="-120"/>
      <point x="44" y="-12"/>
    </contour>
    <contour>
      <point x="228" y="168" type="curve" smooth="yes"/>
      <point x="228" y="101"/>
      <point x="259" y="77"/>
      <point x="298" y="77" type="curve" smooth="yes"/>
      <point x="327" y="77"/>
      <point x="360" y="96"/>
      <point x="394" y="136" type="curve"/>
      <point x="420" y="285" type="line"/>
      <point x="398" y="318"/>
      <point x="381" y="328"/>
      <point x="356" y="328" type="curve" smooth="yes"/>
      <point x="276" y="328"/>
      <point x="228" y="241"/>
    </contour>
  </outline>
</glyph>
<glyph name="A" format="1">
  <advance width="436"/>
  <unicode hex="0041"/>
  <outline>
    <contour>
      <point x="322" y="221" type="line"/>
      <point x="283" y="331" type="line" smooth="yes"/>
      <point x="260" y="399"/>
      <point x="239" y="456"/>
      <point x="220" y="524" type="curve"/>
      <point x="216" y="524" type="line"/>
      <point x="196" y="456"/>
      <point x="176" y="399"/>
      <point x="153" y="331" type="curve" smooth="yes"/>
      <point x="113" y="221" type="line"/>
    </contour>
    <contour>
      <point x="330" y="197" type="line"/>
      <point x="104" y="197" type="line"/>
      <point x="35" y="0" type="line"/>
      <point x="9" y="0" type="line"/>
      <point x="206" y="553" type="line"/>
      <point x="230" y="553" type="line"/>
      <point x="427" y="0" type="line"/>
      <point x="399" y="0" type="line"/>
    </contour>
    <contour>
      <point x="218" y="571" type="move" name="mark0"/>
    </contour>
    <contour>
      <point x="218" y="-19" type="move" name="mark0"/>
    </contour>
    <contour>
      <point x="381" y="0" type="move" name="mark0"/>
    </contour>
  </outline>
</glyph>
<glyph name="B" format="1">
  <advance width="481"/>
  <unicode hex="0042"/>
  <outline>
    <contour>
      <point x="83" y="553" type="line"/>
      <point x="228" y="553" type="line" smooth="yes"/>
      <point x="339" y="553"/>
      <point x="407" y="510"/>
      <point x="407" y="418" type="curve" smooth="yes"/>
      <point x="407" y="360"/>
      <point x="374" y="315"/>
      <point x="308" y="298" type="curve"/>
      <point x="308" y="295" type="line"/>
      <point x="391" y="282"/>
      <point x="442" y="238"/>
      <point x="442" y="161" type="curve" smooth="yes"/>
      <point x="442" y="54"/>
      <point x="364" y="0"/>
      <point x="238" y="0" type="curve" smooth="yes"/>
      <point x="83" y="0" type="line"/>
    </contour>
    <contour>
      <point x="212" y="307" type="line" smooth="yes"/>
      <point x="331" y="307"/>
      <point x="381" y="345"/>
      <point x="381" y="422" type="curve" smooth="yes"/>
      <point x="381" y="498"/>
      <point x="324" y="530"/>
      <point x="216" y="530" type="curve" smooth="yes"/>
      <point x="111" y="530" type="line"/>
      <point x="111" y="307" type="line"/>
    </contour>
    <contour>
      <point x="228" y="24" type="line" smooth="yes"/>
      <point x="344" y="24"/>
      <point x="416" y="65"/>
      <point x="416" y="159" type="curve" smooth="yes"/>
      <point x="416" y="243"/>
      <point x="347" y="283"/>
      <point x="228" y="283" type="curve" smooth="yes"/>
      <point x="111" y="283" type="line"/>
      <point x="111" y="24" type="line"/>
    </contour>
    <contour>
      <point x="231" y="571" type="move" name="mark0"/>
    </contour>
    <contour>
      <point x="245" y="-19" type="move" name="mark0"/>
    </contour>
  </outline>
</glyph>
<glyph name="C" format="1">
  <advance width="471"/>
  <unicode hex="0043"/>
  <outline>
    <contour>
      <point x="46" y="278" type="curve" smooth="yes"/>
      <point x="46" y="453"/>
      <point x="139" y="563"/>
      <point x="280" y="563" type="curve" smooth="yes"/>
      <point x="344" y="563"/>
      <point x="391" y="531"/>
      <point x="420" y="498" type="curve"/>
      <point x="404" y="479" type="line"/>
      <point x="373" y="514"/>
      <point x="332" y="538"/>
      <point x="280" y="538" type="curve" smooth="yes"/>
      <point x="152" y="538"/>
      <point x="75" y="437"/>
      <point x="75" y="278" type="curve" smooth="yes"/>
      <point x="75" y="121"/>
      <point x="153" y="15"/>
      <point x="276" y="15" type="curve" smooth="yes"/>
      <point x="336" y="15"/>
      <point x="378" y="38"/>
      <point x="420" y="85" type="curve"/>
      <point x="437" y="69" type="line"/>
      <point x="395" y="20"/>
      <point x="347" y="-10"/>
      <point x="274" y="-10" type="curve" smooth="yes"/>
      <point x="138" y="-10"/>
      <point x="46" y="104"/>
    </contour>
    <contour>
      <point x="267" y="571" type="move" name="mark0"/>
    </contour>
    <contour>
      <point x="283" y="0" type="move" name="mark0"/>
    </contour>
    <contour>
      <point x="283" y="-19" type="move" name="mark0"/>
    </contour>
  </outline>
</glyph>
<glyph name="D" format="1">
  <advance width="503"/>
  <unicode hex="0044"/>
  <outline>
    <contour>
      <point x="83" y="553" type="line"/>
      <point x="208" y="553" type="line" smooth="yes"/>
      <point x="379" y="553"/>
      <point x="456" y="442"/>
      <point x="456" y="278" type="curve" smooth="yes"/>
      <point x="456" y="114"/>
      <point x="379" y="0"/>
      <point x="208" y="0" type="curve" smooth="yes"/>
      <point x="83" y="0" type="line"/>
    </contour>
    <contour>
      <point x="205" y="24" type="line" smooth="yes"/>
      <point x="363" y="24"/>
      <point x="427" y="132"/>
      <point x="427" y="278" type="curve" smooth="yes"/>
      <point x="427" y="422"/>
      <point x="363" y="530"/>
      <point x="205" y="530" type="curve" smooth="yes"/>
      <point x="111" y="530" type="line"/>
      <point x="111" y="24" type="line"/>
    </contour>
    <contour>
      <point x="251" y="571" type="move" name="mark0"/>
    </contour>
    <contour>
      <point x="250" y="-19" type="move" name="mark0"/>
    </contour>
  </outline>
</glyph>
<glyph name="E" format="1">
  <advance width="427"/>
  <unicode hex="0045"/>
  <outline>
    <contour>
      <point x="83" y="553" type="line"/>
      <point x="381" y="553" type="line"/>
      <point x="381" y="530" type="line"/>
      <point x="111" y="530" type="line"/>
      <point x="111" y="307" type="line"/>
      <point x="337" y="307" type="line"/>
      <point x="337" y="283" type="line"/>
      <point x="111" y="283" type="line"/>
      <point x="111" y="24" type="line"/>
      <point x="389" y="24" type="line"/>
      <point x="389" y="0" type="line"/>
      <point x="83" y="0" type="line"/>
    </contour>
    <contour>
      <point x="236" y="571" type="move" name="mark0"/>
    </contour>
    <contour>
      <point x="251" y="-19" type="move" name="mark0"/>
    </contour>
    <contour>
      <point x="322" y="0" type="move" name="mark0"/>
    </contour>
  </outline>
</glyph>
<glyph name="F" format="1">
  <advance width="394"/>
  <unicode hex="0046"/>
  <outline>
    <contour>
      <point x="83" y="553" type="line"/>
      <point x="379" y="553" type="line"/>
      <point x="379" y="530" type="line"/>
      <point x="111" y="530" type="line"/>
      <point x="111" y="297" type="line"/>
      <point x="337" y="297" type="line"/>
      <point x="337" y="272" type="line"/>
      <point x="111" y="272" type="line"/>
      <point x="111" y="0" type="line"/>
      <point x="83" y="0" type="line"/>
    </contour>
    <contour>
      <point x="238" y="571" type="move" name="mark0"/>
    </contour>
    <contour>
      <point x="97" y="-19" type="move" name="mark0"/>
    </contour>
  </outline>
</glyph>
<glyph name="G" format="1">
  <advance width="503"/>
  <unicode hex="0047"/>
  <outline>
    <contour>
      <point x="46" y="278" type="curve" smooth="yes"/>
      <point x="46" y="453"/>
      <point x="142" y="563"/>
      <point x="288" y="563" type="curve" smooth="yes"/>
      <point x="363" y="563"/>
      <point x="406" y="527"/>
      <point x="436" y="498" type="curve"/>
      <point x="418" y="479" type="line"/>
      <point x="389" y="512"/>
      <point x="351" y="538"/>
      <point x="288" y="538" type="curve" smooth="yes"/>
      <point x="157" y="538"/>
      <point x="75" y="437"/>
      <point x="75" y="278" type="curve" smooth="yes"/>
      <point x="75" y="121"/>
      <point x="153" y="15"/>
      <point x="281" y="15" type="curve" smooth="yes"/>
      <point x="335" y="15"/>
      <point x="384" y="30"/>
      <point x="415" y="61" type="curve"/>
      <point x="415" y="243" type="line"/>
      <point x="276" y="243" type="line"/>
      <point x="276" y="267" type="line"/>
      <point x="440" y="267" type="line"/>
      <point x="440" y="52" type="line"/>
      <point x="407" y="15"/>
      <point x="353" y="-10"/>
      <point x="280" y="-10" type="curve" smooth="yes"/>
      <point x="139" y="-10"/>
      <point x="46" y="104"/>
    </contour>
    <contour>
      <point x="287" y="571" type="move" name="mark0"/>
    </contour>
    <contour>
      <point x="281" y="-19" type="move" name="mark0"/>
    </contour>
  </outline>
</glyph>
<glyph name="H" format="1">
  <advance width="531"/>
  <unicode hex="0048"/>
  <outline>
    <contour>
      <point x="83" y="553" type="line"/>
      <point x="111" y="553" type="line"/>
      <point x="111" y="307" type="line"/>
      <point x="420" y="307" type="line"/>
      <point x="420" y="553" type="line"/>
      <point x="448" y="553" type="line"/>
      <point x="448" y="0" type="line"/>
      <point x="420" y="0" type="line"/>
      <point x="420" y="283" type="line"/>
      <point x="111" y="283" type="line"/>
      <point x="111" y="0" type="line"/>
      <point x="83" y="0" type="line"/>
    </contour>
    <contour>
      <point x="265" y="571" type="move" name="mark0"/>
    </contour>
    <contour>
      <point x="265" y="-19" type="move" name="mark0"/>
    </contour>
  </outline>
</glyph>
<glyph name="I" format="1">
  <advance width="195"/>
  <unicode hex="0049"/>
  <outline>
    <contour>
      <point x="83" y="553" type="line"/>
      <point x="111" y="553" type="line"/>
      <point x="111" y="0" type="line"/>
      <point x="83" y="0" type="line"/>
    </contour>
    <contour>
      <point x="97" y="571" type="move" name="mark0"/>
    </contour>
    <contour>
      <point x="97" y="-19" type="move" name="mark0"/>
    </contour>
    <contour>
      <point x="75" y="0" type="move" name="mark0"/>
    </contour>
  </outline>
</glyph>
<glyph name="J" format="1">
  <advance width="381"/>
  <unicode hex="004A"/>
  <outline>
    <contour>
      <point x="59" y="82" type="line"/>
      <point x="87" y="32"/>
      <point x="121" y="15"/>
      <point x="170" y="15" type="curve" smooth="yes"/>
      <point x="239" y="15"/>
      <point x="272" y="56"/>
      <point x="272" y="149" type="curve" smooth="yes"/>
      <point x="272" y="553" type="line"/>
      <point x="300" y="553" type="line"/>
      <point x="300" y="146" type="line" smooth="yes"/>
      <point x="300" y="59"/>
      <point x="265" y="-10"/>
      <point x="168" y="-10" type="curve" smooth="yes"/>
      <point x="108" y="-10"/>
      <point x="64" y="19"/>
      <point x="37" y="69" type="curve"/>
    </contour>
    <contour>
      <point x="283" y="571" type="move" name="mark0"/>
    </contour>
    <contour>
      <point x="201" y="-19" type="move" name="mark0"/>
    </contour>
  </outline>
</glyph>
<glyph name="K" format="1">
  <advance width="461"/>
  <unicode hex="004B"/>
  <outline>
    <contour>
      <point x="83" y="553" type="line"/>
      <point x="111" y="553" type="line"/>
      <point x="111" y="234" type="line"/>
      <point x="113" y="234" type="line"/>
      <point x="394" y="553" type="line"/>
      <point x="427" y="553" type="line"/>
      <point x="250" y="350" type="line"/>
      <point x="451" y="0" type="line"/>
      <point x="418" y="0" type="line"/>
      <point x="230" y="330" type="line"/>
      <point x="111" y="196" type="line"/>
      <point x="111" y="0" type="line"/>
      <point x="83" y="0" type="line"/>
    </contour>
    <contour>
      <point x="255" y="571" type="move" name="mark0"/>
    </contour>
    <contour>
      <point x="271" y="-19" type="move" name="mark0"/>
    </contour>
  </outline>
</glyph>
<glyph name="M" format="1">
  <advance width="585"/>
  <unicode hex="004D"/>
  <outline>
    <contour>
      <point x="83" y="553" type="line"/>
      <point x="127" y="553" type="line"/>
      <point x="247" y="218" type="line"/>
      <point x="291" y="92" type="line"/>
      <point x="295" y="92" type="line"/>
      <point x="339" y="218" type="line"/>
      <point x="457" y="553" type="line"/>
      <point x="501" y="553" type="line"/>
      <point x="501" y="0" type="line"/>
      <point x="474" y="0" type="line"/>
      <point x="474" y="385" type="line" smooth="yes"/>
      <point x="474" y="429"/>
      <point x="474" y="483"/>
      <point x="477" y="530" type="curve"/>
      <point x="474" y="530" type="line"/>
      <point x="431" y="409" type="line"/>
      <point x="308" y="63" type="line"/>
      <point x="276" y="63" type="line"/>
      <point x="153" y="409" type="line"/>
      <point x="109" y="530" type="line"/>
      <point x="105" y="530" type="line"/>
      <point x="108" y="483"/>
      <point x="109" y="429"/>
      <point x="109" y="385" type="curve" smooth="yes"/>
      <point x="109" y="0" type="line"/>
      <point x="83" y="0" type="line"/>
    </contour>
    <contour>
      <point x="291" y="571" type="move" name="mark0"/>
    </contour>
    <contour>
      <point x="293" y="-19" type="move" name="mark0"/>
    </contour>
  </outline>
</glyph>
<glyph name="N" format="1">
  <advance width="530"/>
  <unicode hex="004E"/>
  <outline>
    <contour>
      <point x="83" y="553" type="line"/>
      <point x="113" y="553" type="line"/>
      <point x="357" y="147" type="line"/>
      <point x="420" y="38" type="line"/>
      <point x="423" y="38" type="line"/>
      <point x="421" y="92"/>
      <point x="420" y="141"/>
      <point x="420" y="195" type="curve" smooth="yes"/>
      <point x="420" y="553" type="line"/>
      <point x="446" y="553" type="line"/>
      <point x="446" y="0" type="line"/>
      <point x="417" y="0" type="line"/>
      <point x="172" y="406" type="line"/>
      <point x="109" y="514" type="line"/>
      <point x="105" y="514" type="line"/>
      <point x="108" y="462"/>
      <point x="109" y="416"/>
      <point x="109" y="364" type="curve" smooth="yes"/>
      <point x="109" y="0" type="line"/>
      <point x="83" y="0" type="line"/>
    </contour>
    <contour>
      <point x="269" y="571" type="move" name="mark0"/>
    </contour>
    <contour>
      <point x="264" y="-19" type="move" name="mark0"/>
    </contour>
  </outline>
</glyph>
<glyph name="O" format="1">
  <advance width="543"/>
  <unicode hex="004F"/>
  <outline>
    <contour>
      <point x="271" y="-10" type="curve" smooth="yes"/>
      <point x="140" y="-10"/>
      <point x="46" y="104"/>
      <point x="46" y="278" type="curve" smooth="yes"/>
      <point x="46" y="453"/>
      <point x="140" y="563"/>
      <point x="271" y="563" type="curve" smooth="yes"/>
      <point x="402" y="563"/>
      <point x="496" y="453"/>
      <point x="496" y="278" type="curve" smooth="yes"/>
      <point x="496" y="104"/>
      <point x="402" y="-10"/>
    </contour>
    <contour>
      <point x="271" y="15" type="curve" smooth="yes"/>
      <point x="389" y="15"/>
      <point x="467" y="121"/>
      <point x="467" y="278" type="curve" smooth="yes"/>
      <point x="467" y="437"/>
      <point x="389" y="538"/>
      <point x="271" y="538" type="curve" smooth="yes"/>
      <point x="155" y="538"/>
      <point x="75" y="437"/>
      <point x="75" y="278" type="curve" smooth="yes"/>
      <point x="75" y="121"/>
      <point x="155" y="15"/>
    </contour>
    <contour>
      <point x="271" y="571" type="move" name="mark0"/>
    </contour>
    <contour>
      <point x="271" y="-19" type="move" name="mark0"/>
    </contour>
    <contour>
      <point x="381" y="545" type="move" name="mark0"/>
    </contour>
    <contour>
      <point x="271" y="0" type="move" name="mark0"/>
    </contour>
  </outline>
</glyph>
<glyph name="P" format="1">
  <advance width="463"/>
  <unicode hex="0050"/>
  <outline>
    <contour>
      <point x="83" y="553" type="line"/>
      <point x="228" y="553" type="line" smooth="yes"/>
      <point x="352" y="553"/>
      <point x="422" y="513"/>
      <point x="422" y="402" type="curve" smooth="yes"/>
      <point x="422" y="296"/>
      <point x="353" y="245"/>
      <point x="228" y="245" type="curve" smooth="yes"/>
      <point x="111" y="245" type="line"/>
      <point x="111" y="0" type="line"/>
      <point x="83" y="0" type="line"/>
    </contour>
    <contour>
      <point x="218" y="269" type="line" smooth="yes"/>
      <point x="338" y="269"/>
      <point x="394" y="306"/>
      <point x="394" y="402" type="curve" smooth="yes"/>
      <point x="394" y="499"/>
      <point x="336" y="530"/>
      <point x="218" y="530" type="curve" smooth="yes"/>
      <point x="111" y="530" type="line"/>
      <point x="111" y="269" type="line"/>
    </contour>
    <contour>
      <point x="245" y="571" type="move" name="mark0"/>
    </contour>
    <contour>
      <point x="99" y="-19" type="move" name="mark0"/>
    </contour>
  </outline>
</glyph>
<glyph name="Q" format="1">
  <advance width="543"/>
  <unicode hex="0051"/>
  <outline>
    <contour>
      <point x="75" y="278" type="curve" smooth="yes"/>
      <point x="75" y="120"/>
      <point x="155" y="13"/>
      <point x="271" y="13" type="curve" smooth="yes"/>
      <point x="389" y="13"/>
      <point x="467" y="120"/>
      <point x="467" y="278" type="curve" smooth="yes"/>
      <point x="467" y="437"/>
      <point x="389" y="538"/>
      <point x="271" y="538" type="curve" smooth="yes"/>
      <point x="155" y="538"/>
      <point x="75" y="437"/>
    </contour>
    <contour>
      <point x="494" y="-120" type="line"/>
      <point x="481" y="-122"/>
      <point x="456" y="-127"/>
      <point x="431" y="-127" type="curve" smooth="yes"/>
      <point x="340" y="-127"/>
      <point x="280" y="-77"/>
      <point x="255" y="-10" type="curve"/>
      <point x="131" y="0"/>
      <point x="46" y="112"/>
      <point x="46" y="278" type="curve" smooth="yes"/>
      <point x="46" y="453"/>
      <point x="140" y="563"/>
      <point x="271" y="563" type="curve" smooth="yes"/>
      <point x="402" y="563"/>
      <point x="496" y="453"/>
      <point x="496" y="278" type="curve" smooth="yes"/>
      <point x="496" y="111"/>
      <point x="409" y="-3"/>
      <point x="286" y="-10" type="curve"/>
      <point x="310" y="-67"/>
      <point x="362" y="-101"/>
      <point x="432" y="-101" type="curve" smooth="yes"/>
      <point x="458" y="-101"/>
      <point x="474" y="-97"/>
      <point x="488" y="-94" type="curve"/>
    </contour>
    <contour>
      <point x="271" y="571" type="move" name="mark0"/>
    </contour>
  </outline>
</glyph>
<glyph name="R" format="1">
  <advance width="463"/>
  <unicode hex="0052"/>
  <outline>
    <contour>
      <point x="226" y="285" type="line" smooth="yes"/>
      <point x="329" y="285"/>
      <point x="385" y="324"/>
      <point x="385" y="411" type="curve" smooth="yes"/>
      <point x="385" y="498"/>
      <point x="329" y="530"/>
      <point x="226" y="530" type="curve" smooth="yes"/>
      <point x="111" y="530" type="line"/>
      <point x="111" y="285" type="line"/>
    </contour>
    <contour>
      <point x="390" y="0" type="line"/>
      <point x="234" y="262" type="line"/>
      <point x="111" y="262" type="line"/>
      <point x="111" y="0" type="line"/>
      <point x="83" y="0" type="line"/>
      <point x="83" y="553" type="line"/>
      <point x="236" y="553" type="line" smooth="yes"/>
      <point x="345" y="553"/>
      <point x="415" y="513"/>
      <point x="415" y="411" type="curve" smooth="yes"/>
      <point x="415" y="322"/>
      <point x="358" y="271"/>
      <point x="265" y="264" type="curve"/>
      <point x="422" y="0" type="line"/>
    </contour>
    <contour>
      <point x="236" y="571" type="move" name="mark0"/>
    </contour>
    <contour>
      <point x="248" y="-19" type="move" name="mark0"/>
    </contour>
  </outline>
</glyph>
<glyph name="S" format="1">
  <advance width="432"/>
  <unicode hex="0053"/>
  <outline>
    <contour>
      <point x="59" y="92" type="line"/>
      <point x="99" y="46"/>
      <point x="158" y="15"/>
      <point x="224" y="15" type="curve" smooth="yes"/>
      <point x="314" y="15"/>
      <point x="370" y="64"/>
      <point x="370" y="134" type="curve" smooth="yes"/>
      <point x="370" y="207"/>
      <point x="323" y="232"/>
      <point x="269" y="256" type="curve" smooth="yes"/>
      <point x="182" y="295" type="line"/>
      <point x="136" y="315"/>
      <point x="71" y="348"/>
      <point x="71" y="431" type="curve" smooth="yes"/>
      <point x="71" y="509"/>
      <point x="137" y="563"/>
      <point x="226" y="563" type="curve" smooth="yes"/>
      <point x="293" y="563"/>
      <point x="344" y="531"/>
      <point x="377" y="498" type="curve"/>
      <point x="361" y="479" type="line"/>
      <point x="327" y="514"/>
      <point x="283" y="538"/>
      <point x="226" y="538" type="curve" smooth="yes"/>
      <point x="149" y="538"/>
      <point x="97" y="496"/>
      <point x="97" y="432" type="curve" smooth="yes"/>
      <point x="97" y="364"/>
      <point x="155" y="338"/>
      <point x="195" y="320" type="curve" smooth="yes"/>
      <point x="280" y="281" type="line" smooth="yes"/>
      <point x="341" y="255"/>
      <point x="398" y="221"/>
      <point x="398" y="136" type="curve" smooth="yes"/>
      <point x="398" y="52"/>
      <point x="327" y="-10"/>
      <point x="224" y="-10" type="curve" smooth="yes"/>
      <point x="141" y="-10"/>
      <point x="83" y="24"/>
      <point x="40" y="73" type="curve"/>
    </contour>
    <contour>
      <point x="224" y="571" type="move" name="mark0"/>
    </contour>
    <contour>
      <point x="224" y="0" type="move" name="mark0"/>
    </contour>
    <contour>
      <point x="224" y="-19" type="move" name="mark0"/>
    </contour>
  </outline>
</glyph>
<glyph name="U" format="1">
  <advance width="528"/>
  <unicode hex="0055"/>
  <outline>
    <contour>
      <point x="82" y="553" type="line"/>
      <point x="109" y="553" type="line"/>
      <point x="109" y="214" type="line" smooth="yes"/>
      <point x="109" y="62"/>
      <point x="181" y="15"/>
      <point x="264" y="15" type="curve" smooth="yes"/>
      <point x="346" y="15"/>
      <point x="420" y="62"/>
      <point x="420" y="214" type="curve" smooth="yes"/>
      <point x="420" y="553" type="line"/>
      <point x="446" y="553" type="line"/>
      <point x="446" y="206" type="line" smooth="yes"/>
      <point x="446" y="35"/>
      <point x="353" y="-10"/>
      <point x="264" y="-10" type="curve" smooth="yes"/>
      <point x="174" y="-10"/>
      <point x="82" y="35"/>
      <point x="82" y="206" type="curve" smooth="yes"/>
    </contour>
    <contour>
      <point x="264" y="571" type="move" name="mark0"/>
    </contour>
    <contour>
      <point x="264" y="-19" type="move" name="mark0"/>
    </contour>
    <contour>
      <point x="427" y="562" type="move" name="mark0"/>
    </contour>
    <contour>
      <point x="264" y="0" type="move" name="mark0"/>
    </contour>
  </outline>
</glyph>
<glyph name="V" format="1">
  <advance width="404"/>
  <unicode hex="0056"/>
  <outline>
    <contour>
      <point x="5" y="553" type="line"/>
      <point x="33" y="553" type="line"/>
      <point x="140" y="221" type="line" smooth="yes"/>
      <point x="163" y="153"/>
      <point x="176" y="102"/>
      <point x="201" y="34" type="curve"/>
      <point x="205" y="34" type="line"/>
      <point x="227" y="102"/>
      <point x="243" y="153"/>
      <point x="265" y="221" type="curve" smooth="yes"/>
      <point x="372" y="553" type="line"/>
      <point x="399" y="553" type="line"/>
      <point x="216" y="0" type="line"/>
      <point x="189" y="0" type="line"/>
    </contour>
    <contour>
      <point x="201" y="571" type="move" name="mark0"/>
    </contour>
    <contour>
      <point x="205" y="-19" type="move" name="mark0"/>
    </contour>
  </outline>
</glyph>
<glyph name="W" format="1">
  <advance width="641"/>
  <unicode hex="0057"/>
  <outline>
    <contour>
      <point x="25" y="553" type="line"/>
      <point x="54" y="553" type="line"/>
      <point x="127" y="218" type="line"/>
      <point x="168" y="37" type="line"/>
      <point x="171" y="37" type="line"/>
      <point x="184" y="97"/>
      <point x="198" y="158"/>
      <point x="214" y="218" type="curve" smooth="yes"/>
      <point x="306" y="553" type="line"/>
      <point x="335" y="553" type="line"/>
      <point x="425" y="218" type="line"/>
      <point x="471" y="37" type="line"/>
      <point x="474" y="37" type="line"/>
      <point x="488" y="97"/>
      <point x="499" y="158"/>
      <point x="513" y="218" type="curve" smooth="yes"/>
      <point x="586" y="553" type="line"/>
      <point x="613" y="553" type="line"/>
      <point x="486" y="0" type="line"/>
      <point x="459" y="0" type="line"/>
      <point x="352" y="398" type="line"/>
      <point x="342" y="440"/>
      <point x="331" y="477"/>
      <point x="322" y="521" type="curve"/>
      <point x="318" y="521" type="line"/>
      <point x="308" y="477"/>
      <point x="297" y="440"/>
      <point x="287" y="398" type="curve"/>
      <point x="180" y="0" type="line"/>
      <point x="155" y="0" type="line"/>
    </contour>
    <contour>
      <point x="320" y="571" type="move" name="mark0"/>
    </contour>
    <contour>
      <point x="323" y="-19" type="move" name="mark0"/>
    </contour>
  </outline>
</glyph>
<glyph name="X" format="1">
  <advance width="394"/>
  <unicode hex="0058"/>
  <outline>
    <contour>
      <point x="182" y="287" type="line"/>
      <point x="27" y="553" type="line"/>
      <point x="55" y="553" type="line"/>
      <point x="153" y="381" type="line"/>
      <point x="169" y="356"/>
      <point x="178" y="339"/>
      <point x="197" y="308" type="curve"/>
      <point x="201" y="308" type="line"/>
      <point x="218" y="339"/>
      <point x="227" y="356"/>
      <point x="243" y="381" type="curve"/>
      <point x="340" y="553" type="line"/>
      <point x="367" y="553" type="line"/>
      <point x="212" y="285" type="line"/>
      <point x="379" y="0" type="line"/>
      <point x="350" y="0" type="line"/>
      <point x="248" y="177" type="line"/>
      <point x="196" y="265" type="line"/>
      <point x="193" y="265" type="line"/>
      <point x="173" y="231"/>
      <point x="160" y="205"/>
      <point x="144" y="177" type="curve" smooth="yes"/>
      <point x="42" y="0" type="line"/>
      <point x="15" y="0" type="line"/>
    </contour>
    <contour>
      <point x="197" y="571" type="move" name="mark0"/>
    </contour>
    <contour>
      <point x="196" y="-19" type="move" name="mark0"/>
    </contour>
  </outline>
</glyph>
<glyph name="Y" format="1">
  <advance width="365"/>
  <unicode hex="0059"/>
  <outline>
    <contour>
      <point x="170" y="228" type="line"/>
      <point x="4" y="553" type="line"/>
      <point x="31" y="553" type="line"/>
      <point x="121" y="373" type="line" smooth="yes"/>
      <point x="140" y="333"/>
      <point x="158" y="295"/>
      <point x="180" y="255" type="curve"/>
      <point x="184" y="255" type="line"/>
      <point x="207" y="295"/>
      <point x="227" y="333"/>
      <point x="247" y="373" type="curve" smooth="yes"/>
      <point x="335" y="553" type="line"/>
      <point x="363" y="553" type="line"/>
      <point x="196" y="228" type="line"/>
      <point x="196" y="0" type="line"/>
      <point x="170" y="0" type="line"/>
    </contour>
    <contour>
      <point x="182" y="571" type="move" name="mark0"/>
    </contour>
    <contour>
      <point x="184" y="-19" type="move" name="mark0"/>
    </contour>
  </outline>
</glyph>
<glyph name="Z" format="1">
  <advance width="451"/>
  <unicode hex="005A"/>
  <outline>
    <contour>
      <point x="44" y="15" type="line"/>
      <point x="372" y="530" type="line"/>
      <point x="72" y="530" type="line"/>
      <point x="72" y="553" type="line"/>
      <point x="406" y="553" type="line"/>
      <point x="406" y="538" type="line"/>
      <point x="77" y="24" type="line"/>
      <point x="409" y="24" type="line"/>
      <point x="409" y="0" type="line"/>
      <point x="44" y="0" type="line"/>
    </contour>
    <contour>
      <point x="232" y="571" type="move" name="mark0"/>
    </contour>
    <contour>
      <point x="236" y="-19" type="move" name="mark0"/>
    </contour>
  </outline>
</glyph>
<glyph name="bracketleft" format="1">
  <advance width="226"/>
  <unicode hex="005B"/>
  <outline>
    <contour>
      <point x="83" y="593" type="line"/>
      <point x="212" y="593" type="line"/>
      <point x="212" y="574" type="line"/>
      <point x="104" y="574" type="line"/>
      <point x="104" y="-109" type="line"/>
      <point x="212" y="-109" type="line"/>
      <point x="212" y="-127" type="line"/>
      <point x="83" y="-127" type="line"/>
    </contour>
  </outline>
</glyph>
<glyph name="backslash" format="1">
  <advance width="302"/>
  <unicode hex="005C"/>
  <outline>
    <contour>
      <point x="2" y="595" type="line"/>
      <point x="27" y="595" type="line"/>
      <point x="295" y="-134" type="line"/>
      <point x="269" y="-134" type="line"/>
    </contour>
  </outline>
</glyph>
<glyph name="asciicircum" format="1">
  <advance width="396"/>
  <unicode hex="005E"/>
  <outline>
    <contour>
      <point x="182" y="562" type="line"/>
      <point x="214" y="562" type="line"/>
      <point x="339" y="245" type="line"/>
      <point x="312" y="245" type="line"/>
      <point x="243" y="423" type="line"/>
      <point x="199" y="534" type="line"/>
      <point x="196" y="534" type="line"/>
      <point x="153" y="423" type="line"/>
      <point x="83" y="245" type="line"/>
      <point x="57" y="245" type="line"/>
    </contour>
  </outline>
</glyph>
<glyph name="underscore" format="1">
  <advance width="418"/>
  <unicode hex="005F"/>
  <outline>
    <contour>
      <point x="409" y="-69" type="line"/>
      <point x="409" y="-96" type="line"/>
      <point x="10" y="-96" type="line"/>
      <point x="10" y="-69" type="line"/>
    </contour>
  </outline>
</glyph>
<glyph name="a" format="1">
  <advance width="415"/>
  <unicode hex="0061"/>
  <outline>
    <contour>
      <point x="57" y="98" type="curve" smooth="yes"/>
      <point x="57" y="188"/>
      <point x="139" y="230"/>
      <point x="320" y="250" type="curve"/>
      <point x="322" y="315"/>
      <point x="305" y="387"/>
      <point x="221" y="387" type="curve" smooth="yes"/>
      <point x="164" y="387"/>
      <point x="116" y="359"/>
      <point x="90" y="339" type="curve"/>
      <point x="77" y="359" type="line"/>
      <point x="102" y="377"/>
      <point x="157" y="411"/>
      <point x="222" y="411" type="curve" smooth="yes"/>
      <point x="317" y="411"/>
      <point x="345" y="340"/>
      <point x="345" y="260" type="curve" smooth="yes"/>
      <point x="345" y="0" type="line"/>
      <point x="323" y="0" type="line"/>
      <point x="320" y="54" type="line"/>
      <point x="318" y="54" type="line"/>
      <point x="275" y="21"/>
      <point x="226" y="-10"/>
      <point x="172" y="-10" type="curve" smooth="yes"/>
      <point x="110" y="-10"/>
      <point x="57" y="22"/>
    </contour>
    <contour>
      <point x="83" y="99" type="curve" smooth="yes"/>
      <point x="83" y="36"/>
      <point x="124" y="13"/>
      <point x="174" y="13" type="curve" smooth="yes"/>
      <point x="223" y="13"/>
      <point x="267" y="36"/>
      <point x="320" y="82" type="curve"/>
      <point x="320" y="228" type="line"/>
      <point x="143" y="208"/>
      <point x="83" y="169"/>
    </contour>
    <contour>
      <point x="218" y="418" type="move" name="mark0"/>
    </contour>
    <contour>
      <point x="203" y="-19" type="move" name="mark0"/>
    </contour>
    <contour>
      <point x="339" y="0" type="move" name="mark0"/>
    </contour>
  </outline>
</glyph>
<glyph name="b" format="1">
  <advance width="453"/>
  <unicode hex="0062"/>
  <outline>
    <contour>
      <point x="80" y="605" type="line"/>
      <point x="105" y="605" type="line"/>
      <point x="105" y="425" type="line"/>
      <point x="104" y="345" type="line"/>
      <point x="146" y="381"/>
      <point x="196" y="411"/>
      <point x="247" y="411" type="curve" smooth="yes"/>
      <point x="355" y="411"/>
      <point x="407" y="330"/>
      <point x="407" y="206" type="curve" smooth="yes"/>
      <point x="407" y="70"/>
      <point x="325" y="-10"/>
      <point x="230" y="-10" type="curve" smooth="yes"/>
      <point x="190" y="-10"/>
      <point x="146" y="8"/>
      <point x="107" y="37" type="curve"/>
      <point x="105" y="37" type="line"/>
      <point x="102" y="0" type="line"/>
      <point x="80" y="0" type="line"/>
    </contour>
    <contour>
      <point x="105" y="69" type="line"/>
      <point x="153" y="28"/>
      <point x="198" y="13"/>
      <point x="231" y="13" type="curve" smooth="yes"/>
      <point x="318" y="13"/>
      <point x="381" y="94"/>
      <point x="381" y="206" type="curve" smooth="yes"/>
      <point x="381" y="309"/>
      <point x="344" y="387"/>
      <point x="245" y="387" type="curve" smooth="yes"/>
      <point x="202" y="387"/>
      <point x="156" y="363"/>
      <point x="105" y="317" type="curve"/>
    </contour>
    <contour>
      <point x="96" y="612" type="move" name="mark0"/>
    </contour>
    <contour>
      <point x="231" y="-19" type="move" name="mark0"/>
    </contour>
  </outline>
</glyph>
<glyph name="c" format="1">
  <advance width="373"/>
  <unicode hex="0063"/>
  <outline>
    <contour>
      <point x="46" y="199" type="curve" smooth="yes"/>
      <point x="46" y="333"/>
      <point x="129" y="411"/>
      <point x="224" y="411" type="curve" smooth="yes"/>
      <point x="280" y="411"/>
      <point x="315" y="386"/>
      <point x="342" y="361" type="curve"/>
      <point x="325" y="342" type="line"/>
      <point x="298" y="367"/>
      <point x="268" y="387"/>
      <point x="224" y="387" type="curve" smooth="yes"/>
      <point x="139" y="387"/>
      <point x="72" y="310"/>
      <point x="72" y="199" type="curve" smooth="yes"/>
      <point x="72" y="88"/>
      <point x="133" y="13"/>
      <point x="224" y="13" type="curve" smooth="yes"/>
      <point x="270" y="13"/>
      <point x="307" y="35"/>
      <point x="337" y="63" type="curve"/>
      <point x="352" y="44" type="line"/>
      <point x="318" y="13"/>
      <point x="277" y="-10"/>
      <point x="224" y="-10" type="curve" smooth="yes"/>
      <point x="122" y="-10"/>
      <point x="46" y="68"/>
    </contour>
    <contour>
      <point x="224" y="418" type="move" name="mark0"/>
    </contour>
    <contour>
      <point x="222" y="0" type="move" name="mark0"/>
    </contour>
    <contour>
      <point x="222" y="-19" type="move" name="mark0"/>
    </contour>
  </outline>
</glyph>
<glyph name="d" format="1">
  <advance width="453"/>
  <unicode hex="0064"/>
  <outline>
    <contour>
      <point x="46" y="199" type="curve" smooth="yes"/>
      <point x="46" y="329"/>
      <point x="127" y="411"/>
      <point x="224" y="411" type="curve" smooth="yes"/>
      <point x="273" y="411"/>
      <point x="306" y="393"/>
      <point x="348" y="361" type="curve"/>
      <point x="347" y="436" type="line"/>
      <point x="347" y="605" type="line"/>
      <point x="372" y="605" type="line"/>
      <point x="372" y="0" type="line"/>
      <point x="350" y="0" type="line"/>
      <point x="347" y="54" type="line"/>
      <point x="345" y="54" type="line"/>
      <point x="312" y="21"/>
      <point x="268" y="-10"/>
      <point x="212" y="-10" type="curve" smooth="yes"/>
      <point x="110" y="-10"/>
      <point x="46" y="63"/>
    </contour>
    <contour>
      <point x="72" y="199" type="curve" smooth="yes"/>
      <point x="72" y="88"/>
      <point x="122" y="13"/>
      <point x="214" y="13" type="curve" smooth="yes"/>
      <point x="260" y="13"/>
      <point x="301" y="37"/>
      <point x="347" y="83" type="curve"/>
      <point x="347" y="331" type="line"/>
      <point x="301" y="372"/>
      <point x="266" y="387"/>
      <point x="222" y="387" type="curve" smooth="yes"/>
      <point x="138" y="387"/>
      <point x="72" y="304"/>
    </contour>
    <contour>
      <point x="318" y="612" type="move" name="mark0"/>
    </contour>
    <contour>
      <point x="245" y="-19" type="move" name="mark0"/>
    </contour>
  </outline>
</glyph>
<glyph name="e" format="1">
  <advance width="400"/>
  <unicode hex="0065"/>
  <outline>
    <contour>
      <point x="46" y="199" type="curve" smooth="yes"/>
      <point x="46" y="330"/>
      <point x="129" y="411"/>
      <point x="218" y="411" type="curve" smooth="yes"/>
      <point x="311" y="411"/>
      <point x="368" y="346"/>
      <point x="368" y="226" type="curve" smooth="yes"/>
      <point x="368" y="217"/>
      <point x="369" y="210"/>
      <point x="367" y="199" type="curve"/>
      <point x="72" y="199" type="line"/>
      <point x="72" y="92"/>
      <point x="134" y="13"/>
      <point x="230" y="13" type="curve" smooth="yes"/>
      <point x="275" y="13"/>
      <point x="310" y="27"/>
      <point x="340" y="50" type="curve"/>
      <point x="352" y="28" type="line"/>
      <point x="322" y="9"/>
      <point x="288" y="-10"/>
      <point x="228" y="-10" type="curve" smooth="yes"/>
      <point x="127" y="-10"/>
      <point x="46" y="69"/>
    </contour>
    <contour>
      <point x="344" y="221" type="line"/>
      <point x="344" y="332"/>
      <point x="294" y="387"/>
      <point x="218" y="387" type="curve" smooth="yes"/>
      <point x="146" y="387"/>
      <point x="81" y="323"/>
      <point x="72" y="221" type="curve"/>
    </contour>
    <contour>
      <point x="218" y="418" type="move" name="mark0"/>
    </contour>
    <contour>
      <point x="214" y="-19" type="move" name="mark0"/>
    </contour>
    <contour>
      <point x="320" y="0" type="move" name="mark0"/>
    </contour>
  </outline>
</glyph>
<glyph name="f" format="1">
  <advance width="212"/>
  <unicode hex="0066"/>
  <outline>
    <contour>
      <point x="222" y="580" type="line"/>
      <point x="206" y="589"/>
      <point x="190" y="591"/>
      <point x="174" y="591" type="curve" smooth="yes"/>
      <point x="128" y="591"/>
      <point x="109" y="557"/>
      <point x="109" y="496" type="curve" smooth="yes"/>
      <point x="109" y="400" type="line"/>
      <point x="205" y="400" type="line"/>
      <point x="205" y="377" type="line"/>
      <point x="109" y="377" type="line"/>
      <point x="109" y="0" type="line"/>
      <point x="83" y="0" type="line"/>
      <point x="83" y="377" type="line"/>
      <point x="28" y="377" type="line"/>
      <point x="28" y="398" type="line"/>
      <point x="83" y="400" type="line"/>
      <point x="83" y="499" type="line" smooth="yes"/>
      <point x="83" y="579"/>
      <point x="120" y="615"/>
      <point x="176" y="615" type="curve" smooth="yes"/>
      <point x="194" y="615"/>
      <point x="213" y="611"/>
      <point x="231" y="602" type="curve"/>
    </contour>
    <contour>
      <point x="177" y="620" type="move" name="mark0"/>
    </contour>
    <contour>
      <point x="97" y="-19" type="move" name="mark0"/>
    </contour>
  </outline>
</glyph>
<glyph name="g" format="1">
  <advance width="402"/>
  <unicode hex="0067"/>
  <outline>
    <contour>
      <point x="72" y="-82" type="curve" smooth="yes"/>
      <point x="72" y="-136"/>
      <point x="121" y="-172"/>
      <point x="212" y="-172" type="curve" smooth="yes"/>
      <point x="307" y="-172"/>
      <point x="367" y="-118"/>
      <point x="367" y="-64" type="curve" smooth="yes"/>
      <point x="367" y="-17"/>
      <point x="333" y="2"/>
      <point x="269" y="2" type="curve" smooth="yes"/>
      <point x="177" y="2" type="line" smooth="yes"/>
      <point x="171" y="2"/>
      <point x="152" y="3"/>
      <point x="129" y="9" type="curve"/>
      <point x="88" y="-19"/>
      <point x="72" y="-52"/>
    </contour>
    <contour>
      <point x="46" y="-84" type="curve" smooth="yes"/>
      <point x="46" y="-47"/>
      <point x="69" y="-12"/>
      <point x="105" y="15" type="curve"/>
      <point x="105" y="19" type="line"/>
      <point x="85" y="30"/>
      <point x="71" y="52"/>
      <point x="71" y="82" type="curve" smooth="yes"/>
      <point x="71" y="120"/>
      <point x="97" y="143"/>
      <point x="114" y="156" type="curve"/>
      <point x="114" y="159" type="line"/>
      <point x="87" y="181"/>
      <point x="64" y="220"/>
      <point x="64" y="269" type="curve" smooth="yes"/>
      <point x="64" y="349"/>
      <point x="123" y="411"/>
      <point x="201" y="411" type="curve" smooth="yes"/>
      <point x="223" y="411"/>
      <point x="240" y="406"/>
      <point x="253" y="400" type="curve"/>
      <point x="387" y="400" type="line"/>
      <point x="387" y="377" type="line"/>
      <point x="289" y="377" type="line"/>
      <point x="319" y="354"/>
      <point x="339" y="316"/>
      <point x="339" y="269" type="curve" smooth="yes"/>
      <point x="339" y="189"/>
      <point x="278" y="127"/>
      <point x="201" y="127" type="curve" smooth="yes"/>
      <point x="177" y="127"/>
      <point x="152" y="133"/>
      <point x="132" y="146" type="curve"/>
      <point x="113" y="129"/>
      <point x="97" y="113"/>
      <point x="97" y="83" type="curve" smooth="yes"/>
      <point x="97" y="53"/>
      <point x="114" y="28"/>
      <point x="176" y="28" type="curve" smooth="yes"/>
      <point x="265" y="28" type="line" smooth="yes"/>
      <point x="355" y="28"/>
      <point x="394" y="1"/>
      <point x="394" y="-63" type="curve" smooth="yes"/>
      <point x="394" y="-130"/>
      <point x="322" y="-196"/>
      <point x="210" y="-196" type="curve" smooth="yes"/>
      <point x="106" y="-196"/>
      <point x="46" y="-151"/>
    </contour>
    <contour>
      <point x="201" y="151" type="curve" smooth="yes"/>
      <point x="259" y="151"/>
      <point x="312" y="199"/>
      <point x="312" y="269" type="curve" smooth="yes"/>
      <point x="312" y="341"/>
      <point x="262" y="387"/>
      <point x="201" y="387" type="curve" smooth="yes"/>
      <point x="140" y="387"/>
      <point x="90" y="341"/>
      <point x="90" y="269" type="curve" smooth="yes"/>
      <point x="90" y="199"/>
      <point x="143" y="151"/>
    </contour>
    <contour>
      <point x="208" y="418" type="move" name="mark0"/>
    </contour>
    <contour>
      <point x="210" y="-193" type="move" name="mark0"/>
    </contour>
  </outline>
</glyph>
<glyph name="h" format="1">
  <advance width="437"/>
  <unicode hex="0068"/>
  <outline>
    <contour>
      <point x="80" y="605" type="line"/>
      <point x="105" y="605" type="line"/>
      <point x="105" y="425" type="line"/>
      <point x="105" y="335" type="line"/>
      <point x="149" y="379"/>
      <point x="190" y="411"/>
      <point x="247" y="411" type="curve" smooth="yes"/>
      <point x="329" y="411"/>
      <point x="367" y="363"/>
      <point x="367" y="258" type="curve" smooth="yes"/>
      <point x="367" y="0" type="line"/>
      <point x="342" y="0" type="line"/>
      <point x="342" y="255" type="line" smooth="yes"/>
      <point x="342" y="344"/>
      <point x="314" y="387"/>
      <point x="245" y="387" type="curve" smooth="yes"/>
      <point x="195" y="387"/>
      <point x="157" y="361"/>
      <point x="105" y="307" type="curve"/>
      <point x="105" y="0" type="line"/>
      <point x="80" y="0" type="line"/>
    </contour>
    <contour>
      <point x="94" y="612" type="move" name="mark0"/>
    </contour>
    <contour>
      <point x="234" y="-19" type="move" name="mark0"/>
    </contour>
  </outline>
</glyph>
<glyph name="i" format="1">
  <advance width="186"/>
  <unicode hex="0069"/>
  <outline>
    <contour>
      <point x="94" y="503" type="curve" smooth="yes"/>
      <point x="78" y="503"/>
      <point x="65" y="514"/>
      <point x="65" y="531" type="curve" smooth="yes"/>
      <point x="65" y="550"/>
      <point x="78" y="560"/>
      <point x="94" y="560" type="curve" smooth="yes"/>
      <point x="110" y="560"/>
      <point x="122" y="550"/>
      <point x="122" y="531" type="curve" smooth="yes"/>
      <point x="122" y="514"/>
      <point x="110" y="503"/>
    </contour>
    <contour>
      <point x="80" y="400" type="line"/>
      <point x="105" y="400" type="line"/>
      <point x="105" y="0" type="line"/>
      <point x="80" y="0" type="line"/>
    </contour>
    <contour>
      <point x="92" y="563" type="move" name="mark0"/>
    </contour>
    <contour>
      <point x="92" y="-19" type="move" name="mark0"/>
    </contour>
    <contour>
      <point x="109" y="0" type="move" name="mark0"/>
    </contour>
  </outline>
</glyph>
<glyph name="j" format="1">
  <advance width="186"/>
  <unicode hex="006A"/>
  <outline>
    <contour>
      <point x="80" y="400" type="line"/>
      <point x="105" y="400" type="line"/>
      <point x="105" y="-85" type="line" smooth="yes"/>
      <point x="105" y="-163"/>
      <point x="79" y="-196"/>
      <point x="24" y="-196" type="curve" smooth="yes"/>
      <point x="7" y="-196"/>
      <point x="-13" y="-192"/>
      <point x="-25" y="-186" type="curve"/>
      <point x="-19" y="-164" type="line"/>
      <point x="-9" y="-168"/>
      <point x="9" y="-172"/>
      <point x="25" y="-172" type="curve" smooth="yes"/>
      <point x="72" y="-172"/>
      <point x="80" y="-134"/>
      <point x="80" y="-82" type="curve" smooth="yes"/>
    </contour>
    <contour>
      <point x="94" y="503" type="curve" smooth="yes"/>
      <point x="78" y="503"/>
      <point x="65" y="514"/>
      <point x="65" y="531" type="curve" smooth="yes"/>
      <point x="65" y="550"/>
      <point x="78" y="560"/>
      <point x="94" y="560" type="curve" smooth="yes"/>
      <point x="110" y="560"/>
      <point x="122" y="550"/>
      <point x="122" y="531" type="curve" smooth="yes"/>
      <point x="122" y="514"/>
      <point x="110" y="503"/>
    </contour>
    <contour>
      <point x="94" y="563" type="move" name="mark0"/>
    </contour>
    <contour>
      <point x="37" y="-191" type="move" name="mark0"/>
    </contour>
  </outline>
</glyph>
<glyph name="k" format="1">
  <advance width="379"/>
  <unicode hex="006B"/>
  <outline>
    <contour>
      <point x="80" y="605" type="line"/>
      <point x="105" y="605" type="line"/>
      <point x="105" y="146" type="line"/>
      <point x="107" y="146" type="line"/>
      <point x="315" y="400" type="line"/>
      <point x="345" y="400" type="line"/>
      <point x="216" y="243" type="line"/>
      <point x="368" y="0" type="line"/>
      <point x="340" y="0" type="line"/>
      <point x="201" y="222" type="line"/>
      <point x="105" y="111" type="line"/>
      <point x="105" y="0" type="line"/>
      <point x="80" y="0" type="line"/>
    </contour>
    <contour>
      <point x="96" y="612" type="move" name="mark0"/>
    </contour>
    <contour>
      <point x="212" y="-19" type="move" name="mark0"/>
    </contour>
  </outline>
</glyph>
<glyph name="l" format="1">
  <advance width="193"/>
  <unicode hex="006C"/>
  <outline>
    <contour>
      <point x="80" y="605" type="line"/>
      <point x="105" y="605" type="line"/>
      <point x="105" y="38" type="line" smooth="yes"/>
      <point x="105" y="22"/>
      <point x="112" y="13"/>
      <point x="122" y="13" type="curve" smooth="yes"/>
      <point x="125" y="13"/>
      <point x="128" y="12"/>
      <point x="138" y="15" type="curve"/>
      <point x="142" y="-7" type="line"/>
      <point x="136" y="-10"/>
      <point x="130" y="-10"/>
      <point x="121" y="-10" type="curve" smooth="yes"/>
      <point x="95" y="-10"/>
      <point x="80" y="4"/>
      <point x="80" y="44" type="curve" smooth="yes"/>
    </contour>
    <contour>
      <point x="92" y="612" type="move" name="mark0"/>
    </contour>
    <contour>
      <point x="92" y="-19" type="move" name="mark0"/>
    </contour>
  </outline>
</glyph>
<glyph name="m" format="1">
  <advance width="675"/>
  <unicode hex="006D"/>
  <outline>
    <contour>
      <point x="80" y="400" type="line"/>
      <point x="102" y="400" type="line"/>
      <point x="105" y="337" type="line"/>
      <point x="107" y="337" type="line"/>
      <point x="144" y="380"/>
      <point x="191" y="411"/>
      <point x="234" y="411" type="curve" smooth="yes"/>
      <point x="301" y="411"/>
      <point x="331" y="377"/>
      <point x="345" y="326" type="curve"/>
      <point x="392" y="380"/>
      <point x="437" y="411"/>
      <point x="482" y="411" type="curve" smooth="yes"/>
      <point x="563" y="411"/>
      <point x="602" y="363"/>
      <point x="602" y="258" type="curve" smooth="yes"/>
      <point x="602" y="0" type="line"/>
      <point x="576" y="0" type="line"/>
      <point x="576" y="255" type="line" smooth="yes"/>
      <point x="576" y="344"/>
      <point x="548" y="387"/>
      <point x="481" y="387" type="curve" smooth="yes"/>
      <point x="440" y="387"/>
      <point x="400" y="361"/>
      <point x="354" y="307" type="curve"/>
      <point x="354" y="0" type="line"/>
      <point x="328" y="0" type="line"/>
      <point x="328" y="255" type="line" smooth="yes"/>
      <point x="328" y="344"/>
      <point x="299" y="387"/>
      <point x="232" y="387" type="curve" smooth="yes"/>
      <point x="195" y="387"/>
      <point x="153" y="361"/>
      <point x="105" y="307" type="curve"/>
      <point x="105" y="0" type="line"/>
      <point x="80" y="0" type="line"/>
    </contour>
    <contour>
      <point x="339" y="418" type="move" name="mark0"/>
    </contour>
    <contour>
      <point x="347" y="-19" type="move" name="mark0"/>
    </contour>
  </outline>
</glyph>
<glyph name="n" format="1">
  <advance width="440"/>
  <unicode hex="006E"/>
  <outline>
    <contour>
      <point x="80" y="400" type="line"/>
      <point x="102" y="400" type="line"/>
      <point x="105" y="337" type="line"/>
      <point x="107" y="337" type="line"/>
      <point x="150" y="380"/>
      <point x="190" y="411"/>
      <point x="247" y="411" type="curve" smooth="yes"/>
      <point x="329" y="411"/>
      <point x="367" y="363"/>
      <point x="367" y="258" type="curve" smooth="yes"/>
      <point x="367" y="0" type="line"/>
      <point x="342" y="0" type="line"/>
      <point x="342" y="255" type="line" smooth="yes"/>
      <point x="342" y="344"/>
      <point x="314" y="387"/>
      <point x="245" y="387" type="curve" smooth="yes"/>
      <point x="195" y="387"/>
      <point x="157" y="361"/>
      <point x="105" y="307" type="curve"/>
      <point x="105" y="0" type="line"/>
      <point x="80" y="0" type="line"/>
    </contour>
    <contour>
      <point x="232" y="418" type="move" name="mark0"/>
    </contour>
    <contour>
      <point x="224" y="-19" type="move" name="mark0"/>
    </contour>
  </outline>
</glyph>
<glyph name="o" format="1">
  <advance width="446"/>
  <unicode hex="006F"/>
  <outline>
    <contour>
      <point x="46" y="199" type="curve" smooth="yes"/>
      <point x="46" y="333"/>
      <point x="126" y="411"/>
      <point x="222" y="411" type="curve" smooth="yes"/>
      <point x="319" y="411"/>
      <point x="400" y="333"/>
      <point x="400" y="199" type="curve" smooth="yes"/>
      <point x="400" y="68"/>
      <point x="319" y="-10"/>
      <point x="222" y="-10" type="curve" smooth="yes"/>
      <point x="126" y="-10"/>
      <point x="46" y="68"/>
    </contour>
    <contour>
      <point x="72" y="199" type="curve" smooth="yes"/>
      <point x="72" y="88"/>
      <point x="138" y="13"/>
      <point x="222" y="13" type="curve" smooth="yes"/>
      <point x="307" y="13"/>
      <point x="373" y="88"/>
      <point x="373" y="199" type="curve" smooth="yes"/>
      <point x="373" y="310"/>
      <point x="307" y="387"/>
      <point x="222" y="387" type="curve" smooth="yes"/>
      <point x="138" y="387"/>
      <point x="72" y="310"/>
    </contour>
    <contour>
      <point x="222" y="418" type="move" name="mark0"/>
    </contour>
    <contour>
      <point x="222" y="-19" type="move" name="mark0"/>
    </contour>
    <contour>
      <point x="300" y="400" type="move" name="mark0"/>
    </contour>
    <contour>
      <point x="262" y="0" type="move" name="mark0"/>
    </contour>
  </outline>
</glyph>
<glyph name="p" format="1">
  <advance width="453"/>
  <unicode hex="0070"/>
  <outline>
    <contour>
      <point x="105" y="-35" type="line"/>
      <point x="105" y="-186" type="line"/>
      <point x="80" y="-186" type="line"/>
      <point x="80" y="400" type="line"/>
      <point x="102" y="400" type="line"/>
      <point x="105" y="348" type="line"/>
      <point x="107" y="348" type="line"/>
      <point x="147" y="381"/>
      <point x="196" y="411"/>
      <point x="247" y="411" type="curve" smooth="yes"/>
      <point x="355" y="411"/>
      <point x="407" y="330"/>
      <point x="407" y="206" type="curve" smooth="yes"/>
      <point x="407" y="70"/>
      <point x="325" y="-10"/>
      <point x="230" y="-10" type="curve" smooth="yes"/>
      <point x="190" y="-10"/>
      <point x="149" y="8"/>
      <point x="105" y="40" type="curve"/>
    </contour>
    <contour>
      <point x="105" y="69" type="line"/>
      <point x="155" y="28"/>
      <point x="198" y="13"/>
      <point x="231" y="13" type="curve" smooth="yes"/>
      <point x="318" y="13"/>
      <point x="381" y="94"/>
      <point x="381" y="206" type="curve" smooth="yes"/>
      <point x="381" y="309"/>
      <point x="344" y="387"/>
      <point x="245" y="387" type="curve" smooth="yes"/>
      <point x="202" y="387"/>
      <point x="158" y="363"/>
      <point x="105" y="317" type="curve"/>
    </contour>
    <contour>
      <point x="232" y="418" type="move" name="mark0"/>
    </contour>
    <contour>
      <point x="88" y="-182" type="move" name="mark0"/>
    </contour>
  </outline>
</glyph>
<glyph name="r" format="1">
  <advance width="256"/>
  <unicode hex="0072"/>
  <outline>
    <contour>
      <point x="80" y="400" type="line"/>
      <point x="102" y="400" type="line"/>
      <point x="105" y="325" type="line"/>
      <point x="107" y="325" type="line"/>
      <point x="134" y="374"/>
      <point x="171" y="411"/>
      <point x="221" y="411" type="curve" smooth="yes"/>
      <point x="234" y="411"/>
      <point x="247" y="409"/>
      <point x="260" y="402" type="curve"/>
      <point x="253" y="379" type="line"/>
      <point x="239" y="384"/>
      <point x="233" y="385"/>
      <point x="218" y="385" type="curve" smooth="yes"/>
      <point x="180" y="385"/>
      <point x="138" y="358"/>
      <point x="105" y="278" type="curve"/>
      <point x="105" y="0" type="line"/>
      <point x="80" y="0" type="line"/>
    </contour>
    <contour>
      <point x="161" y="418" type="move" name="mark0"/>
    </contour>
    <contour>
      <point x="92" y="-19" type="move" name="mark0"/>
    </contour>
  </outline>
</glyph>
<glyph name="s" format="1">
  <advance width="335"/>
  <unicode hex="0073"/>
  <outline>
    <contour>
      <point x="46" y="65" type="line"/>
      <point x="79" y="36"/>
      <point x="116" y="13"/>
      <point x="176" y="13" type="curve" smooth="yes"/>
      <point x="243" y="13"/>
      <point x="278" y="54"/>
      <point x="278" y="99" type="curve" smooth="yes"/>
      <point x="278" y="154"/>
      <point x="224" y="175"/>
      <point x="177" y="193" type="curve"/>
      <point x="116" y="214"/>
      <point x="46" y="237"/>
      <point x="46" y="307" type="curve" smooth="yes"/>
      <point x="46" y="363"/>
      <point x="89" y="411"/>
      <point x="172" y="411" type="curve" smooth="yes"/>
      <point x="214" y="411"/>
      <point x="254" y="394"/>
      <point x="283" y="370" type="curve"/>
      <point x="269" y="350" type="line"/>
      <point x="241" y="370"/>
      <point x="214" y="387"/>
      <point x="171" y="387" type="curve" smooth="yes"/>
      <point x="104" y="387"/>
      <point x="73" y="347"/>
      <point x="73" y="308" type="curve" smooth="yes"/>
      <point x="73" y="261"/>
      <point x="122" y="240"/>
      <point x="171" y="222" type="curve"/>
      <point x="234" y="197"/>
      <point x="306" y="179"/>
      <point x="306" y="101" type="curve" smooth="yes"/>
      <point x="306" y="43"/>
      <point x="258" y="-10"/>
      <point x="174" y="-10" type="curve" smooth="yes"/>
      <point x="114" y="-10"/>
      <point x="65" y="15"/>
      <point x="28" y="46" type="curve"/>
    </contour>
    <contour>
      <point x="172" y="418" type="move" name="mark0"/>
    </contour>
    <contour>
      <point x="180" y="0" type="move" name="mark0"/>
    </contour>
    <contour>
      <point x="180" y="-19" type="move" name="mark0"/>
    </contour>
  </outline>
</glyph>
<glyph name="t" format="1">
  <advance width="253"/>
  <unicode hex="0074"/>
  <outline>
    <contour>
      <point x="88" y="377" type="line"/>
      <point x="25" y="377" type="line"/>
      <point x="25" y="398" type="line"/>
      <point x="88" y="400" type="line"/>
      <point x="92" y="517" type="line"/>
      <point x="114" y="517" type="line"/>
      <point x="114" y="400" type="line"/>
      <point x="232" y="400" type="line"/>
      <point x="232" y="377" type="line"/>
      <point x="114" y="377" type="line"/>
      <point x="114" y="102" type="line" smooth="yes"/>
      <point x="114" y="51"/>
      <point x="126" y="13"/>
      <point x="184" y="13" type="curve" smooth="yes"/>
      <point x="200" y="13"/>
      <point x="220" y="21"/>
      <point x="236" y="27" type="curve"/>
      <point x="245" y="5" type="line"/>
      <point x="221" y="-5"/>
      <point x="196" y="-10"/>
      <point x="182" y="-10" type="curve" smooth="yes"/>
      <point x="109" y="-10"/>
      <point x="88" y="36"/>
      <point x="88" y="105" type="curve" smooth="yes"/>
    </contour>
    <contour>
      <point x="104" y="528" type="move" name="mark0"/>
    </contour>
    <contour>
      <point x="170" y="0" type="move" name="mark0"/>
    </contour>
    <contour>
      <point x="163" y="-19" type="move" name="mark0"/>
    </contour>
  </outline>
</glyph>
<glyph name="u" format="1">
  <advance width="439"/>
  <unicode hex="0075"/>
  <outline>
    <contour>
      <point x="73" y="400" type="line"/>
      <point x="99" y="400" type="line"/>
      <point x="99" y="146" type="line" smooth="yes"/>
      <point x="99" y="56"/>
      <point x="126" y="13"/>
      <point x="196" y="13" type="curve" smooth="yes"/>
      <point x="247" y="13"/>
      <point x="283" y="40"/>
      <point x="333" y="101" type="curve"/>
      <point x="333" y="400" type="line"/>
      <point x="359" y="400" type="line"/>
      <point x="359" y="0" type="line"/>
      <point x="337" y="0" type="line"/>
      <point x="333" y="69" type="line"/>
      <point x="331" y="69" type="line"/>
      <point x="291" y="22"/>
      <point x="251" y="-10"/>
      <point x="195" y="-10" type="curve" smooth="yes"/>
      <point x="112" y="-10"/>
      <point x="73" y="37"/>
      <point x="73" y="142" type="curve" smooth="yes"/>
    </contour>
    <contour>
      <point x="220" y="418" type="move" name="mark0"/>
    </contour>
    <contour>
      <point x="234" y="-19" type="move" name="mark0"/>
    </contour>
    <contour>
      <point x="331" y="409" type="move" name="mark0"/>
    </contour>
    <contour>
      <point x="340" y="0" type="move" name="mark0"/>
    </contour>
  </outline>
</glyph>
<glyph name="v" format="1">
  <advance width="354"/>
  <unicode hex="0076"/>
  <outline>
    <contour>
      <point x="10" y="400" type="line"/>
      <point x="38" y="400" type="line"/>
      <point x="134" y="140" type="line"/>
      <point x="147" y="102"/>
      <point x="163" y="63"/>
      <point x="176" y="27" type="curve"/>
      <point x="179" y="27" type="line"/>
      <point x="193" y="63"/>
      <point x="208" y="102"/>
      <point x="221" y="140" type="curve"/>
      <point x="317" y="400" type="line"/>
      <point x="344" y="400" type="line"/>
      <point x="193" y="0" type="line"/>
      <point x="163" y="0" type="line"/>
    </contour>
    <contour>
      <point x="177" y="418" type="move" name="mark0"/>
    </contour>
    <contour>
      <point x="177" y="-19" type="move" name="mark0"/>
    </contour>
  </outline>
</glyph>
<glyph name="w" format="1">
  <advance width="563"/>
  <unicode hex="0077"/>
  <outline>
    <contour>
      <point x="21" y="400" type="line"/>
      <point x="48" y="400" type="line"/>
      <point x="125" y="130" type="line" smooth="yes"/>
      <point x="136" y="94"/>
      <point x="145" y="62"/>
      <point x="155" y="25" type="curve"/>
      <point x="158" y="25" type="line"/>
      <point x="168" y="62"/>
      <point x="177" y="94"/>
      <point x="188" y="130" type="curve" smooth="yes"/>
      <point x="265" y="400" type="line"/>
      <point x="300" y="400" type="line"/>
      <point x="377" y="130" type="line" smooth="yes"/>
      <point x="387" y="94"/>
      <point x="398" y="62"/>
      <point x="407" y="25" type="curve"/>
      <point x="411" y="25" type="line"/>
      <point x="420" y="62"/>
      <point x="431" y="94"/>
      <point x="440" y="130" type="curve" smooth="yes"/>
      <point x="515" y="400" type="line"/>
      <point x="543" y="400" type="line"/>
      <point x="425" y="0" type="line"/>
      <point x="390" y="0" type="line"/>
      <point x="315" y="262" type="line"/>
      <point x="303" y="301"/>
      <point x="296" y="336"/>
      <point x="283" y="375" type="curve"/>
      <point x="280" y="375" type="line"/>
      <point x="269" y="336"/>
      <point x="260" y="299"/>
      <point x="247" y="260" type="curve"/>
      <point x="172" y="0" type="line"/>
      <point x="140" y="0" type="line"/>
    </contour>
    <contour>
      <point x="281" y="418" type="move" name="mark0"/>
    </contour>
    <contour>
      <point x="281" y="-19" type="move" name="mark0"/>
    </contour>
  </outline>
</glyph>
<glyph name="x" format="1">
  <advance width="328"/>
  <unicode hex="0078"/>
  <outline>
    <contour>
      <point x="149" y="210" type="line"/>
      <point x="24" y="400" type="line"/>
      <point x="52" y="400" type="line"/>
      <point x="121" y="293" type="line"/>
      <point x="134" y="270"/>
      <point x="148" y="251"/>
      <point x="164" y="228" type="curve"/>
      <point x="168" y="228" type="line"/>
      <point x="183" y="251"/>
      <point x="195" y="270"/>
      <point x="212" y="293" type="curve"/>
      <point x="278" y="400" type="line"/>
      <point x="306" y="400" type="line"/>
      <point x="179" y="208" type="line"/>
      <point x="317" y="0" type="line"/>
      <point x="288" y="0" type="line"/>
      <point x="214" y="116" type="line"/>
      <point x="196" y="141"/>
      <point x="180" y="166"/>
      <point x="164" y="189" type="curve"/>
      <point x="161" y="189" type="line"/>
      <point x="144" y="166"/>
      <point x="129" y="141"/>
      <point x="113" y="116" type="curve" smooth="yes"/>
      <point x="38" y="0" type="line"/>
      <point x="12" y="0" type="line"/>
    </contour>
    <contour>
      <point x="164" y="418" type="move" name="mark0"/>
    </contour>
    <contour>
      <point x="164" y="-19" type="move" name="mark0"/>
    </contour>
  </outline>
</glyph>
<glyph name="y" format="1">
  <advance width="356"/>
  <unicode hex="0079"/>
  <outline>
    <contour>
      <point x="24" y="-155" type="line"/>
      <point x="32" y="-158"/>
      <point x="45" y="-161"/>
      <point x="57" y="-161" type="curve" smooth="yes"/>
      <point x="107" y="-161"/>
      <point x="141" y="-114"/>
      <point x="164" y="-47" type="curve"/>
      <point x="176" y="-10" type="line"/>
      <point x="10" y="400" type="line"/>
      <point x="38" y="400" type="line"/>
      <point x="140" y="138" type="line" smooth="yes"/>
      <point x="155" y="104"/>
      <point x="171" y="62"/>
      <point x="186" y="25" type="curve"/>
      <point x="189" y="25" type="line"/>
      <point x="203" y="62"/>
      <point x="215" y="104"/>
      <point x="228" y="138" type="curve"/>
      <point x="318" y="400" type="line"/>
      <point x="345" y="400" type="line"/>
      <point x="184" y="-57" type="line"/>
      <point x="164" y="-121"/>
      <point x="124" y="-186"/>
      <point x="55" y="-186" type="curve" smooth="yes"/>
      <point x="41" y="-186"/>
      <point x="27" y="-183"/>
      <point x="17" y="-177" type="curve"/>
    </contour>
    <contour>
      <point x="188" y="418" type="move" name="mark0"/>
    </contour>
    <contour>
      <point x="149" y="-203" type="move" name="mark0"/>
    </contour>
  </outline>
</glyph>
<glyph name="z" format="1">
  <advance width="331"/>
  <unicode hex="007A"/>
  <outline>
    <contour>
      <point x="22" y="13" type="line"/>
      <point x="269" y="377" type="line"/>
      <point x="48" y="377" type="line"/>
      <point x="48" y="400" type="line"/>
      <point x="302" y="400" type="line"/>
      <point x="302" y="387" type="line"/>
      <point x="55" y="24" type="line"/>
      <point x="310" y="24" type="line"/>
      <point x="310" y="0" type="line"/>
      <point x="22" y="0" type="line"/>
    </contour>
    <contour>
      <point x="180" y="418" type="move" name="mark0"/>
    </contour>
    <contour>
      <point x="179" y="-19" type="move" name="mark0"/>
    </contour>
  </outline>
</glyph>
<glyph name="braceleft" format="1">
  <advance width="226"/>
  <unicode hex="007B"/>
  <outline>
    <contour>
      <point x="212" y="-109" type="line"/>
      <point x="212" y="-127" type="line"/>
      <point x="186" y="-127" type="line" smooth="yes"/>
      <point x="124" y="-127"/>
      <point x="96" y="-105"/>
      <point x="96" y="-22" type="curve" smooth="yes"/>
      <point x="96" y="41"/>
      <point x="102" y="95"/>
      <point x="102" y="155" type="curve" smooth="yes"/>
      <point x="102" y="189"/>
      <point x="88" y="222"/>
      <point x="29" y="222" type="curve"/>
      <point x="29" y="243" type="line"/>
      <point x="88" y="243"/>
      <point x="102" y="276"/>
      <point x="102" y="310" type="curve" smooth="yes"/>
      <point x="102" y="370"/>
      <point x="96" y="424"/>
      <point x="96" y="488" type="curve" smooth="yes"/>
      <point x="96" y="571"/>
      <point x="124" y="593"/>
      <point x="186" y="593" type="curve" smooth="yes"/>
      <point x="212" y="593" type="line"/>
      <point x="212" y="574" type="line"/>
      <point x="184" y="574" type="line" smooth="yes"/>
      <point x="130" y="574"/>
      <point x="118" y="545"/>
      <point x="118" y="484" type="curve" smooth="yes"/>
      <point x="118" y="428"/>
      <point x="122" y="382"/>
      <point x="122" y="320" type="curve" smooth="yes"/>
      <point x="122" y="272"/>
      <point x="115" y="245"/>
      <point x="82" y="234" type="curve"/>
      <point x="82" y="231" type="line"/>
      <point x="115" y="221"/>
      <point x="122" y="192"/>
      <point x="122" y="146" type="curve" smooth="yes"/>
      <point x="122" y="83"/>
      <point x="118" y="37"/>
      <point x="118" y="-19" type="curve" smooth="yes"/>
      <point x="118" y="-79"/>
      <point x="130" y="-109"/>
      <point x="184" y="-109" type="curve" smooth="yes"/>
    </contour>
  </outline>
</glyph>
<glyph name="braceright" format="1">
  <advance width="226"/>
  <unicode hex="007D"/>
  <outline>
    <contour>
      <point x="42" y="-109" type="line" smooth="yes"/>
      <point x="96" y="-109"/>
      <point x="109" y="-79"/>
      <point x="109" y="-19" type="curve" smooth="yes"/>
      <point x="109" y="37"/>
      <point x="104" y="83"/>
      <point x="104" y="146" type="curve" smooth="yes"/>
      <point x="104" y="192"/>
      <point x="112" y="221"/>
      <point x="144" y="231" type="curve"/>
      <point x="144" y="234" type="line"/>
      <point x="112" y="245"/>
      <point x="104" y="272"/>
      <point x="104" y="320" type="curve" smooth="yes"/>
      <point x="104" y="382"/>
      <point x="109" y="428"/>
      <point x="109" y="484" type="curve" smooth="yes"/>
      <point x="109" y="545"/>
      <point x="96" y="574"/>
      <point x="42" y="574" type="curve" smooth="yes"/>
      <point x="15" y="574" type="line"/>
      <point x="15" y="593" type="line"/>
      <point x="40" y="593" type="line" smooth="yes"/>
      <point x="100" y="593"/>
      <point x="130" y="571"/>
      <point x="130" y="488" type="curve" smooth="yes"/>
      <point x="130" y="424"/>
      <point x="123" y="370"/>
      <point x="123" y="310" type="curve" smooth="yes"/>
      <point x="123" y="276"/>
      <point x="138" y="243"/>
      <point x="196" y="243" type="curve"/>
      <point x="196" y="222" type="line"/>
      <point x="138" y="222"/>
      <point x="123" y="189"/>
      <point x="123" y="155" type="curve" smooth="yes"/>
      <point x="123" y="95"/>
      <point x="130" y="41"/>
      <point x="130" y="-22" type="curve" smooth="yes"/>
      <point x="130" y="-105"/>
      <point x="100" y="-127"/>
      <point x="40" y="-127" type="curve" smooth="yes"/>
      <point x="15" y="-127" type="line"/>
      <point x="15" y="-109" type="line"/>
    </contour>
  </outline>
</glyph>
<glyph name="asciitilde" format="1">
  <advance width="396"/>
  <unicode hex="007E"/>
  <outline>
    <contour>
      <point x="35" y="260" type="line"/>
      <point x="58" y="306"/>
      <point x="89" y="326"/>
      <point x="122" y="326" type="curve" smooth="yes"/>
      <point x="185" y="326"/>
      <point x="226" y="250"/>
      <point x="274" y="250" type="curve" smooth="yes"/>
      <point x="301" y="250"/>
      <point x="322" y="264"/>
      <point x="342" y="304" type="curve"/>
      <point x="361" y="291" type="line"/>
      <point x="338" y="248"/>
      <point x="306" y="226"/>
      <point x="272" y="226" type="curve" smooth="yes"/>
      <point x="209" y="226"/>
      <point x="171" y="304"/>
      <point x="121" y="304" type="curve" smooth="yes"/>
      <point x="95" y="304"/>
      <point x="73" y="289"/>
      <point x="54" y="250" type="curve"/>
    </contour>
  </outline>
</glyph>
<glyph name="exclamdown" format="1">
  <advance width="208"/>
  <unicode hex="00A1"/>
  <outline>
    <contour>
      <point x="118" y="-109" type="line"/>
      <point x="118" y="-161" type="line"/>
      <point x="90" y="-161" type="line"/>
      <point x="90" y="-109" type="line"/>
      <point x="94" y="256" type="line"/>
      <point x="114" y="256" type="line"/>
    </contour>
    <contour>
      <point x="134" y="379" type="curve" smooth="yes"/>
      <point x="134" y="356"/>
      <point x="121" y="345"/>
      <point x="104" y="345" type="curve" smooth="yes"/>
      <point x="87" y="345"/>
      <point x="73" y="356"/>
      <point x="73" y="379" type="curve" smooth="yes"/>
      <point x="73" y="399"/>
      <point x="87" y="411"/>
      <point x="104" y="411" type="curve" smooth="yes"/>
      <point x="121" y="411"/>
      <point x="134" y="399"/>
    </contour>
  </outline>
</glyph>
<glyph name="cent" format="1">
  <advance width="396"/>
  <unicode hex="00A2"/>
  <outline>
    <contour>
      <point x="212" y="427" type="line"/>
      <point x="135" y="418"/>
      <point x="79" y="353"/>
      <point x="79" y="262" type="curve" smooth="yes"/>
      <point x="79" y="169"/>
      <point x="130" y="104"/>
      <point x="212" y="95" type="curve"/>
    </contour>
    <contour>
      <point x="359" y="123" type="line"/>
      <point x="325" y="95"/>
      <point x="285" y="71"/>
      <point x="234" y="71" type="curve"/>
      <point x="234" y="-22" type="line"/>
      <point x="212" y="-22" type="line"/>
      <point x="212" y="71" type="line"/>
      <point x="120" y="80"/>
      <point x="52" y="146"/>
      <point x="52" y="262" type="curve" smooth="yes"/>
      <point x="52" y="378"/>
      <point x="123" y="442"/>
      <point x="212" y="452" type="curve"/>
      <point x="212" y="547" type="line"/>
      <point x="234" y="547" type="line"/>
      <point x="234" y="453" type="line"/>
      <point x="288" y="452"/>
      <point x="322" y="426"/>
      <point x="348" y="402" type="curve"/>
      <point x="333" y="385" type="line"/>
      <point x="307" y="410"/>
      <point x="274" y="428"/>
      <point x="234" y="429" type="curve"/>
      <point x="234" y="94" type="line"/>
      <point x="278" y="95"/>
      <point x="316" y="115"/>
      <point x="344" y="140" type="curve"/>
    </contour>
  </outline>
</glyph>
<glyph name="sterling" format="1">
  <advance width="396"/>
  <unicode hex="00A3"/>
  <outline>
    <contour>
      <point x="350" y="24" type="line"/>
      <point x="350" y="0" type="line"/>
      <point x="48" y="0" type="line"/>
      <point x="48" y="15" type="line"/>
      <point x="113" y="52"/>
      <point x="138" y="117"/>
      <point x="138" y="182" type="curve" smooth="yes"/>
      <point x="138" y="205"/>
      <point x="135" y="227"/>
      <point x="129" y="248" type="curve"/>
      <point x="46" y="248" type="line"/>
      <point x="46" y="269" type="line"/>
      <point x="101" y="271" type="line"/>
      <point x="122" y="271" type="line"/>
      <point x="110" y="318"/>
      <point x="94" y="361"/>
      <point x="94" y="407" type="curve" smooth="yes"/>
      <point x="94" y="493"/>
      <point x="145" y="547"/>
      <point x="231" y="547" type="curve" smooth="yes"/>
      <point x="288" y="547"/>
      <point x="325" y="517"/>
      <point x="348" y="488" type="curve"/>
      <point x="330" y="471" type="line"/>
      <point x="307" y="500"/>
      <point x="276" y="523"/>
      <point x="230" y="523" type="curve" smooth="yes"/>
      <point x="158" y="523"/>
      <point x="121" y="471"/>
      <point x="121" y="409" type="curve" smooth="yes"/>
      <point x="121" y="362"/>
      <point x="138" y="318"/>
      <point x="150" y="271" type="curve"/>
      <point x="289" y="271" type="line"/>
      <point x="289" y="248" type="line"/>
      <point x="155" y="248" type="line"/>
      <point x="160" y="228"/>
      <point x="163" y="206"/>
      <point x="163" y="182" type="curve" smooth="yes"/>
      <point x="163" y="109"/>
      <point x="139" y="66"/>
      <point x="99" y="27" type="curve"/>
      <point x="99" y="24" type="line"/>
    </contour>
  </outline>
</glyph>
<glyph name="currency" format="1">
  <advance width="396"/>
  <unicode hex="00A4"/>
  <outline>
    <contour>
      <point x="27" y="118" type="line"/>
      <point x="82" y="174" type="line"/>
      <point x="63" y="201"/>
      <point x="50" y="235"/>
      <point x="50" y="274" type="curve" smooth="yes"/>
      <point x="50" y="316"/>
      <point x="63" y="351"/>
      <point x="82" y="378" type="curve"/>
      <point x="27" y="436" type="line"/>
      <point x="44" y="455" type="line"/>
      <point x="99" y="397" type="line"/>
      <point x="124" y="422"/>
      <point x="160" y="436"/>
      <point x="197" y="436" type="curve" smooth="yes"/>
      <point x="234" y="436"/>
      <point x="269" y="422"/>
      <point x="297" y="397" type="curve"/>
      <point x="352" y="455" type="line"/>
      <point x="368" y="436" type="line"/>
      <point x="313" y="378" type="line"/>
      <point x="332" y="351"/>
      <point x="345" y="316"/>
      <point x="345" y="274" type="curve" smooth="yes"/>
      <point x="345" y="235"/>
      <point x="332" y="201"/>
      <point x="314" y="174" type="curve"/>
      <point x="368" y="118" type="line"/>
      <point x="352" y="99" type="line"/>
      <point x="297" y="156" type="line"/>
      <point x="270" y="129"/>
      <point x="234" y="116"/>
      <point x="197" y="116" type="curve" smooth="yes"/>
      <point x="159" y="116"/>
      <point x="125" y="129"/>
      <point x="98" y="156" type="curve"/>
      <point x="44" y="99" type="line"/>
    </contour>
    <contour>
      <point x="77" y="274" type="curve" smooth="yes"/>
      <point x="77" y="195"/>
      <point x="132" y="139"/>
      <point x="197" y="139" type="curve" smooth="yes"/>
      <point x="264" y="139"/>
      <point x="318" y="195"/>
      <point x="318" y="274" type="curve" smooth="yes"/>
      <point x="318" y="356"/>
      <point x="264" y="413"/>
      <point x="197" y="413" type="curve" smooth="yes"/>
      <point x="132" y="413"/>
      <point x="77" y="356"/>
    </contour>
  </outline>
</glyph>
<glyph name="yen" format="1">
  <advance width="396"/>
  <unicode hex="00A5"/>
  <outline>
    <contour>
      <point x="55" y="536" type="line"/>
      <point x="139" y="367" type="line"/>
      <point x="158" y="330"/>
      <point x="176" y="294"/>
      <point x="196" y="251" type="curve"/>
      <point x="199" y="251" type="line"/>
      <point x="221" y="294"/>
      <point x="238" y="330"/>
      <point x="258" y="367" type="curve"/>
      <point x="342" y="536" type="line"/>
      <point x="368" y="536" type="line"/>
      <point x="220" y="250" type="line"/>
      <point x="352" y="250" type="line"/>
      <point x="352" y="226" type="line"/>
      <point x="210" y="226" type="line"/>
      <point x="210" y="164" type="line"/>
      <point x="352" y="164" type="line"/>
      <point x="352" y="140" type="line"/>
      <point x="210" y="140" type="line"/>
      <point x="210" y="0" type="line"/>
      <point x="184" y="0" type="line"/>
      <point x="184" y="140" type="line"/>
      <point x="44" y="140" type="line"/>
      <point x="44" y="164" type="line"/>
      <point x="184" y="164" type="line"/>
      <point x="184" y="226" type="line"/>
      <point x="44" y="226" type="line"/>
      <point x="44" y="250" type="line"/>
      <point x="174" y="250" type="line"/>
      <point x="27" y="536" type="line"/>
    </contour>
  </outline>
</glyph>
<glyph name="section" format="1">
  <advance width="396"/>
  <unicode hex="00A7"/>
  <outline>
    <contour>
      <point x="259" y="147" type="curve"/>
      <point x="302" y="168"/>
      <point x="326" y="187"/>
      <point x="326" y="236" type="curve" smooth="yes"/>
      <point x="326" y="331"/>
      <point x="208" y="345"/>
      <point x="138" y="392" type="curve"/>
      <point x="97" y="369"/>
      <point x="69" y="346"/>
      <point x="69" y="300" type="curve" smooth="yes"/>
      <point x="69" y="206"/>
      <point x="188" y="196"/>
    </contour>
    <contour>
      <point x="297" y="508" type="line"/>
      <point x="269" y="530"/>
      <point x="243" y="547"/>
      <point x="199" y="547" type="curve" smooth="yes"/>
      <point x="139" y="547"/>
      <point x="116" y="512"/>
      <point x="116" y="477" type="curve" smooth="yes"/>
      <point x="116" y="362"/>
      <point x="352" y="394"/>
      <point x="352" y="238" type="curve" smooth="yes"/>
      <point x="352" y="180"/>
      <point x="322" y="155"/>
      <point x="279" y="131" type="curve"/>
      <point x="297" y="114"/>
      <point x="308" y="91"/>
      <point x="308" y="61" type="curve" smooth="yes"/>
      <point x="308" y="3"/>
      <point x="252" y="-40"/>
      <point x="195" y="-40" type="curve" smooth="yes"/>
      <point x="138" y="-40"/>
      <point x="96" y="-20"/>
      <point x="64" y="10" type="curve"/>
      <point x="82" y="28" type="line"/>
      <point x="112" y="2"/>
      <point x="140" y="-17"/>
      <point x="195" y="-17" type="curve" smooth="yes"/>
      <point x="248" y="-17"/>
      <point x="283" y="19"/>
      <point x="283" y="59" type="curve" smooth="yes"/>
      <point x="283" y="179"/>
      <point x="44" y="146"/>
      <point x="44" y="298" type="curve" smooth="yes"/>
      <point x="44" y="353"/>
      <point x="76" y="384"/>
      <point x="120" y="408" type="curve"/>
      <point x="102" y="424"/>
      <point x="90" y="447"/>
      <point x="90" y="475" type="curve" smooth="yes"/>
      <point x="90" y="519"/>
      <point x="122" y="569"/>
      <point x="199" y="569" type="curve" smooth="yes"/>
      <point x="243" y="569"/>
      <point x="281" y="552"/>
      <point x="312" y="526" type="curve"/>
    </contour>
  </outline>
</glyph>
<glyph name="copyright" format="1">
  <advance width="620"/>
  <unicode hex="00A9"/>
  <outline>
    <contour>
      <point x="44" y="269" type="curve" smooth="yes"/>
      <point x="44" y="437"/>
      <point x="166" y="547"/>
      <point x="310" y="547" type="curve" smooth="yes"/>
      <point x="455" y="547"/>
      <point x="576" y="437"/>
      <point x="576" y="269" type="curve" smooth="yes"/>
      <point x="576" y="101"/>
      <point x="455" y="-10"/>
      <point x="310" y="-10" type="curve" smooth="yes"/>
      <point x="166" y="-10"/>
      <point x="44" y="101"/>
    </contour>
    <contour>
      <point x="69" y="269" type="curve" smooth="yes"/>
      <point x="69" y="115"/>
      <point x="180" y="12"/>
      <point x="310" y="12" type="curve" smooth="yes"/>
      <point x="439" y="12"/>
      <point x="551" y="115"/>
      <point x="551" y="269" type="curve" smooth="yes"/>
      <point x="551" y="421"/>
      <point x="439" y="524"/>
      <point x="310" y="524" type="curve" smooth="yes"/>
      <point x="180" y="524"/>
      <point x="69" y="421"/>
    </contour>
    <contour>
      <point x="170" y="269" type="curve" smooth="yes"/>
      <point x="170" y="366"/>
      <point x="239" y="425"/>
      <point x="318" y="425" type="curve" smooth="yes"/>
      <point x="363" y="425"/>
      <point x="390" y="407"/>
      <point x="417" y="381" type="curve"/>
      <point x="402" y="363" type="line"/>
      <point x="375" y="388"/>
      <point x="353" y="400"/>
      <point x="317" y="400" type="curve" smooth="yes"/>
      <point x="247" y="400"/>
      <point x="197" y="348"/>
      <point x="197" y="269" type="curve" smooth="yes"/>
      <point x="197" y="182"/>
      <point x="245" y="129"/>
      <point x="315" y="129" type="curve" smooth="yes"/>
      <point x="358" y="129"/>
      <point x="389" y="148"/>
      <point x="416" y="172" type="curve"/>
      <point x="429" y="155" type="line"/>
      <point x="399" y="126"/>
      <point x="367" y="104"/>
      <point x="314" y="104" type="curve" smooth="yes"/>
      <point x="236" y="104"/>
      <point x="170" y="164"/>
    </contour>
  </outline>
</glyph>
<glyph name="registered" format="1">
  <advance width="328"/>
  <unicode hex="00AE"/>
  <outline>
    <contour>
      <point x="164" y="272" type="curve" smooth="yes"/>
      <point x="82" y="272"/>
      <point x="13" y="337"/>
      <point x="13" y="434" type="curve" smooth="yes"/>
      <point x="13" y="531"/>
      <point x="82" y="597"/>
      <point x="164" y="597" type="curve" smooth="yes"/>
      <point x="247" y="597"/>
      <point x="315" y="531"/>
      <point x="315" y="434" type="curve" smooth="yes"/>
      <point x="315" y="337"/>
      <point x="247" y="272"/>
    </contour>
    <contour>
      <point x="164" y="295" type="curve" smooth="yes"/>
      <point x="234" y="295"/>
      <point x="291" y="354"/>
      <point x="291" y="434" type="curve" smooth="yes"/>
      <point x="291" y="514"/>
      <point x="234" y="574"/>
      <point x="164" y="574" type="curve" smooth="yes"/>
      <point x="94" y="574"/>
      <point x="37" y="514"/>
      <point x="37" y="434" type="curve" smooth="yes"/>
      <point x="37" y="354"/>
      <point x="94" y="295"/>
    </contour>
    <contour>
      <point x="109" y="524" type="line"/>
      <point x="164" y="524" type="line" smooth="yes"/>
      <point x="196" y="524"/>
      <point x="228" y="513"/>
      <point x="228" y="471" type="curve" smooth="yes"/>
      <point x="228" y="448"/>
      <point x="214" y="430"/>
      <point x="195" y="423" type="curve"/>
      <point x="236" y="350" type="line"/>
      <point x="208" y="350" type="line"/>
      <point x="174" y="416" type="line"/>
      <point x="132" y="416" type="line"/>
      <point x="132" y="350" type="line"/>
      <point x="109" y="350" type="line"/>
    </contour>
    <contour>
      <point x="158" y="437" type="line" smooth="yes"/>
      <point x="184" y="437"/>
      <point x="203" y="446"/>
      <point x="203" y="469" type="curve" smooth="yes"/>
      <point x="203" y="490"/>
      <point x="194" y="503"/>
      <point x="161" y="503" type="curve" smooth="yes"/>
      <point x="132" y="503" type="line"/>
      <point x="132" y="437" type="line"/>
    </contour>
  </outline>
</glyph>
<glyph name="degree" format="1">
  <advance width="255"/>
  <unicode hex="00B0"/>
  <outline>
    <contour>
      <point x="127" y="381" type="curve" smooth="yes"/>
      <point x="80" y="381"/>
      <point x="35" y="416"/>
      <point x="35" y="475" type="curve" smooth="yes"/>
      <point x="35" y="539"/>
      <point x="80" y="573"/>
      <point x="127" y="573" type="curve" smooth="yes"/>
      <point x="174" y="573"/>
      <point x="220" y="539"/>
      <point x="220" y="475" type="curve" smooth="yes"/>
      <point x="220" y="416"/>
      <point x="174" y="381"/>
    </contour>
    <contour>
      <point x="127" y="402" type="curve" smooth="yes"/>
      <point x="168" y="402"/>
      <point x="196" y="433"/>
      <point x="196" y="475" type="curve" smooth="yes"/>
      <point x="196" y="519"/>
      <point x="168" y="551"/>
      <point x="127" y="551" type="curve" smooth="yes"/>
      <point x="87" y="551"/>
      <point x="59" y="519"/>
      <point x="59" y="475" type="curve" smooth="yes"/>
      <point x="59" y="433"/>
      <point x="87" y="402"/>
    </contour>
  </outline>
</glyph>
<glyph name="plusminus" format="1">
  <advance width="396"/>
  <unicode hex="00B1"/>
  <outline>
    <contour>
      <point x="184" y="262" type="line"/>
      <point x="28" y="262" type="line"/>
      <point x="28" y="285" type="line"/>
      <point x="184" y="285" type="line"/>
      <point x="184" y="459" type="line"/>
      <point x="212" y="459" type="line"/>
      <point x="212" y="285" type="line"/>
      <point x="367" y="285" type="line"/>
      <point x="367" y="262" type="line"/>
      <point x="212" y="262" type="line"/>
      <point x="212" y="85" type="line"/>
      <point x="184" y="85" type="line"/>
    </contour>
    <contour>
      <point x="28" y="24" type="line"/>
      <point x="367" y="24" type="line"/>
      <point x="367" y="0" type="line"/>
      <point x="28" y="0" type="line"/>
    </contour>
  </outline>
</glyph>
<glyph name="uni00B5" format="1">
  <advance width="446"/>
  <unicode hex="00B5"/>
  <outline>
    <contour>
      <point x="80" y="400" type="line"/>
      <point x="105" y="400" type="line"/>
      <point x="105" y="146" type="line" smooth="yes"/>
      <point x="105" y="56"/>
      <point x="133" y="13"/>
      <point x="203" y="13" type="curve" smooth="yes"/>
      <point x="253" y="13"/>
      <point x="289" y="40"/>
      <point x="340" y="101" type="curve"/>
      <point x="340" y="400" type="line"/>
      <point x="365" y="400" type="line"/>
      <point x="365" y="0" type="line"/>
      <point x="344" y="0" type="line"/>
      <point x="340" y="69" type="line"/>
      <point x="339" y="69" type="line"/>
      <point x="298" y="22"/>
      <point x="257" y="-10"/>
      <point x="201" y="-10" type="curve" smooth="yes"/>
      <point x="158" y="-10"/>
      <point x="127" y="0"/>
      <point x="104" y="40" type="curve"/>
      <point x="105" y="-35" type="line"/>
      <point x="105" y="-168" type="line"/>
      <point x="80" y="-168" type="line"/>
    </contour>
  </outline>
</glyph>
<glyph name="paragraph" format="1">
  <advance width="417"/>
  <unicode hex="00B6"/>
  <outline>
    <contour>
      <point x="310" y="553" type="line"/>
      <point x="337" y="553" type="line"/>
      <point x="337" y="-67" type="line"/>
      <point x="310" y="-67" type="line"/>
    </contour>
    <contour>
      <point x="243" y="210" type="line" smooth="yes"/>
      <point x="120" y="210"/>
      <point x="35" y="256"/>
      <point x="35" y="381" type="curve" smooth="yes"/>
      <point x="35" y="505"/>
      <point x="114" y="553"/>
      <point x="228" y="553" type="curve" smooth="yes"/>
      <point x="265" y="553" type="line"/>
      <point x="265" y="210" type="line"/>
    </contour>
  </outline>
</glyph>
<glyph name="questiondown" format="1">
  <advance width="330"/>
  <unicode hex="00BF"/>
  <outline>
    <contour>
      <point x="193" y="256" type="line"/>
      <point x="210" y="114"/>
      <point x="71" y="65"/>
      <point x="71" y="-44" type="curve" smooth="yes"/>
      <point x="71" y="-97"/>
      <point x="101" y="-147"/>
      <point x="171" y="-147" type="curve" smooth="yes"/>
      <point x="214" y="-147"/>
      <point x="254" y="-128"/>
      <point x="283" y="-92" type="curve"/>
      <point x="300" y="-107" type="line"/>
      <point x="268" y="-143"/>
      <point x="226" y="-172"/>
      <point x="170" y="-172" type="curve" smooth="yes"/>
      <point x="88" y="-172"/>
      <point x="44" y="-114"/>
      <point x="44" y="-46" type="curve" smooth="yes"/>
      <point x="44" y="71"/>
      <point x="186" y="124"/>
      <point x="170" y="256" type="curve"/>
    </contour>
    <contour>
      <point x="208" y="379" type="curve" smooth="yes"/>
      <point x="208" y="356"/>
      <point x="194" y="345"/>
      <point x="177" y="345" type="curve" smooth="yes"/>
      <point x="162" y="345"/>
      <point x="147" y="356"/>
      <point x="147" y="379" type="curve" smooth="yes"/>
      <point x="147" y="399"/>
      <point x="162" y="411"/>
      <point x="177" y="411" type="curve" smooth="yes"/>
      <point x="194" y="411"/>
      <point x="208" y="399"/>
    </contour>
  </outline>
</glyph>
<glyph name="AE" format="1">
  <advance width="674"/>
  <unicode hex="00C6"/>
  <outline>
    <contour>
      <point x="347" y="214" type="line"/>
      <point x="347" y="528" type="line"/>
      <point x="344" y="528" type="line"/>
      <point x="307" y="465"/>
      <point x="271" y="398"/>
      <point x="234" y="328" type="curve"/>
      <point x="171" y="214" type="line"/>
    </contour>
    <contour>
      <point x="635" y="24" type="line"/>
      <point x="635" y="0" type="line"/>
      <point x="347" y="0" type="line"/>
      <point x="347" y="189" type="line"/>
      <point x="157" y="189" type="line"/>
      <point x="50" y="0" type="line"/>
      <point x="22" y="0" type="line"/>
      <point x="333" y="553" type="line"/>
      <point x="626" y="553" type="line"/>
      <point x="626" y="530" type="line"/>
      <point x="373" y="530" type="line"/>
      <point x="373" y="307" type="line"/>
      <point x="583" y="307" type="line"/>
      <point x="583" y="283" type="line"/>
      <point x="373" y="283" type="line"/>
      <point x="373" y="24" type="line"/>
    </contour>
    <contour>
      <point x="491" y="582" type="move" name="mark0"/>
    </contour>
  </outline>
</glyph>
<glyph name="Eth" format="1">
  <advance width="519"/>
  <unicode hex="00D0"/>
  <outline>
    <contour>
      <point x="221" y="24" type="line" smooth="yes"/>
      <point x="379" y="24"/>
      <point x="444" y="132"/>
      <point x="444" y="278" type="curve" smooth="yes"/>
      <point x="444" y="422"/>
      <point x="379" y="530"/>
      <point x="221" y="530" type="curve" smooth="yes"/>
      <point x="127" y="530" type="line"/>
      <point x="127" y="306" type="line"/>
      <point x="269" y="306" type="line"/>
      <point x="269" y="281" type="line"/>
      <point x="127" y="281" type="line"/>
      <point x="127" y="24" type="line"/>
    </contour>
    <contour>
      <point x="224" y="553" type="line" smooth="yes"/>
      <point x="396" y="553"/>
      <point x="473" y="442"/>
      <point x="473" y="278" type="curve" smooth="yes"/>
      <point x="473" y="114"/>
      <point x="396" y="0"/>
      <point x="224" y="0" type="curve" smooth="yes"/>
      <point x="101" y="0" type="line"/>
      <point x="101" y="281" type="line"/>
      <point x="31" y="281" type="line"/>
      <point x="31" y="304" type="line"/>
      <point x="101" y="306" type="line"/>
      <point x="101" y="553" type="line"/>
    </contour>
  </outline>
</glyph>
<glyph name="multiply" format="1">
  <advance width="396"/>
  <unicode hex="00D7"/>
  <outline>
    <contour>
      <point x="44" y="134" type="line"/>
      <point x="180" y="276" type="line"/>
      <point x="44" y="418" type="line"/>
      <point x="61" y="437" type="line"/>
      <point x="197" y="293" type="line"/>
      <point x="335" y="437" type="line"/>
      <point x="352" y="418" type="line"/>
      <point x="214" y="276" type="line"/>
      <point x="352" y="134" type="line"/>
      <point x="335" y="116" type="line"/>
      <point x="197" y="260" type="line"/>
      <point x="61" y="116" type="line"/>
    </contour>
  </outline>
</glyph>
<glyph name="Oslash" format="1">
  <advance width="543"/>
  <unicode hex="00D8"/>
  <outline>
    <contour>
      <point x="138" y="79" type="line"/>
      <point x="172" y="38"/>
      <point x="219" y="15"/>
      <point x="274" y="15" type="curve" smooth="yes"/>
      <point x="392" y="15"/>
      <point x="471" y="121"/>
      <point x="471" y="278" type="curve" smooth="yes"/>
      <point x="471" y="356"/>
      <point x="453" y="417"/>
      <point x="421" y="462" type="curve"/>
    </contour>
    <contour>
      <point x="406" y="480" type="line"/>
      <point x="372" y="518"/>
      <point x="328" y="538"/>
      <point x="274" y="538" type="curve" smooth="yes"/>
      <point x="158" y="538"/>
      <point x="79" y="437"/>
      <point x="79" y="278" type="curve" smooth="yes"/>
      <point x="79" y="205"/>
      <point x="95" y="145"/>
      <point x="123" y="99" type="curve"/>
    </contour>
    <contour>
      <point x="437" y="484" type="line"/>
      <point x="476" y="434"/>
      <point x="499" y="365"/>
      <point x="499" y="278" type="curve" smooth="yes"/>
      <point x="499" y="104"/>
      <point x="406" y="-10"/>
      <point x="274" y="-10" type="curve" smooth="yes"/>
      <point x="214" y="-10"/>
      <point x="162" y="14"/>
      <point x="122" y="58" type="curve"/>
      <point x="67" y="-17" type="line"/>
      <point x="48" y="-4" type="line"/>
      <point x="107" y="76" type="line"/>
      <point x="71" y="126"/>
      <point x="50" y="195"/>
      <point x="50" y="278" type="curve" smooth="yes"/>
      <point x="50" y="453"/>
      <point x="144" y="563"/>
      <point x="274" y="563" type="curve" smooth="yes"/>
      <point x="332" y="563"/>
      <point x="382" y="541"/>
      <point x="422" y="502" type="curve"/>
      <point x="473" y="569" type="line"/>
      <point x="491" y="557" type="line"/>
    </contour>
    <contour>
      <point x="269" y="571" type="move" name="mark0"/>
    </contour>
  </outline>
</glyph>
<glyph name="Thorn" format="1">
  <advance width="465"/>
  <unicode hex="00DE"/>
  <outline>
    <contour>
      <point x="83" y="553" type="line"/>
      <point x="111" y="553" type="line"/>
      <point x="111" y="453" type="line"/>
      <point x="228" y="453" type="line" smooth="yes"/>
      <point x="352" y="453"/>
      <point x="422" y="413"/>
      <point x="422" y="302" type="curve" smooth="yes"/>
      <point x="422" y="195"/>
      <point x="353" y="144"/>
      <point x="228" y="144" type="curve" smooth="yes"/>
      <point x="111" y="144" type="line"/>
      <point x="111" y="0" type="line"/>
      <point x="83" y="0" type="line"/>
    </contour>
    <contour>
      <point x="218" y="168" type="line" smooth="yes"/>
      <point x="338" y="168"/>
      <point x="394" y="205"/>
      <point x="394" y="302" type="curve" smooth="yes"/>
      <point x="394" y="399"/>
      <point x="336" y="429"/>
      <point x="218" y="429" type="curve" smooth="yes"/>
      <point x="111" y="429" type="line"/>
      <point x="111" y="168" type="line"/>
    </contour>
  </outline>
</glyph>
<glyph name="germandbls" format="1">
  <advance width="444"/>
  <unicode hex="00DF"/>
  <outline>
    <contour>
      <point x="80" y="451" type="line" smooth="yes"/>
      <point x="80" y="554"/>
      <point x="136" y="613"/>
      <point x="216" y="613" type="curve" smooth="yes"/>
      <point x="283" y="613"/>
      <point x="325" y="566"/>
      <point x="325" y="505" type="curve" smooth="yes"/>
      <point x="325" y="418"/>
      <point x="239" y="386"/>
      <point x="239" y="317" type="curve" smooth="yes"/>
      <point x="239" y="215"/>
      <point x="418" y="246"/>
      <point x="418" y="104" type="curve" smooth="yes"/>
      <point x="418" y="39"/>
      <point x="368" y="-10"/>
      <point x="302" y="-10" type="curve" smooth="yes"/>
      <point x="258" y="-10"/>
      <point x="220" y="7"/>
      <point x="189" y="33" type="curve"/>
      <point x="205" y="54" type="line"/>
      <point x="237" y="27"/>
      <point x="265" y="13"/>
      <point x="302" y="13" type="curve" smooth="yes"/>
      <point x="362" y="13"/>
      <point x="392" y="58"/>
      <point x="392" y="102" type="curve" smooth="yes"/>
      <point x="392" y="226"/>
      <point x="214" y="193"/>
      <point x="214" y="315" type="curve" smooth="yes"/>
      <point x="214" y="399"/>
      <point x="298" y="425"/>
      <point x="298" y="503" type="curve" smooth="yes"/>
      <point x="298" y="553"/>
      <point x="270" y="590"/>
      <point x="214" y="590" type="curve" smooth="yes"/>
      <point x="148" y="590"/>
      <point x="105" y="543"/>
      <point x="105" y="439" type="curve" smooth="yes"/>
      <point x="105" y="0" type="line"/>
      <point x="80" y="0" type="line"/>
    </contour>
  </outline>
</glyph>
<glyph name="ae" format="1">
  <advance width="658"/>
  <unicode hex="00E6"/>
  <outline>
    <contour>
      <point x="83" y="99" type="curve" smooth="yes"/>
      <point x="83" y="36"/>
      <point x="124" y="13"/>
      <point x="174" y="13" type="curve" smooth="yes"/>
      <point x="220" y="13"/>
      <point x="284" y="44"/>
      <point x="333" y="97" type="curve"/>
      <point x="321" y="122"/>
      <point x="315" y="164"/>
      <point x="315" y="205" type="curve" smooth="yes"/>
      <point x="315" y="228" type="line"/>
      <point x="147" y="208"/>
      <point x="83" y="169"/>
    </contour>
    <contour>
      <point x="77" y="359" type="line"/>
      <point x="102" y="377"/>
      <point x="157" y="411"/>
      <point x="218" y="411" type="curve" smooth="yes"/>
      <point x="285" y="411"/>
      <point x="322" y="368"/>
      <point x="335" y="306" type="curve"/>
      <point x="364" y="368"/>
      <point x="417" y="411"/>
      <point x="477" y="411" type="curve" smooth="yes"/>
      <point x="570" y="411"/>
      <point x="624" y="346"/>
      <point x="624" y="226" type="curve" smooth="yes"/>
      <point x="624" y="217"/>
      <point x="625" y="210"/>
      <point x="623" y="199" type="curve"/>
      <point x="340" y="199" type="line"/>
      <point x="338" y="92"/>
      <point x="405" y="13"/>
      <point x="490" y="13" type="curve" smooth="yes"/>
      <point x="535" y="13"/>
      <point x="566" y="27"/>
      <point x="597" y="50" type="curve"/>
      <point x="608" y="28" type="line"/>
      <point x="576" y="10"/>
      <point x="549" y="-10"/>
      <point x="488" y="-10" type="curve" smooth="yes"/>
      <point x="415" y="-10"/>
      <point x="372" y="33"/>
      <point x="344" y="75" type="curve"/>
      <point x="291" y="24"/>
      <point x="221" y="-10"/>
      <point x="172" y="-10" type="curve" smooth="yes"/>
      <point x="110" y="-10"/>
      <point x="57" y="22"/>
      <point x="57" y="97" type="curve" smooth="yes"/>
      <point x="57" y="188"/>
      <point x="140" y="230"/>
      <point x="315" y="250" type="curve"/>
      <point x="318" y="315"/>
      <point x="299" y="387"/>
      <point x="216" y="387" type="curve" smooth="yes"/>
      <point x="164" y="387"/>
      <point x="115" y="359"/>
      <point x="90" y="339" type="curve"/>
    </contour>
    <contour>
      <point x="600" y="221" type="line"/>
      <point x="600" y="332"/>
      <point x="554" y="387"/>
      <point x="477" y="387" type="curve" smooth="yes"/>
      <point x="406" y="387"/>
      <point x="349" y="318"/>
      <point x="340" y="221" type="curve"/>
    </contour>
  </outline>
</glyph>
<glyph name="eth" format="1">
  <advance width="446"/>
  <unicode hex="00F0"/>
  <outline>
    <contour>
      <point x="222" y="13" type="curve" smooth="yes"/>
      <point x="320" y="13"/>
      <point x="363" y="102"/>
      <point x="363" y="210" type="curve" smooth="yes"/>
      <point x="363" y="229"/>
      <point x="362" y="247"/>
      <point x="360" y="264" type="curve"/>
      <point x="315" y="330"/>
      <point x="268" y="345"/>
      <point x="224" y="345" type="curve" smooth="yes"/>
      <point x="128" y="345"/>
      <point x="79" y="268"/>
      <point x="79" y="182" type="curve" smooth="yes"/>
      <point x="79" y="84"/>
      <point x="144" y="13"/>
    </contour>
    <contour>
      <point x="275" y="509" type="line"/>
      <point x="343" y="440"/>
      <point x="389" y="347"/>
      <point x="389" y="210" type="curve" smooth="yes"/>
      <point x="389" y="75"/>
      <point x="320" y="-10"/>
      <point x="222" y="-10" type="curve" smooth="yes"/>
      <point x="135" y="-10"/>
      <point x="52" y="63"/>
      <point x="52" y="182" type="curve" smooth="yes"/>
      <point x="52" y="291"/>
      <point x="121" y="368"/>
      <point x="226" y="368" type="curve" smooth="yes"/>
      <point x="277" y="368"/>
      <point x="320" y="347"/>
      <point x="355" y="303" type="curve"/>
      <point x="339" y="389"/>
      <point x="304" y="450"/>
      <point x="254" y="498" type="curve"/>
      <point x="136" y="436" type="line"/>
      <point x="125" y="455" type="line"/>
      <point x="237" y="513" type="line"/>
      <point x="205" y="542"/>
      <point x="169" y="564"/>
      <point x="130" y="586" type="curve"/>
      <point x="144" y="605" type="line"/>
      <point x="185" y="582"/>
      <point x="223" y="557"/>
      <point x="260" y="524" type="curve"/>
      <point x="379" y="586" type="line"/>
      <point x="389" y="567" type="line"/>
    </contour>
  </outline>
</glyph>
<glyph name="divide" format="1">
  <advance width="396"/>
  <unicode hex="00F7"/>
  <outline>
    <contour>
      <point x="197" y="398" type="curve" smooth="yes"/>
      <point x="181" y="398"/>
      <point x="171" y="408"/>
      <point x="171" y="427" type="curve" smooth="yes"/>
      <point x="171" y="444"/>
      <point x="181" y="456"/>
      <point x="197" y="456" type="curve" smooth="yes"/>
      <point x="214" y="456"/>
      <point x="224" y="444"/>
      <point x="224" y="427" type="curve" smooth="yes"/>
      <point x="224" y="408"/>
      <point x="214" y="398"/>
    </contour>
    <contour>
      <point x="171" y="125" type="curve" smooth="yes"/>
      <point x="171" y="142"/>
      <point x="181" y="155"/>
      <point x="197" y="155" type="curve" smooth="yes"/>
      <point x="214" y="155"/>
      <point x="224" y="142"/>
      <point x="224" y="125" type="curve" smooth="yes"/>
      <point x="224" y="106"/>
      <point x="214" y="96"/>
      <point x="197" y="96" type="curve" smooth="yes"/>
      <point x="181" y="96"/>
      <point x="171" y="106"/>
    </contour>
    <contour>
      <point x="28" y="288" type="line"/>
      <point x="367" y="288" type="line"/>
      <point x="367" y="265" type="line"/>
      <point x="28" y="265" type="line"/>
    </contour>
  </outline>
</glyph>
<glyph name="oslash" format="1">
  <advance width="446"/>
  <unicode hex="00F8"/>
  <outline>
    <contour>
      <point x="121" y="59" type="line"/>
      <point x="147" y="28"/>
      <point x="182" y="13"/>
      <point x="222" y="13" type="curve" smooth="yes"/>
      <point x="307" y="13"/>
      <point x="373" y="88"/>
      <point x="373" y="199" type="curve" smooth="yes"/>
      <point x="373" y="249"/>
      <point x="362" y="288"/>
      <point x="340" y="322" type="curve"/>
    </contour>
    <contour>
      <point x="325" y="341" type="line"/>
      <point x="298" y="370"/>
      <point x="264" y="387"/>
      <point x="222" y="387" type="curve" smooth="yes"/>
      <point x="138" y="387"/>
      <point x="72" y="310"/>
      <point x="72" y="199" type="curve" smooth="yes"/>
      <point x="72" y="150"/>
      <point x="84" y="109"/>
      <point x="105" y="78" type="curve"/>
    </contour>
    <contour>
      <point x="358" y="343" type="line"/>
      <point x="384" y="307"/>
      <point x="400" y="260"/>
      <point x="400" y="199" type="curve" smooth="yes"/>
      <point x="400" y="68"/>
      <point x="319" y="-10"/>
      <point x="222" y="-10" type="curve" smooth="yes"/>
      <point x="178" y="-10"/>
      <point x="138" y="6"/>
      <point x="104" y="38" type="curve"/>
      <point x="57" y="-19" type="line"/>
      <point x="38" y="-4" type="line"/>
      <point x="88" y="57" type="line"/>
      <point x="63" y="93"/>
      <point x="46" y="139"/>
      <point x="46" y="199" type="curve" smooth="yes"/>
      <point x="46" y="333"/>
      <point x="126" y="411"/>
      <point x="222" y="411" type="curve" smooth="yes"/>
      <point x="269" y="411"/>
      <point x="309" y="394"/>
      <point x="342" y="362" type="curve"/>
      <point x="389" y="417" type="line"/>
      <point x="407" y="402" type="line"/>
    </contour>
    <contour>
      <point x="222" y="418" type="move" name="mark0"/>
    </contour>
  </outline>
</glyph>
<glyph name="Aogonek" format="1">
  <advance width="436"/>
  <unicode hex="0104"/>
  <outline>
    <contour>
      <point x="322" y="221" type="line"/>
      <point x="283" y="331" type="line" smooth="yes"/>
      <point x="260" y="399"/>
      <point x="239" y="456"/>
      <point x="220" y="524" type="curve"/>
      <point x="216" y="524" type="line"/>
      <point x="196" y="456"/>
      <point x="176" y="399"/>
      <point x="153" y="331" type="curve" smooth="yes"/>
      <point x="113" y="221" type="line"/>
    </contour>
    <contour>
      <point x="459" y="-151" type="line"/>
      <point x="447" y="-161"/>
      <point x="425" y="-170"/>
      <point x="409" y="-170" type="curve" smooth="yes"/>
      <point x="372" y="-170"/>
      <point x="342" y="-148"/>
      <point x="342" y="-103" type="curve" smooth="yes"/>
      <point x="342" y="-63"/>
      <point x="370" y="-23"/>
      <point x="400" y="0" type="curve"/>
      <point x="399" y="0" type="line"/>
      <point x="330" y="197" type="line"/>
      <point x="104" y="197" type="line"/>
      <point x="35" y="0" type="line"/>
      <point x="9" y="0" type="line"/>
      <point x="206" y="553" type="line"/>
      <point x="230" y="553" type="line"/>
      <point x="427" y="0" type="line"/>
      <point x="394" y="-26"/>
      <point x="367" y="-65"/>
      <point x="367" y="-101" type="curve" smooth="yes"/>
      <point x="367" y="-130"/>
      <point x="388" y="-146"/>
      <point x="411" y="-146" type="curve" smooth="yes"/>
      <point x="426" y="-146"/>
      <point x="435" y="-143"/>
      <point x="448" y="-134" type="curve"/>
    </contour>
    <contour>
      <point x="218" y="571" type="move" name="mark0"/>
    </contour>
  </outline>
</glyph>
<glyph name="aogonek" format="1">
  <advance width="415"/>
  <unicode hex="0105"/>
  <outline>
    <contour>
      <point x="83" y="99" type="curve" smooth="yes"/>
      <point x="83" y="36"/>
      <point x="124" y="13"/>
      <point x="174" y="13" type="curve" smooth="yes"/>
      <point x="223" y="13"/>
      <point x="267" y="36"/>
      <point x="320" y="82" type="curve"/>
      <point x="320" y="228" type="line"/>
      <point x="143" y="208"/>
      <point x="83" y="169"/>
    </contour>
    <contour>
      <point x="57" y="97" type="curve" smooth="yes"/>
      <point x="57" y="188"/>
      <point x="139" y="230"/>
      <point x="320" y="250" type="curve"/>
      <point x="322" y="315"/>
      <point x="305" y="387"/>
      <point x="221" y="387" type="curve" smooth="yes"/>
      <point x="164" y="387"/>
      <point x="116" y="359"/>
      <point x="90" y="339" type="curve"/>
      <point x="77" y="359" type="line"/>
      <point x="102" y="377"/>
      <point x="157" y="411"/>
      <point x="222" y="411" type="curve" smooth="yes"/>
      <point x="317" y="411"/>
      <point x="345" y="340"/>
      <point x="345" y="260" type="curve" smooth="yes"/>
      <point x="345" y="0" type="line"/>
      <point x="306" y="-23"/>
      <point x="272" y="-64"/>
      <point x="272" y="-101" type="curve" smooth="yes"/>
      <point x="272" y="-130"/>
      <point x="292" y="-146"/>
      <point x="315" y="-146" type="curve" smooth="yes"/>
      <point x="330" y="-146"/>
      <point x="339" y="-143"/>
      <point x="352" y="-134" type="curve"/>
      <point x="364" y="-151" type="line"/>
      <point x="351" y="-161"/>
      <point x="330" y="-170"/>
      <point x="314" y="-170" type="curve" smooth="yes"/>
      <point x="276" y="-170"/>
      <point x="248" y="-148"/>
      <point x="248" y="-103" type="curve" smooth="yes"/>
      <point x="248" y="-60"/>
      <point x="280" y="-20"/>
      <point x="323" y="7" type="curve"/>
      <point x="320" y="54" type="line"/>
      <point x="318" y="54" type="line"/>
      <point x="275" y="21"/>
      <point x="226" y="-10"/>
      <point x="172" y="-10" type="curve" smooth="yes"/>
      <point x="110" y="-10"/>
      <point x="57" y="22"/>
    </contour>
    <contour>
      <point x="218" y="418" type="move" name="mark0"/>
    </contour>
  </outline>
</glyph>
<glyph name="dslash" format="1">
  <advance width="453"/>
  <unicode hex="0111"/>
  <outline>
    <contour>
      <point x="347" y="315" type="line"/>
      <point x="301" y="356"/>
      <point x="266" y="370"/>
      <point x="222" y="370" type="curve" smooth="yes"/>
      <point x="138" y="370"/>
      <point x="72" y="288"/>
      <point x="72" y="191" type="curve" smooth="yes"/>
      <point x="72" y="86"/>
      <point x="122" y="13"/>
      <point x="214" y="13" type="curve" smooth="yes"/>
      <point x="260" y="13"/>
      <point x="301" y="37"/>
      <point x="347" y="83" type="curve"/>
    </contour>
    <contour>
      <point x="436" y="513" type="line"/>
      <point x="436" y="493" type="line"/>
      <point x="372" y="490" type="line"/>
      <point x="372" y="0" type="line"/>
      <point x="350" y="0" type="line"/>
      <point x="347" y="54" type="line"/>
      <point x="345" y="54" type="line"/>
      <point x="312" y="21"/>
      <point x="268" y="-10"/>
      <point x="212" y="-10" type="curve" smooth="yes"/>
      <point x="111" y="-10"/>
      <point x="46" y="61"/>
      <point x="46" y="191" type="curve" smooth="yes"/>
      <point x="46" y="315"/>
      <point x="127" y="394"/>
      <point x="224" y="394" type="curve" smooth="yes"/>
      <point x="273" y="394"/>
      <point x="306" y="376"/>
      <point x="348" y="344" type="curve"/>
      <point x="347" y="418" type="line"/>
      <point x="347" y="490" type="line"/>
      <point x="203" y="490" type="line"/>
      <point x="203" y="513" type="line"/>
      <point x="347" y="513" type="line"/>
      <point x="347" y="605" type="line"/>
      <point x="372" y="605" type="line"/>
      <point x="372" y="513" type="line"/>
    </contour>
  </outline>
</glyph>
<glyph name="Eogonek" format="1">
  <advance width="427"/>
  <unicode hex="0118"/>
  <outline>
    <contour>
      <point x="83" y="553" type="line"/>
      <point x="381" y="553" type="line"/>
      <point x="381" y="530" type="line"/>
      <point x="111" y="530" type="line"/>
      <point x="111" y="307" type="line"/>
      <point x="337" y="307" type="line"/>
      <point x="337" y="283" type="line"/>
      <point x="111" y="283" type="line"/>
      <point x="111" y="24" type="line"/>
      <point x="389" y="24" type="line"/>
      <point x="389" y="0" type="line"/>
      <point x="387" y="0" type="line" smooth="yes"/>
      <point x="349" y="-10"/>
      <point x="307" y="-49"/>
      <point x="307" y="-101" type="curve" smooth="yes"/>
      <point x="307" y="-130"/>
      <point x="327" y="-146"/>
      <point x="350" y="-146" type="curve" smooth="yes"/>
      <point x="366" y="-146"/>
      <point x="374" y="-143"/>
      <point x="387" y="-134" type="curve"/>
      <point x="399" y="-151" type="line"/>
      <point x="386" y="-161"/>
      <point x="365" y="-170"/>
      <point x="348" y="-170" type="curve" smooth="yes"/>
      <point x="312" y="-170"/>
      <point x="281" y="-148"/>
      <point x="281" y="-103" type="curve" smooth="yes"/>
      <point x="281" y="-60"/>
      <point x="308" y="-23"/>
      <point x="342" y="0" type="curve"/>
      <point x="83" y="0" type="line"/>
    </contour>
    <contour>
      <point x="236" y="571" type="move" name="mark0"/>
    </contour>
  </outline>
</glyph>
<glyph name="eogonek" format="1">
  <advance width="400"/>
  <unicode hex="0119"/>
  <outline>
    <contour>
      <point x="46" y="199" type="curve" smooth="yes"/>
      <point x="46" y="330"/>
      <point x="129" y="411"/>
      <point x="218" y="411" type="curve" smooth="yes"/>
      <point x="311" y="411"/>
      <point x="368" y="346"/>
      <point x="368" y="226" type="curve" smooth="yes"/>
      <point x="368" y="216"/>
      <point x="369" y="210"/>
      <point x="367" y="199" type="curve"/>
      <point x="72" y="199" type="line"/>
      <point x="72" y="92"/>
      <point x="134" y="13"/>
      <point x="230" y="13" type="curve" smooth="yes"/>
      <point x="275" y="13"/>
      <point x="310" y="27"/>
      <point x="340" y="50" type="curve"/>
      <point x="352" y="28" type="line"/>
      <point x="279" y="-25"/>
      <point x="256" y="-64"/>
      <point x="256" y="-101" type="curve" smooth="yes"/>
      <point x="256" y="-130"/>
      <point x="275" y="-146"/>
      <point x="298" y="-146" type="curve" smooth="yes"/>
      <point x="314" y="-146"/>
      <point x="322" y="-143"/>
      <point x="335" y="-134" type="curve"/>
      <point x="347" y="-151" type="line"/>
      <point x="334" y="-161"/>
      <point x="314" y="-170"/>
      <point x="297" y="-170" type="curve" smooth="yes"/>
      <point x="260" y="-170"/>
      <point x="231" y="-148"/>
      <point x="231" y="-103" type="curve" smooth="yes"/>
      <point x="231" y="-62"/>
      <point x="261" y="-22"/>
      <point x="285" y="-2" type="curve"/>
      <point x="266" y="-9"/>
      <point x="248" y="-10"/>
      <point x="228" y="-10" type="curve" smooth="yes"/>
      <point x="127" y="-10"/>
      <point x="46" y="69"/>
    </contour>
    <contour>
      <point x="344" y="221" type="line"/>
      <point x="344" y="332"/>
      <point x="295" y="387"/>
      <point x="218" y="387" type="curve" smooth="yes"/>
      <point x="146" y="387"/>
      <point x="81" y="323"/>
      <point x="72" y="221" type="curve"/>
    </contour>
    <contour>
      <point x="218" y="418" type="move" name="mark0"/>
    </contour>
  </outline>
</glyph>
<glyph name="Hbar" format="1">
  <advance width="558"/>
  <unicode hex="0126"/>
  <outline>
    <contour>
      <point x="437" y="416" type="line"/>
      <point x="127" y="416" type="line"/>
      <point x="127" y="307" type="line"/>
      <point x="437" y="307" type="line"/>
    </contour>
    <contour>
      <point x="526" y="416" type="line"/>
      <point x="465" y="416" type="line"/>
      <point x="465" y="0" type="line"/>
      <point x="437" y="0" type="line"/>
      <point x="437" y="283" type="line"/>
      <point x="127" y="283" type="line"/>
      <point x="127" y="0" type="line"/>
      <point x="101" y="0" type="line"/>
      <point x="101" y="416" type="line"/>
      <point x="31" y="416" type="line"/>
      <point x="31" y="436" type="line"/>
      <point x="101" y="439" type="line"/>
      <point x="101" y="553" type="line"/>
      <point x="127" y="553" type="line"/>
      <point x="127" y="439" type="line"/>
      <point x="437" y="439" type="line"/>
      <point x="437" y="553" type="line"/>
      <point x="465" y="553" type="line"/>
      <point x="465" y="439" type="line"/>
      <point x="526" y="439" type="line"/>
    </contour>
  </outline>
</glyph>
<glyph name="hbar" format="1">
  <advance width="437"/>
  <unicode hex="0127"/>
  <outline>
    <contour>
      <point x="105" y="318" type="line"/>
      <point x="149" y="363"/>
      <point x="190" y="394"/>
      <point x="247" y="394" type="curve" smooth="yes"/>
      <point x="329" y="394"/>
      <point x="367" y="346"/>
      <point x="367" y="241" type="curve" smooth="yes"/>
      <point x="367" y="0" type="line"/>
      <point x="342" y="0" type="line"/>
      <point x="342" y="238" type="line" smooth="yes"/>
      <point x="342" y="327"/>
      <point x="314" y="370"/>
      <point x="245" y="370" type="curve" smooth="yes"/>
      <point x="195" y="370"/>
      <point x="157" y="344"/>
      <point x="105" y="289" type="curve"/>
      <point x="105" y="0" type="line"/>
      <point x="80" y="0" type="line"/>
      <point x="80" y="490" type="line"/>
      <point x="15" y="490" type="line"/>
      <point x="15" y="510" type="line"/>
      <point x="80" y="513" type="line"/>
      <point x="80" y="605" type="line"/>
      <point x="105" y="605" type="line"/>
      <point x="105" y="513" type="line"/>
      <point x="267" y="513" type="line"/>
      <point x="267" y="490" type="line"/>
      <point x="105" y="490" type="line"/>
      <point x="105" y="409" type="line"/>
    </contour>
  </outline>
</glyph>
<glyph name="Iogonek" format="1">
  <advance width="195"/>
  <unicode hex="012E"/>
  <outline>
    <contour>
      <point x="83" y="553" type="line"/>
      <point x="111" y="553" type="line"/>
      <point x="111" y="0" type="line"/>
      <point x="83" y="-33"/>
      <point x="63" y="-62"/>
      <point x="63" y="-101" type="curve" smooth="yes"/>
      <point x="63" y="-130"/>
      <point x="83" y="-146"/>
      <point x="105" y="-146" type="curve" smooth="yes"/>
      <point x="121" y="-146"/>
      <point x="129" y="-143"/>
      <point x="142" y="-134" type="curve"/>
      <point x="155" y="-151" type="line"/>
      <point x="141" y="-161"/>
      <point x="121" y="-170"/>
      <point x="104" y="-170" type="curve" smooth="yes"/>
      <point x="67" y="-170"/>
      <point x="37" y="-148"/>
      <point x="37" y="-103" type="curve" smooth="yes"/>
      <point x="37" y="-59"/>
      <point x="58" y="-29"/>
      <point x="87" y="0" type="curve"/>
      <point x="83" y="0" type="line"/>
    </contour>
    <contour>
      <point x="97" y="571" type="move" name="mark0"/>
    </contour>
  </outline>
</glyph>
<glyph name="iogonek" format="1">
  <advance width="186"/>
  <unicode hex="012F"/>
  <outline>
    <contour>
      <point x="80" y="400" type="line"/>
      <point x="105" y="400" type="line"/>
      <point x="105" y="0" type="line"/>
      <point x="79" y="-29"/>
      <point x="55" y="-64"/>
      <point x="55" y="-101" type="curve" smooth="yes"/>
      <point x="55" y="-130"/>
      <point x="74" y="-146"/>
      <point x="97" y="-146" type="curve" smooth="yes"/>
      <point x="113" y="-146"/>
      <point x="121" y="-143"/>
      <point x="134" y="-134" type="curve"/>
      <point x="146" y="-151" type="line"/>
      <point x="133" y="-161"/>
      <point x="113" y="-170"/>
      <point x="96" y="-170" type="curve" smooth="yes"/>
      <point x="59" y="-170"/>
      <point x="29" y="-148"/>
      <point x="29" y="-103" type="curve" smooth="yes"/>
      <point x="29" y="-60"/>
      <point x="56" y="-29"/>
      <point x="82" y="0" type="curve"/>
      <point x="80" y="0" type="line"/>
    </contour>
    <contour>
      <point x="92" y="503" type="curve" smooth="yes"/>
      <point x="76" y="503"/>
      <point x="64" y="514"/>
      <point x="64" y="531" type="curve" smooth="yes"/>
      <point x="64" y="550"/>
      <point x="76" y="560"/>
      <point x="92" y="560" type="curve" smooth="yes"/>
      <point x="108" y="560"/>
      <point x="121" y="550"/>
      <point x="121" y="531" type="curve" smooth="yes"/>
      <point x="121" y="514"/>
      <point x="108" y="503"/>
    </contour>
  </outline>
</glyph>
<glyph name="dotlessi" format="1">
  <advance width="186"/>
  <unicode hex="0131"/>
  <outline>
    <contour>
      <point x="80" y="400" type="line"/>
      <point x="105" y="400" type="line"/>
      <point x="105" y="0" type="line"/>
      <point x="80" y="0" type="line"/>
    </contour>
    <contour>
      <point x="94" y="418" type="move" name="mark0"/>
    </contour>
    <contour>
      <point x="92" y="-19" type="move" name="mark0"/>
    </contour>
    <contour>
      <point x="109" y="0" type="move" name="mark0"/>
    </contour>
  </outline>
</glyph>
<glyph name="kgreenlandic" format="1">
  <advance width="379"/>
  <unicode hex="0138"/>
  <outline>
    <contour>
      <point x="80" y="400" type="line"/>
      <point x="105" y="400" type="line"/>
      <point x="105" y="146" type="line"/>
      <point x="107" y="146" type="line"/>
      <point x="315" y="400" type="line"/>
      <point x="345" y="400" type="line"/>
      <point x="216" y="243" type="line"/>
      <point x="368" y="0" type="line"/>
      <point x="340" y="0" type="line"/>
      <point x="201" y="222" type="line"/>
      <point x="105" y="111" type="line"/>
      <point x="105" y="0" type="line"/>
      <point x="80" y="0" type="line"/>
    </contour>
  </outline>
</glyph>
<glyph name="Lslash" format="1">
  <advance width="385"/>
  <unicode hex="0141"/>
  <outline>
    <contour>
      <point x="373" y="24" type="line"/>
      <point x="373" y="0" type="line"/>
      <point x="87" y="0" type="line"/>
      <point x="87" y="221" type="line"/>
      <point x="12" y="180" type="line"/>
      <point x="12" y="206" type="line"/>
      <point x="87" y="247" type="line"/>
      <point x="87" y="553" type="line"/>
      <point x="114" y="553" type="line"/>
      <point x="114" y="258" type="line"/>
      <point x="278" y="344" type="line"/>
      <point x="278" y="318" type="line"/>
      <point x="114" y="232" type="line"/>
      <point x="114" y="24" type="line"/>
    </contour>
  </outline>
</glyph>
<glyph name="lslash" format="1">
  <advance width="193"/>
  <unicode hex="0142"/>
  <outline>
    <contour>
      <point x="105" y="330" type="line"/>
      <point x="105" y="38" type="line" smooth="yes"/>
      <point x="105" y="22"/>
      <point x="112" y="13"/>
      <point x="122" y="13" type="curve" smooth="yes"/>
      <point x="125" y="13"/>
      <point x="128" y="12"/>
      <point x="138" y="15" type="curve"/>
      <point x="142" y="-7" type="line"/>
      <point x="136" y="-10"/>
      <point x="130" y="-10"/>
      <point x="121" y="-10" type="curve" smooth="yes"/>
      <point x="95" y="-10"/>
      <point x="80" y="4"/>
      <point x="80" y="44" type="curve" smooth="yes"/>
      <point x="80" y="315" type="line"/>
      <point x="25" y="278" type="line"/>
      <point x="25" y="306" type="line"/>
      <point x="80" y="342" type="line"/>
      <point x="80" y="605" type="line"/>
      <point x="105" y="605" type="line"/>
      <point x="105" y="357" type="line"/>
      <point x="168" y="399" type="line"/>
      <point x="168" y="372" type="line"/>
    </contour>
  </outline>
</glyph>
<glyph name="OE" format="1">
  <advance width="694"/>
  <unicode hex="0152"/>
  <outline>
    <contour>
      <point x="46" y="278" type="curve" smooth="yes"/>
      <point x="46" y="442"/>
      <point x="130" y="553"/>
      <point x="307" y="553" type="curve" smooth="yes"/>
      <point x="647" y="553" type="line"/>
      <point x="647" y="530" type="line"/>
      <point x="394" y="530" type="line"/>
      <point x="394" y="307" type="line"/>
      <point x="604" y="307" type="line"/>
      <point x="604" y="283" type="line"/>
      <point x="394" y="283" type="line"/>
      <point x="394" y="24" type="line"/>
      <point x="656" y="24" type="line"/>
      <point x="656" y="0" type="line"/>
      <point x="307" y="0" type="line" smooth="yes"/>
      <point x="130" y="0"/>
      <point x="46" y="114"/>
    </contour>
    <contour>
      <point x="75" y="278" type="curve" smooth="yes"/>
      <point x="75" y="132"/>
      <point x="147" y="24"/>
      <point x="310" y="24" type="curve" smooth="yes"/>
      <point x="367" y="24" type="line"/>
      <point x="367" y="530" type="line"/>
      <point x="310" y="530" type="line" smooth="yes"/>
      <point x="147" y="530"/>
      <point x="75" y="422"/>
    </contour>
    <contour>
      <point x="448" y="571" type="move" name="mark0"/>
    </contour>
  </outline>
</glyph>
<glyph name="oe" format="1">
  <advance width="714"/>
  <unicode hex="0153"/>
  <outline>
    <contour>
      <point x="72" y="199" type="curve" smooth="yes"/>
      <point x="72" y="88"/>
      <point x="136" y="13"/>
      <point x="220" y="13" type="curve" smooth="yes"/>
      <point x="306" y="13"/>
      <point x="367" y="88"/>
      <point x="367" y="199" type="curve" smooth="yes"/>
      <point x="367" y="310"/>
      <point x="306" y="387"/>
      <point x="220" y="387" type="curve" smooth="yes"/>
      <point x="136" y="387"/>
      <point x="72" y="310"/>
    </contour>
    <contour>
      <point x="46" y="199" type="curve" smooth="yes"/>
      <point x="46" y="333"/>
      <point x="127" y="411"/>
      <point x="220" y="411" type="curve" smooth="yes"/>
      <point x="286" y="411"/>
      <point x="349" y="368"/>
      <point x="379" y="285" type="curve"/>
      <point x="408" y="363"/>
      <point x="465" y="411"/>
      <point x="531" y="411" type="curve" smooth="yes"/>
      <point x="623" y="411"/>
      <point x="682" y="346"/>
      <point x="682" y="226" type="curve" smooth="yes"/>
      <point x="682" y="217"/>
      <point x="682" y="210"/>
      <point x="680" y="199" type="curve"/>
      <point x="392" y="199" type="line"/>
      <point x="389" y="92"/>
      <point x="457" y="13"/>
      <point x="543" y="13" type="curve" smooth="yes"/>
      <point x="589" y="13"/>
      <point x="623" y="27"/>
      <point x="654" y="50" type="curve"/>
      <point x="665" y="28" type="line"/>
      <point x="635" y="9"/>
      <point x="602" y="-10"/>
      <point x="541" y="-10" type="curve" smooth="yes"/>
      <point x="467" y="-10"/>
      <point x="408" y="37"/>
      <point x="379" y="114" type="curve"/>
      <point x="348" y="30"/>
      <point x="292" y="-10"/>
      <point x="220" y="-10" type="curve" smooth="yes"/>
      <point x="127" y="-10"/>
      <point x="46" y="68"/>
    </contour>
    <contour>
      <point x="658" y="221" type="line"/>
      <point x="658" y="332"/>
      <point x="607" y="387"/>
      <point x="531" y="387" type="curve" smooth="yes"/>
      <point x="461" y="387"/>
      <point x="401" y="318"/>
      <point x="392" y="221" type="curve"/>
    </contour>
    <contour>
      <point x="379" y="418" type="move" name="mark0"/>
    </contour>
  </outline>
</glyph>
<glyph name="Uogonek" format="1">
  <advance width="528"/>
  <unicode hex="0172"/>
  <outline>
    <contour>
      <point x="82" y="553" type="line"/>
      <point x="109" y="553" type="line"/>
      <point x="109" y="214" type="line" smooth="yes"/>
      <point x="109" y="62"/>
      <point x="181" y="15"/>
      <point x="264" y="15" type="curve" smooth="yes"/>
      <point x="346" y="15"/>
      <point x="420" y="62"/>
      <point x="420" y="214" type="curve" smooth="yes"/>
      <point x="420" y="553" type="line"/>
      <point x="446" y="553" type="line"/>
      <point x="446" y="206" type="line" smooth="yes"/>
      <point x="446" y="64"/>
      <point x="381" y="25"/>
      <point x="318" y="-7" type="curve" smooth="yes"/>
      <point x="271" y="-29"/>
      <point x="247" y="-71"/>
      <point x="247" y="-101" type="curve" smooth="yes"/>
      <point x="247" y="-130"/>
      <point x="268" y="-146"/>
      <point x="289" y="-146" type="curve" smooth="yes"/>
      <point x="306" y="-146"/>
      <point x="314" y="-143"/>
      <point x="326" y="-134" type="curve"/>
      <point x="339" y="-151" type="line"/>
      <point x="325" y="-161"/>
      <point x="306" y="-170"/>
      <point x="288" y="-170" type="curve" smooth="yes"/>
      <point x="251" y="-170"/>
      <point x="221" y="-148"/>
      <point x="221" y="-103" type="curve" smooth="yes"/>
      <point x="221" y="-62"/>
      <point x="248" y="-37"/>
      <point x="274" y="-10" type="curve"/>
      <point x="170" y="-13"/>
      <point x="82" y="38"/>
      <point x="82" y="206" type="curve" smooth="yes"/>
    </contour>
    <contour>
      <point x="264" y="571" type="move" name="mark0"/>
    </contour>
  </outline>
</glyph>
<glyph name="uogonek" format="1">
  <advance width="439"/>
  <unicode hex="0173"/>
  <outline>
    <contour>
      <point x="73" y="400" type="line"/>
      <point x="99" y="400" type="line"/>
      <point x="99" y="146" type="line" smooth="yes"/>
      <point x="99" y="56"/>
      <point x="125" y="13"/>
      <point x="196" y="13" type="curve" smooth="yes"/>
      <point x="247" y="13"/>
      <point x="283" y="40"/>
      <point x="333" y="101" type="curve"/>
      <point x="333" y="400" type="line"/>
      <point x="359" y="400" type="line"/>
      <point x="359" y="0" type="line"/>
      <point x="313" y="-29"/>
      <point x="287" y="-64"/>
      <point x="287" y="-101" type="curve" smooth="yes"/>
      <point x="287" y="-130"/>
      <point x="306" y="-146"/>
      <point x="328" y="-146" type="curve" smooth="yes"/>
      <point x="344" y="-146"/>
      <point x="353" y="-143"/>
      <point x="365" y="-134" type="curve"/>
      <point x="377" y="-151" type="line"/>
      <point x="364" y="-161"/>
      <point x="344" y="-170"/>
      <point x="326" y="-170" type="curve" smooth="yes"/>
      <point x="289" y="-170"/>
      <point x="262" y="-148"/>
      <point x="262" y="-103" type="curve" smooth="yes"/>
      <point x="262" y="-60"/>
      <point x="289" y="-27"/>
      <point x="337" y="7" type="curve"/>
      <point x="333" y="69" type="line"/>
      <point x="331" y="69" type="line"/>
      <point x="291" y="22"/>
      <point x="251" y="-10"/>
      <point x="195" y="-10" type="curve" smooth="yes"/>
      <point x="112" y="-10"/>
      <point x="73" y="37"/>
      <point x="73" y="142" type="curve" smooth="yes"/>
    </contour>
    <contour>
      <point x="221" y="420" type="move" name="mark0"/>
    </contour>
  </outline>
</glyph>
<glyph name="uni0180" format="1">
  <advance width="437"/>
  <unicode hex="0180"/>
  <outline>
    <contour>
      <point x="105" y="69" type="line"/>
      <point x="153" y="28"/>
      <point x="198" y="13"/>
      <point x="231" y="13" type="curve" smooth="yes"/>
      <point x="318" y="13"/>
      <point x="381" y="90"/>
      <point x="381" y="197" type="curve" smooth="yes"/>
      <point x="381" y="295"/>
      <point x="344" y="370"/>
      <point x="245" y="370" type="curve" smooth="yes"/>
      <point x="202" y="370"/>
      <point x="156" y="346"/>
      <point x="105" y="300" type="curve"/>
    </contour>
    <contour>
      <point x="104" y="328" type="line"/>
      <point x="146" y="364"/>
      <point x="196" y="394"/>
      <point x="247" y="394" type="curve" smooth="yes"/>
      <point x="356" y="394"/>
      <point x="407" y="317"/>
      <point x="407" y="197" type="curve" smooth="yes"/>
      <point x="407" y="67"/>
      <point x="325" y="-10"/>
      <point x="230" y="-10" type="curve" smooth="yes"/>
      <point x="190" y="-10"/>
      <point x="146" y="8"/>
      <point x="107" y="37" type="curve"/>
      <point x="105" y="37" type="line"/>
      <point x="102" y="0" type="line"/>
      <point x="80" y="0" type="line"/>
      <point x="80" y="490" type="line"/>
      <point x="15" y="490" type="line"/>
      <point x="15" y="510" type="line"/>
      <point x="80" y="513" type="line"/>
      <point x="80" y="605" type="line"/>
      <point x="105" y="605" type="line"/>
      <point x="105" y="513" type="line"/>
      <point x="267" y="513" type="line"/>
      <point x="267" y="490" type="line"/>
      <point x="105" y="490" type="line"/>
      <point x="105" y="409" type="line"/>
    </contour>
  </outline>
</glyph>
<glyph name="uni018F" format="1">
  <advance width="540"/>
  <unicode hex="018F"/>
  <outline>
    <contour>
      <point x="80" y="255" type="line"/>
      <point x="87" y="109"/>
      <point x="161" y="13"/>
      <point x="269" y="13" type="curve" smooth="yes"/>
      <point x="381" y="13"/>
      <point x="458" y="110"/>
      <point x="465" y="255" type="curve"/>
    </contour>
    <contour>
      <point x="113" y="501" type="line"/>
      <point x="148" y="537"/>
      <point x="205" y="563"/>
      <point x="271" y="563" type="curve" smooth="yes"/>
      <point x="410" y="563"/>
      <point x="493" y="453"/>
      <point x="493" y="278" type="curve" smooth="yes"/>
      <point x="493" y="104"/>
      <point x="400" y="-10"/>
      <point x="269" y="-10" type="curve" smooth="yes"/>
      <point x="137" y="-10"/>
      <point x="54" y="110"/>
      <point x="54" y="272" type="curve" smooth="yes"/>
      <point x="54" y="278" type="line"/>
      <point x="465" y="278" type="line"/>
      <point x="465" y="436"/>
      <point x="396" y="540"/>
      <point x="272" y="540" type="curve" smooth="yes"/>
      <point x="216" y="540"/>
      <point x="163" y="518"/>
      <point x="127" y="482" type="curve"/>
    </contour>
    <contour>
      <point x="283" y="571" type="move" name="mark0"/>
    </contour>
    <contour>
      <point x="281" y="-19" type="move" name="mark0"/>
    </contour>
  </outline>
</glyph>
<glyph name="uni0192" format="1">
  <advance width="396"/>
  <unicode hex="0192"/>
  <outline>
    <contour>
      <point x="357" y="526" type="line"/>
      <point x="344" y="531"/>
      <point x="327" y="540"/>
      <point x="304" y="540" type="curve" smooth="yes"/>
      <point x="244" y="540"/>
      <point x="221" y="466"/>
      <point x="214" y="396" type="curve" smooth="yes"/>
      <point x="209" y="339" type="line"/>
      <point x="328" y="339" type="line"/>
      <point x="328" y="315" type="line"/>
      <point x="206" y="315" type="line"/>
      <point x="180" y="83" type="line" smooth="yes"/>
      <point x="171" y="-22"/>
      <point x="136" y="-82"/>
      <point x="59" y="-82" type="curve" smooth="yes"/>
      <point x="38" y="-82"/>
      <point x="23" y="-78"/>
      <point x="7" y="-69" type="curve"/>
      <point x="17" y="-48" type="line"/>
      <point x="29" y="-55"/>
      <point x="46" y="-59"/>
      <point x="63" y="-59" type="curve" smooth="yes"/>
      <point x="124" y="-59"/>
      <point x="146" y="5"/>
      <point x="156" y="82" type="curve"/>
      <point x="180" y="315" type="line"/>
      <point x="99" y="315" type="line"/>
      <point x="99" y="335" type="line"/>
      <point x="155" y="339" type="line"/>
      <point x="183" y="339" type="line"/>
      <point x="189" y="394" type="line" smooth="yes"/>
      <point x="200" y="496"/>
      <point x="232" y="563"/>
      <point x="306" y="563" type="curve" smooth="yes"/>
      <point x="334" y="563"/>
      <point x="349" y="555"/>
      <point x="365" y="549" type="curve"/>
    </contour>
  </outline>
</glyph>
<glyph name="Ohorn" format="1">
  <advance width="543"/>
  <unicode hex="01A0"/>
  <outline>
    <contour>
      <point x="274" y="15" type="curve" smooth="yes"/>
      <point x="392" y="15"/>
      <point x="471" y="121"/>
      <point x="471" y="278" type="curve" smooth="yes"/>
      <point x="471" y="437"/>
      <point x="392" y="538"/>
      <point x="274" y="538" type="curve" smooth="yes"/>
      <point x="158" y="538"/>
      <point x="79" y="437"/>
      <point x="79" y="278" type="curve" smooth="yes"/>
      <point x="79" y="121"/>
      <point x="158" y="15"/>
    </contour>
    <contour>
      <point x="471" y="641" type="line"/>
      <point x="481" y="624"/>
      <point x="486" y="611"/>
      <point x="486" y="597" type="curve" smooth="yes"/>
      <point x="486" y="554"/>
      <point x="456" y="530"/>
      <point x="405" y="517" type="curve"/>
      <point x="465" y="470"/>
      <point x="499" y="386"/>
      <point x="499" y="278" type="curve" smooth="yes"/>
      <point x="499" y="104"/>
      <point x="406" y="-10"/>
      <point x="274" y="-10" type="curve" smooth="yes"/>
      <point x="144" y="-10"/>
      <point x="50" y="104"/>
      <point x="50" y="278" type="curve" smooth="yes"/>
      <point x="50" y="453"/>
      <point x="144" y="563"/>
      <point x="274" y="563" type="curve" smooth="yes"/>
      <point x="313" y="563"/>
      <point x="347" y="554"/>
      <point x="378" y="536" type="curve"/>
      <point x="435" y="544"/>
      <point x="461" y="563"/>
      <point x="461" y="595" type="curve" smooth="yes"/>
      <point x="461" y="605"/>
      <point x="456" y="615"/>
      <point x="449" y="626" type="curve"/>
    </contour>
    <contour>
      <point x="274" y="571" type="move" name="mark0"/>
    </contour>
    <contour>
      <point x="269" y="-19" type="move" name="mark0"/>
    </contour>
  </outline>
</glyph>
<glyph name="ohorn" format="1">
  <advance width="446"/>
  <unicode hex="01A1"/>
  <outline>
    <contour>
      <point x="222" y="13" type="curve" smooth="yes"/>
      <point x="307" y="13"/>
      <point x="373" y="88"/>
      <point x="373" y="199" type="curve" smooth="yes"/>
      <point x="373" y="310"/>
      <point x="307" y="387"/>
      <point x="222" y="387" type="curve" smooth="yes"/>
      <point x="138" y="387"/>
      <point x="72" y="310"/>
      <point x="72" y="199" type="curve" smooth="yes"/>
      <point x="72" y="88"/>
      <point x="138" y="13"/>
    </contour>
    <contour>
      <point x="385" y="496" type="line"/>
      <point x="396" y="481"/>
      <point x="400" y="466"/>
      <point x="400" y="453" type="curve" smooth="yes"/>
      <point x="400" y="406"/>
      <point x="363" y="384"/>
      <point x="325" y="375" type="curve"/>
      <point x="372" y="339"/>
      <point x="400" y="280"/>
      <point x="400" y="199" type="curve" smooth="yes"/>
      <point x="400" y="68"/>
      <point x="319" y="-10"/>
      <point x="222" y="-10" type="curve" smooth="yes"/>
      <point x="126" y="-10"/>
      <point x="46" y="68"/>
      <point x="46" y="199" type="curve" smooth="yes"/>
      <point x="46" y="333"/>
      <point x="126" y="411"/>
      <point x="222" y="411" type="curve" smooth="yes"/>
      <point x="250" y="411"/>
      <point x="275" y="405"/>
      <point x="300" y="392" type="curve"/>
      <point x="350" y="400"/>
      <point x="375" y="418"/>
      <point x="375" y="451" type="curve" smooth="yes"/>
      <point x="375" y="461"/>
      <point x="371" y="472"/>
      <point x="364" y="482" type="curve"/>
    </contour>
    <contour>
      <point x="222" y="418" type="move" name="mark0"/>
    </contour>
    <contour>
      <point x="222" y="-19" type="move" name="mark0"/>
    </contour>
  </outline>
</glyph>
<glyph name="Uhorn" format="1">
  <advance width="536"/>
  <unicode hex="01AF"/>
  <outline>
    <contour>
      <point x="513" y="658" type="line"/>
      <point x="523" y="642"/>
      <point x="528" y="627"/>
      <point x="528" y="613" type="curve" smooth="yes"/>
      <point x="528" y="564"/>
      <point x="488" y="543"/>
      <point x="446" y="534" type="curve"/>
      <point x="446" y="206" type="line" smooth="yes"/>
      <point x="446" y="35"/>
      <point x="353" y="-10"/>
      <point x="264" y="-10" type="curve" smooth="yes"/>
      <point x="174" y="-10"/>
      <point x="82" y="35"/>
      <point x="82" y="206" type="curve" smooth="yes"/>
      <point x="82" y="553" type="line"/>
      <point x="109" y="553" type="line"/>
      <point x="109" y="214" type="line" smooth="yes"/>
      <point x="109" y="62"/>
      <point x="181" y="15"/>
      <point x="264" y="15" type="curve" smooth="yes"/>
      <point x="346" y="15"/>
      <point x="420" y="62"/>
      <point x="420" y="214" type="curve" smooth="yes"/>
      <point x="420" y="553" type="line"/>
      <point x="422" y="553" type="line" smooth="yes"/>
      <point x="479" y="560"/>
      <point x="503" y="578"/>
      <point x="503" y="612" type="curve" smooth="yes"/>
      <point x="503" y="622"/>
      <point x="498" y="632"/>
      <point x="491" y="643" type="curve"/>
    </contour>
    <contour>
      <point x="265" y="571" type="move" name="mark0"/>
    </contour>
    <contour>
      <point x="264" y="-19" type="move" name="mark0"/>
    </contour>
  </outline>
</glyph>
<glyph name="uhorn" format="1">
  <advance width="439"/>
  <unicode hex="01B0"/>
  <outline>
    <contour>
      <point x="417" y="505" type="line"/>
      <point x="427" y="490"/>
      <point x="432" y="474"/>
      <point x="432" y="461" type="curve" smooth="yes"/>
      <point x="432" y="411"/>
      <point x="389" y="393"/>
      <point x="359" y="383" type="curve"/>
      <point x="359" y="0" type="line"/>
      <point x="337" y="0" type="line"/>
      <point x="333" y="69" type="line"/>
      <point x="331" y="69" type="line"/>
      <point x="291" y="22"/>
      <point x="251" y="-10"/>
      <point x="195" y="-10" type="curve" smooth="yes"/>
      <point x="112" y="-10"/>
      <point x="73" y="37"/>
      <point x="73" y="142" type="curve" smooth="yes"/>
      <point x="73" y="400" type="line"/>
      <point x="99" y="400" type="line"/>
      <point x="99" y="146" type="line" smooth="yes"/>
      <point x="99" y="56"/>
      <point x="126" y="13"/>
      <point x="196" y="13" type="curve" smooth="yes"/>
      <point x="247" y="13"/>
      <point x="283" y="40"/>
      <point x="333" y="101" type="curve"/>
      <point x="333" y="400" type="line"/>
      <point x="335" y="400" type="line" smooth="yes"/>
      <point x="381" y="407"/>
      <point x="407" y="425"/>
      <point x="407" y="459" type="curve" smooth="yes"/>
      <point x="407" y="469"/>
      <point x="403" y="480"/>
      <point x="396" y="491" type="curve"/>
    </contour>
    <contour>
      <point x="220" y="418" type="move" name="mark0"/>
    </contour>
    <contour>
      <point x="234" y="-19" type="move" name="mark0"/>
    </contour>
  </outline>
</glyph>
<glyph name="uni01EA" format="1">
  <advance width="543"/>
  <unicode hex="01EA"/>
  <outline>
    <contour>
      <point x="231" y="-103" type="curve" smooth="yes"/>
      <point x="231" y="-70"/>
      <point x="248" y="-37"/>
      <point x="281" y="-10" type="curve"/>
      <point x="138" y="-13"/>
      <point x="46" y="104"/>
      <point x="46" y="278" type="curve" smooth="yes"/>
      <point x="46" y="453"/>
      <point x="140" y="563"/>
      <point x="271" y="563" type="curve" smooth="yes"/>
      <point x="402" y="563"/>
      <point x="496" y="453"/>
      <point x="496" y="278" type="curve" smooth="yes"/>
      <point x="496" y="131"/>
      <point x="438" y="44"/>
      <point x="326" y="-7" type="curve" smooth="yes"/>
      <point x="277" y="-29"/>
      <point x="256" y="-68"/>
      <point x="256" y="-101" type="curve" smooth="yes"/>
      <point x="256" y="-130"/>
      <point x="277" y="-146"/>
      <point x="300" y="-146" type="curve" smooth="yes"/>
      <point x="316" y="-146"/>
      <point x="324" y="-143"/>
      <point x="337" y="-134" type="curve"/>
      <point x="348" y="-151" type="line"/>
      <point x="336" y="-161"/>
      <point x="315" y="-170"/>
      <point x="298" y="-170" type="curve" smooth="yes"/>
      <point x="262" y="-170"/>
      <point x="231" y="-148"/>
    </contour>
    <contour>
      <point x="271" y="15" type="curve" smooth="yes"/>
      <point x="389" y="15"/>
      <point x="467" y="121"/>
      <point x="467" y="278" type="curve" smooth="yes"/>
      <point x="467" y="437"/>
      <point x="389" y="538"/>
      <point x="271" y="538" type="curve" smooth="yes"/>
      <point x="155" y="538"/>
      <point x="75" y="437"/>
      <point x="75" y="278" type="curve" smooth="yes"/>
      <point x="75" y="121"/>
      <point x="155" y="15"/>
    </contour>
    <contour>
      <point x="269" y="571" type="move" name="mark0"/>
    </contour>
  </outline>
</glyph>
<glyph name="uni01EB" format="1">
  <advance width="446"/>
  <unicode hex="01EB"/>
  <outline>
    <contour>
      <point x="180" y="-103" type="curve" smooth="yes"/>
      <point x="180" y="-60"/>
      <point x="210" y="-26"/>
      <point x="228" y="-10" type="curve"/>
      <point x="127" y="-10"/>
      <point x="46" y="68"/>
      <point x="46" y="199" type="curve" smooth="yes"/>
      <point x="46" y="333"/>
      <point x="126" y="411"/>
      <point x="222" y="411" type="curve" smooth="yes"/>
      <point x="319" y="411"/>
      <point x="400" y="333"/>
      <point x="400" y="199" type="curve" smooth="yes"/>
      <point x="400" y="83"/>
      <point x="347" y="28"/>
      <point x="269" y="-7" type="curve" smooth="yes"/>
      <point x="232" y="-24"/>
      <point x="206" y="-64"/>
      <point x="206" y="-101" type="curve" smooth="yes"/>
      <point x="206" y="-130"/>
      <point x="225" y="-146"/>
      <point x="248" y="-146" type="curve" smooth="yes"/>
      <point x="264" y="-146"/>
      <point x="271" y="-143"/>
      <point x="285" y="-134" type="curve"/>
      <point x="297" y="-151" type="line"/>
      <point x="284" y="-161"/>
      <point x="264" y="-170"/>
      <point x="247" y="-170" type="curve" smooth="yes"/>
      <point x="210" y="-170"/>
      <point x="180" y="-148"/>
    </contour>
    <contour>
      <point x="72" y="199" type="curve" smooth="yes"/>
      <point x="72" y="88"/>
      <point x="138" y="13"/>
      <point x="222" y="13" type="curve" smooth="yes"/>
      <point x="307" y="13"/>
      <point x="373" y="88"/>
      <point x="373" y="199" type="curve" smooth="yes"/>
      <point x="373" y="310"/>
      <point x="307" y="387"/>
      <point x="222" y="387" type="curve" smooth="yes"/>
      <point x="138" y="387"/>
      <point x="72" y="310"/>
    </contour>
    <contour>
      <point x="222" y="418" type="move" name="mark0"/>
    </contour>
  </outline>
</glyph>
<glyph name="uni0237" format="1">
  <advance width="186"/>
  <unicode hex="0237"/>
  <outline>
    <contour>
      <point x="80" y="400" type="line"/>
      <point x="105" y="400" type="line"/>
      <point x="105" y="-85" type="line" smooth="yes"/>
      <point x="105" y="-163"/>
      <point x="79" y="-196"/>
      <point x="24" y="-196" type="curve" smooth="yes"/>
      <point x="7" y="-196"/>
      <point x="-13" y="-192"/>
      <point x="-25" y="-186" type="curve"/>
      <point x="-19" y="-164" type="line"/>
      <point x="-9" y="-168"/>
      <point x="9" y="-172"/>
      <point x="25" y="-172" type="curve" smooth="yes"/>
      <point x="72" y="-172"/>
      <point x="80" y="-134"/>
      <point x="80" y="-82" type="curve" smooth="yes"/>
    </contour>
    <contour>
      <point x="94" y="418" type="move" name="mark0"/>
    </contour>
  </outline>
</glyph>
<glyph name="uni0243" format="1">
  <advance width="488"/>
  <unicode hex="0243"/>
  <outline>
    <contour>
      <point x="238" y="24" type="line" smooth="yes"/>
      <point x="355" y="24"/>
      <point x="425" y="65"/>
      <point x="425" y="159" type="curve" smooth="yes"/>
      <point x="425" y="243"/>
      <point x="358" y="283"/>
      <point x="238" y="283" type="curve" smooth="yes"/>
      <point x="121" y="283" type="line"/>
      <point x="121" y="172" type="line"/>
      <point x="265" y="172" type="line"/>
      <point x="265" y="149" type="line"/>
      <point x="121" y="149" type="line"/>
      <point x="121" y="24" type="line"/>
    </contour>
    <contour>
      <point x="121" y="307" type="line"/>
      <point x="221" y="307" type="line" smooth="yes"/>
      <point x="342" y="307"/>
      <point x="390" y="345"/>
      <point x="390" y="422" type="curve" smooth="yes"/>
      <point x="390" y="498"/>
      <point x="334" y="530"/>
      <point x="226" y="530" type="curve" smooth="yes"/>
      <point x="121" y="530" type="line"/>
    </contour>
    <contour>
      <point x="318" y="295" type="line"/>
      <point x="401" y="282"/>
      <point x="453" y="238"/>
      <point x="453" y="161" type="curve" smooth="yes"/>
      <point x="453" y="54"/>
      <point x="374" y="0"/>
      <point x="248" y="0" type="curve" smooth="yes"/>
      <point x="94" y="0" type="line"/>
      <point x="94" y="149" type="line"/>
      <point x="28" y="149" type="line"/>
      <point x="28" y="171" type="line"/>
      <point x="94" y="172" type="line"/>
      <point x="94" y="553" type="line"/>
      <point x="238" y="553" type="line" smooth="yes"/>
      <point x="349" y="553"/>
      <point x="417" y="510"/>
      <point x="417" y="418" type="curve" smooth="yes"/>
      <point x="417" y="360"/>
      <point x="384" y="315"/>
      <point x="318" y="298" type="curve"/>
    </contour>
  </outline>
</glyph>
<glyph name="uni0259" format="1">
  <advance width="400"/>
  <unicode hex="0259"/>
  <outline>
    <contour>
      <point x="31" y="182" type="curve" smooth="yes"/>
      <point x="31" y="192"/>
      <point x="30" y="199"/>
      <point x="33" y="210" type="curve"/>
      <point x="328" y="210" type="line"/>
      <point x="328" y="309"/>
      <point x="276" y="387"/>
      <point x="186" y="387" type="curve" smooth="yes"/>
      <point x="137" y="387"/>
      <point x="102" y="370"/>
      <point x="69" y="347" type="curve"/>
      <point x="57" y="368" type="line"/>
      <point x="89" y="391"/>
      <point x="127" y="411"/>
      <point x="188" y="411" type="curve" smooth="yes"/>
      <point x="285" y="411"/>
      <point x="356" y="335"/>
      <point x="356" y="201" type="curve" smooth="yes"/>
      <point x="356" y="71"/>
      <point x="288" y="-10"/>
      <point x="191" y="-10" type="curve" smooth="yes"/>
      <point x="101" y="-10"/>
      <point x="31" y="55"/>
    </contour>
    <contour>
      <point x="57" y="188" type="line"/>
      <point x="57" y="66"/>
      <point x="114" y="13"/>
      <point x="191" y="13" type="curve" smooth="yes"/>
      <point x="271" y="13"/>
      <point x="321" y="79"/>
      <point x="328" y="188" type="curve"/>
    </contour>
    <contour>
      <point x="195" y="418" type="move" name="mark0"/>
    </contour>
    <contour>
      <point x="193" y="-19" type="move" name="mark0"/>
    </contour>
    <contour>
      <point x="193" y="0" type="move" name="mark0"/>
    </contour>
  </outline>
</glyph>
<glyph name="uni0261" format="1">
  <advance width="453"/>
  <unicode hex="0261"/>
  <outline>
    <contour>
      <point x="90" y="-130" type="line"/>
      <point x="130" y="-161"/>
      <point x="172" y="-173"/>
      <point x="216" y="-173" type="curve" smooth="yes"/>
      <point x="303" y="-173"/>
      <point x="347" y="-122"/>
      <point x="347" y="-33" type="curve" smooth="yes"/>
      <point x="347" y="64" type="line"/>
      <point x="314" y="28"/>
      <point x="268" y="-2"/>
      <point x="212" y="-2" type="curve" smooth="yes"/>
      <point x="111" y="-2"/>
      <point x="46" y="71"/>
      <point x="46" y="205" type="curve" smooth="yes"/>
      <point x="46" y="331"/>
      <point x="127" y="411"/>
      <point x="224" y="411" type="curve" smooth="yes"/>
      <point x="273" y="411"/>
      <point x="307" y="393"/>
      <point x="344" y="364" type="curve"/>
      <point x="345" y="364" type="line"/>
      <point x="348" y="400" type="line"/>
      <point x="372" y="400" type="line"/>
      <point x="372" y="-40" type="line" smooth="yes"/>
      <point x="372" y="-135"/>
      <point x="316" y="-196"/>
      <point x="216" y="-196" type="curve" smooth="yes"/>
      <point x="160" y="-196"/>
      <point x="117" y="-179"/>
      <point x="77" y="-153" type="curve"/>
    </contour>
    <contour>
      <point x="214" y="22" type="curve" smooth="yes"/>
      <point x="260" y="22"/>
      <point x="301" y="46"/>
      <point x="347" y="92" type="curve"/>
      <point x="347" y="331" type="line"/>
      <point x="301" y="372"/>
      <point x="266" y="387"/>
      <point x="222" y="387" type="curve" smooth="yes"/>
      <point x="138" y="387"/>
      <point x="72" y="307"/>
      <point x="72" y="205" type="curve" smooth="yes"/>
      <point x="72" y="96"/>
      <point x="122" y="22"/>
    </contour>
    <contour>
      <point x="230" y="418" type="move" name="mark0"/>
    </contour>
    <contour>
      <point x="219" y="-189" type="move" name="mark0"/>
    </contour>
  </outline>
</glyph>
<glyph name="h.sups" format="1">
  <advance width="295"/>
  <unicode hex="02B0"/>
  <outline>
    <contour>
      <point x="50" y="623" type="line"/>
      <point x="73" y="623" type="line"/>
      <point x="73" y="510" type="line"/>
      <point x="73" y="449" type="line"/>
      <point x="100" y="475"/>
      <point x="131" y="498"/>
      <point x="168" y="498" type="curve" smooth="yes"/>
      <point x="231" y="498"/>
      <point x="251" y="456"/>
      <point x="251" y="398" type="curve" smooth="yes"/>
      <point x="251" y="226" type="line"/>
      <point x="228" y="226" type="line"/>
      <point x="228" y="392" type="line" smooth="yes"/>
      <point x="228" y="442"/>
      <point x="216" y="475"/>
      <point x="163" y="475" type="curve" smooth="yes"/>
      <point x="137" y="475"/>
      <point x="110" y="462"/>
      <point x="73" y="425" type="curve"/>
      <point x="73" y="226" type="line"/>
      <point x="50" y="226" type="line"/>
    </contour>
  </outline>
</glyph>
<glyph name="j.sups" format="1">
  <advance width="127"/>
  <unicode hex="02B2"/>
  <outline>
    <contour>
      <point x="17" y="99" type="curve" smooth="yes"/>
      <point x="4" y="99"/>
      <point x="-4" y="100"/>
      <point x="-17" y="105" type="curve"/>
      <point x="-10" y="127" type="line"/>
      <point x="-1" y="123"/>
      <point x="3" y="122"/>
      <point x="15" y="122" type="curve" smooth="yes"/>
      <point x="46" y="122"/>
      <point x="52" y="144"/>
      <point x="52" y="177" type="curve" smooth="yes"/>
      <point x="52" y="491" type="line"/>
      <point x="75" y="491" type="line"/>
      <point x="75" y="180" type="line" smooth="yes"/>
      <point x="75" y="121"/>
      <point x="56" y="99"/>
    </contour>
    <contour>
      <point x="65" y="555" type="curve" smooth="yes"/>
      <point x="52" y="555"/>
      <point x="42" y="565"/>
      <point x="42" y="578" type="curve" smooth="yes"/>
      <point x="42" y="591"/>
      <point x="52" y="602"/>
      <point x="65" y="602" type="curve" smooth="yes"/>
      <point x="79" y="602"/>
      <point x="88" y="591"/>
      <point x="88" y="578" type="curve" smooth="yes"/>
      <point x="88" y="565"/>
      <point x="79" y="555"/>
    </contour>
  </outline>
</glyph>
<glyph name="r.sups" format="1">
  <advance width="179"/>
  <unicode hex="02B3"/>
  <outline>
    <contour>
      <point x="50" y="491" type="line"/>
      <point x="69" y="491" type="line"/>
      <point x="73" y="444" type="line"/>
      <point x="77" y="444" type="line"/>
      <point x="97" y="477"/>
      <point x="121" y="498"/>
      <point x="153" y="498" type="curve" smooth="yes"/>
      <point x="163" y="498"/>
      <point x="174" y="496"/>
      <point x="180" y="493" type="curve"/>
      <point x="174" y="469" type="line"/>
      <point x="169" y="472"/>
      <point x="160" y="473"/>
      <point x="151" y="473" type="curve" smooth="yes"/>
      <point x="124" y="473"/>
      <point x="98" y="456"/>
      <point x="75" y="407" type="curve"/>
      <point x="75" y="226" type="line"/>
      <point x="50" y="226" type="line"/>
    </contour>
  </outline>
</glyph>
<glyph name="w.sups" format="1">
  <advance width="383"/>
  <unicode hex="02B7"/>
  <outline>
    <contour>
      <point x="13" y="491" type="line"/>
      <point x="40" y="491" type="line"/>
      <point x="87" y="320" type="line"/>
      <point x="107" y="248" type="line"/>
      <point x="111" y="248" type="line"/>
      <point x="130" y="320" type="line"/>
      <point x="177" y="491" type="line"/>
      <point x="206" y="491" type="line"/>
      <point x="255" y="320" type="line"/>
      <point x="274" y="248" type="line"/>
      <point x="278" y="248" type="line"/>
      <point x="300" y="320" type="line"/>
      <point x="345" y="491" type="line"/>
      <point x="370" y="491" type="line"/>
      <point x="291" y="226" type="line"/>
      <point x="260" y="226" type="line"/>
      <point x="214" y="389" type="line"/>
      <point x="193" y="465" type="line"/>
      <point x="191" y="465" type="line"/>
      <point x="171" y="389" type="line"/>
      <point x="123" y="226" type="line"/>
      <point x="92" y="226" type="line"/>
    </contour>
  </outline>
</glyph>
<glyph name="y.sups" format="1">
  <advance width="245"/>
  <unicode hex="02B8"/>
  <outline>
    <contour>
      <point x="21" y="136" type="line"/>
      <point x="27" y="132"/>
      <point x="34" y="130"/>
      <point x="42" y="130" type="curve" smooth="yes"/>
      <point x="74" y="130"/>
      <point x="97" y="158"/>
      <point x="111" y="201" type="curve" smooth="yes"/>
      <point x="118" y="221" type="line"/>
      <point x="7" y="491" type="line"/>
      <point x="31" y="491" type="line"/>
      <point x="97" y="326" type="line"/>
      <point x="127" y="250" type="line"/>
      <point x="130" y="250" type="line"/>
      <point x="158" y="326" type="line"/>
      <point x="214" y="491" type="line"/>
      <point x="238" y="491" type="line"/>
      <point x="134" y="197" type="line" smooth="yes"/>
      <point x="119" y="154"/>
      <point x="90" y="107"/>
      <point x="42" y="107" type="curve" smooth="yes"/>
      <point x="30" y="107"/>
      <point x="22" y="109"/>
      <point x="13" y="113" type="curve"/>
    </contour>
  </outline>
</glyph>
<glyph name="uni02BE" format="1">
  <advance width="116"/>
  <unicode hex="02BE"/>
  <outline>
    <contour>
      <point x="28" y="467" type="line"/>
      <point x="69" y="467"/>
      <point x="87" y="489"/>
      <point x="87" y="521" type="curve" smooth="yes"/>
      <point x="87" y="554"/>
      <point x="69" y="574"/>
      <point x="28" y="574" type="curve"/>
      <point x="28" y="591" type="line"/>
      <point x="78" y="594"/>
      <point x="109" y="567"/>
      <point x="109" y="521" type="curve" smooth="yes"/>
      <point x="109" y="474"/>
      <point x="78" y="448"/>
      <point x="28" y="451" type="curve"/>
    </contour>
  </outline>
</glyph>
<glyph name="uni02BF" format="1">
  <advance width="132"/>
  <unicode hex="02BF"/>
  <outline>
    <contour>
      <point x="102" y="574" type="line"/>
      <point x="63" y="574"/>
      <point x="44" y="554"/>
      <point x="44" y="521" type="curve" smooth="yes"/>
      <point x="44" y="489"/>
      <point x="63" y="467"/>
      <point x="102" y="467" type="curve"/>
      <point x="102" y="451" type="line"/>
      <point x="53" y="448"/>
      <point x="22" y="474"/>
      <point x="22" y="521" type="curve" smooth="yes"/>
      <point x="22" y="567"/>
      <point x="53" y="594"/>
      <point x="102" y="591" type="curve"/>
    </contour>
  </outline>
</glyph>
<glyph name="uni02C8" format="1">
  <advance width="73"/>
  <unicode hex="02C8"/>
  <outline>
    <contour>
      <point x="24" y="583" type="line"/>
      <point x="50" y="583" type="line"/>
      <point x="46" y="442" type="line"/>
      <point x="28" y="442" type="line"/>
    </contour>
  </outline>
</glyph>
<glyph name="uni02CC" format="1">
  <advance width="73"/>
  <unicode hex="02CC"/>
  <outline>
    <contour>
      <point x="46" y="-64" type="line"/>
      <point x="50" y="-205" type="line"/>
      <point x="24" y="-205" type="line"/>
      <point x="28" y="-64" type="line"/>
    </contour>
  </outline>
</glyph>
<glyph name="breve" format="1">
  <advance width="446"/>
  <unicode hex="02D8"/>
  <outline>
    <component base="uni0306" xOffset="222"/>
    <contour>
      <point x="222" y="585" type="move" name="mark0"/>
    </contour>
  </outline>
</glyph>
<glyph name="l.sups" format="1">
  <advance width="132"/>
  <unicode hex="02E1"/>
  <outline>
    <contour>
      <point x="50" y="623" type="line"/>
      <point x="73" y="623" type="line"/>
      <point x="73" y="260" type="line" smooth="yes"/>
      <point x="73" y="247"/>
      <point x="78" y="241"/>
      <point x="87" y="241" type="curve" smooth="yes"/>
      <point x="90" y="241"/>
      <point x="93" y="240"/>
      <point x="99" y="243" type="curve"/>
      <point x="104" y="222" type="line"/>
      <point x="98" y="220"/>
      <point x="95" y="220"/>
      <point x="85" y="220" type="curve" smooth="yes"/>
      <point x="60" y="220"/>
      <point x="50" y="234"/>
      <point x="50" y="265" type="curve" smooth="yes"/>
    </contour>
  </outline>
</glyph>
<glyph name="s.sups" format="1">
  <advance width="228"/>
  <unicode hex="02E2"/>
  <outline>
    <contour>
      <point x="33" y="274" type="line"/>
      <point x="57" y="255"/>
      <point x="83" y="241"/>
      <point x="121" y="241" type="curve" smooth="yes"/>
      <point x="160" y="241"/>
      <point x="182" y="264"/>
      <point x="182" y="293" type="curve" smooth="yes"/>
      <point x="182" y="324"/>
      <point x="148" y="339"/>
      <point x="118" y="350" type="curve"/>
      <point x="77" y="366"/>
      <point x="31" y="381"/>
      <point x="31" y="429" type="curve" smooth="yes"/>
      <point x="31" y="463"/>
      <point x="61" y="498"/>
      <point x="114" y="498" type="curve" smooth="yes"/>
      <point x="147" y="498"/>
      <point x="174" y="487"/>
      <point x="195" y="471" type="curve"/>
      <point x="179" y="453" type="line"/>
      <point x="159" y="468"/>
      <point x="144" y="475"/>
      <point x="114" y="475" type="curve" smooth="yes"/>
      <point x="74" y="475"/>
      <point x="57" y="454"/>
      <point x="57" y="431" type="curve" smooth="yes"/>
      <point x="57" y="399"/>
      <point x="86" y="389"/>
      <point x="121" y="375" type="curve" smooth="yes"/>
      <point x="163" y="358"/>
      <point x="208" y="347"/>
      <point x="208" y="297" type="curve" smooth="yes"/>
      <point x="208" y="251"/>
      <point x="171" y="220"/>
      <point x="121" y="220" type="curve" smooth="yes"/>
      <point x="78" y="220"/>
      <point x="45" y="236"/>
      <point x="19" y="256" type="curve"/>
    </contour>
  </outline>
</glyph>
<glyph name="x.sups" format="1">
  <advance width="230"/>
  <unicode hex="02E3"/>
  <outline>
    <contour>
      <point x="101" y="365" type="line"/>
      <point x="15" y="491" type="line"/>
      <point x="44" y="491" type="line"/>
      <point x="87" y="425" type="line"/>
      <point x="116" y="381" type="line"/>
      <point x="120" y="381" type="line"/>
      <point x="146" y="425" type="line"/>
      <point x="188" y="491" type="line"/>
      <point x="214" y="491" type="line"/>
      <point x="130" y="364" type="line"/>
      <point x="221" y="226" type="line"/>
      <point x="193" y="226" type="line"/>
      <point x="147" y="297" type="line"/>
      <point x="116" y="345" type="line"/>
      <point x="113" y="345" type="line"/>
      <point x="79" y="297" type="line"/>
      <point x="33" y="226" type="line"/>
      <point x="7" y="226" type="line"/>
    </contour>
  </outline>
</glyph>
<glyph name="uni0300" format="1">
  <advance width="0"/>
  <unicode hex="0300"/>
  <outline>
    <contour>
      <point x="-67" y="591" type="line"/>
      <point x="-33" y="591" type="line"/>
      <point x="44" y="479" type="line"/>
      <point x="21" y="479" type="line"/>
    </contour>
    <contour>
      <point x="0" y="418" type="move" name="_mark0"/>
    </contour>
  </outline>
</glyph>
<glyph name="uni0302" format="1">
  <advance width="0"/>
  <unicode hex="0302"/>
  <outline>
    <contour>
      <point x="-12" y="591" type="line"/>
      <point x="12" y="591" type="line"/>
      <point x="90" y="479" type="line"/>
      <point x="67" y="479" type="line"/>
      <point x="2" y="565" type="line"/>
      <point x="-2" y="565" type="line"/>
      <point x="-67" y="479" type="line"/>
      <point x="-90" y="479" type="line"/>
    </contour>
    <contour>
      <point x="0" y="418" type="move" name="_mark0"/>
    </contour>
  </outline>
</glyph>
<glyph name="uni0303" format="1">
  <advance width="0"/>
  <unicode hex="0303"/>
  <outline>
    <contour>
      <point x="-99" y="488" type="line"/>
      <point x="-97" y="516"/>
      <point x="-84" y="557"/>
      <point x="-46" y="557" type="curve" smooth="yes"/>
      <point x="-5" y="557"/>
      <point x="19" y="510"/>
      <point x="46" y="510" type="curve" smooth="yes"/>
      <point x="66" y="510"/>
      <point x="75" y="527"/>
      <point x="79" y="557" type="curve"/>
      <point x="99" y="557" type="line"/>
      <point x="96" y="527"/>
      <point x="84" y="488"/>
      <point x="46" y="488" type="curve" smooth="yes"/>
      <point x="6" y="488"/>
      <point x="-16" y="534"/>
      <point x="-47" y="534" type="curve" smooth="yes"/>
      <point x="-66" y="534"/>
      <point x="-75" y="516"/>
      <point x="-79" y="488" type="curve"/>
    </contour>
    <contour>
      <point x="0" y="418" type="move" name="_mark0"/>
    </contour>
  </outline>
</glyph>
<glyph name="uni0306" format="1">
  <advance width="0"/>
  <unicode hex="0306"/>
  <outline>
    <contour>
      <point x="0" y="482" type="curve" smooth="yes"/>
      <point x="-66" y="482"/>
      <point x="-93" y="540"/>
      <point x="-97" y="580" type="curve"/>
      <point x="-75" y="580" type="line"/>
      <point x="-72" y="543"/>
      <point x="-47" y="505"/>
      <point x="0" y="505" type="curve" smooth="yes"/>
      <point x="46" y="505"/>
      <point x="71" y="543"/>
      <point x="75" y="580" type="curve"/>
      <point x="97" y="580" type="line"/>
      <point x="93" y="540"/>
      <point x="66" y="482"/>
    </contour>
    <contour>
      <point x="0" y="418" type="move" name="_mark0"/>
    </contour>
  </outline>
</glyph>
<glyph name="uni0307" format="1">
  <advance width="0"/>
  <unicode hex="0307"/>
  <outline>
    <contour>
      <point x="0" y="503" type="curve" smooth="yes"/>
      <point x="-16" y="503"/>
      <point x="-27" y="514"/>
      <point x="-27" y="532" type="curve" smooth="yes"/>
      <point x="-27" y="549"/>
      <point x="-16" y="562"/>
      <point x="0" y="562" type="curve" smooth="yes"/>
      <point x="16" y="562"/>
      <point x="27" y="549"/>
      <point x="27" y="532" type="curve" smooth="yes"/>
      <point x="27" y="514"/>
      <point x="16" y="503"/>
    </contour>
    <contour>
      <point x="0" y="418" type="move" name="_mark0"/>
    </contour>
  </outline>
</glyph>
<glyph name="uni0309" format="1">
  <advance width="0"/>
  <unicode hex="0309"/>
  <outline>
    <contour>
      <point x="-25" y="479" type="line"/>
      <point x="8" y="490"/>
      <point x="29" y="502"/>
      <point x="29" y="528" type="curve" smooth="yes"/>
      <point x="29" y="555"/>
      <point x="4" y="567"/>
      <point x="-42" y="569" type="curve"/>
      <point x="-40" y="591" type="line"/>
      <point x="9" y="589"/>
      <point x="55" y="573"/>
      <point x="55" y="531" type="curve" smooth="yes"/>
      <point x="55" y="490"/>
      <point x="19" y="473"/>
      <point x="-19" y="461" type="curve"/>
    </contour>
    <contour>
      <point x="0" y="418" type="move" name="_mark0"/>
    </contour>
  </outline>
</glyph>
<glyph name="uni030A" format="1">
  <advance width="0"/>
  <unicode hex="030A"/>
  <outline>
    <contour>
      <point x="0" y="451" type="curve" smooth="yes"/>
      <point x="-37" y="451"/>
      <point x="-66" y="478"/>
      <point x="-66" y="521" type="curve" smooth="yes"/>
      <point x="-66" y="564"/>
      <point x="-37" y="591"/>
      <point x="0" y="591" type="curve" smooth="yes"/>
      <point x="37" y="591"/>
      <point x="65" y="564"/>
      <point x="65" y="521" type="curve" smooth="yes"/>
      <point x="65" y="478"/>
      <point x="37" y="451"/>
    </contour>
    <contour>
      <point x="0" y="469" type="curve" smooth="yes"/>
      <point x="26" y="469"/>
      <point x="46" y="489"/>
      <point x="46" y="521" type="curve" smooth="yes"/>
      <point x="46" y="554"/>
      <point x="26" y="573"/>
      <point x="0" y="573" type="curve" smooth="yes"/>
      <point x="-26" y="573"/>
      <point x="-46" y="554"/>
      <point x="-46" y="521" type="curve" smooth="yes"/>
      <point x="-46" y="489"/>
      <point x="-26" y="469"/>
    </contour>
    <contour>
      <point x="0" y="418" type="move" name="_mark0"/>
    </contour>
  </outline>
</glyph>
<glyph name="uni030F" format="1">
  <advance width="0"/>
  <unicode hex="030F"/>
  <outline>
    <contour>
      <point x="64" y="477" type="line"/>
      <point x="42" y="477" type="line"/>
      <point x="-27" y="591" type="line"/>
      <point x="4" y="591" type="line"/>
    </contour>
    <contour>
      <point x="-44" y="477" type="line"/>
      <point x="-66" y="477" type="line"/>
      <point x="-134" y="591" type="line"/>
      <point x="-104" y="591" type="line"/>
    </contour>
    <contour>
      <point x="0" y="418" type="move" name="_mark0"/>
    </contour>
  </outline>
</glyph>
<glyph name="uni0312" format="1">
  <advance width="0"/>
  <unicode hex="0312"/>
  <outline>
    <contour>
      <point x="33" y="578" type="line"/>
      <point x="1" y="559"/>
      <point x="-10" y="537"/>
      <point x="-10" y="511" type="curve"/>
      <point x="-10" y="512"/>
      <point x="-7" y="512"/>
      <point x="-4" y="512" type="curve" smooth="yes"/>
      <point x="9" y="512"/>
      <point x="24" y="506"/>
      <point x="24" y="486" type="curve" smooth="yes"/>
      <point x="24" y="465"/>
      <point x="12" y="457"/>
      <point x="-2" y="457" type="curve" smooth="yes"/>
      <point x="-23" y="457"/>
      <point x="-33" y="473"/>
      <point x="-33" y="507" type="curve" smooth="yes"/>
      <point x="-33" y="540"/>
      <point x="-19" y="573"/>
      <point x="22" y="597" type="curve"/>
    </contour>
    <contour>
      <point x="0" y="418" type="move" name="_mark0"/>
    </contour>
  </outline>
</glyph>
<glyph name="uni0313" format="1">
  <advance width="0"/>
  <unicode hex="0313"/>
  <outline>
    <contour>
      <point x="-33" y="475" type="line"/>
      <point x="-1" y="495"/>
      <point x="10" y="516"/>
      <point x="10" y="544" type="curve"/>
      <point x="9" y="543"/>
      <point x="7" y="543"/>
      <point x="4" y="543" type="curve" smooth="yes"/>
      <point x="-10" y="543"/>
      <point x="-24" y="549"/>
      <point x="-24" y="567" type="curve" smooth="yes"/>
      <point x="-24" y="588"/>
      <point x="-12" y="597"/>
      <point x="2" y="597" type="curve" smooth="yes"/>
      <point x="23" y="597"/>
      <point x="33" y="581"/>
      <point x="33" y="549" type="curve" smooth="yes"/>
      <point x="33" y="514"/>
      <point x="19" y="480"/>
      <point x="-22" y="457" type="curve"/>
    </contour>
    <contour>
      <point x="0" y="418" type="move" name="_mark0"/>
    </contour>
  </outline>
</glyph>
